G04*
G04 #@! TF.GenerationSoftware,Altium Limited,Altium Designer,22.7.1 (60)*
G04*
G04 Layer_Color=8388736*
%FSLAX44Y44*%
%MOMM*%
G71*
G04*
G04 #@! TF.SameCoordinates,F9262A58-C723-4885-9EE7-A1CEE64B0761*
G04*
G04*
G04 #@! TF.FilePolarity,Negative*
G04*
G01*
G75*
%ADD15R,1.3000X1.5500*%
%ADD16R,1.4000X1.8000*%
%ADD17R,1.2065X1.5082*%
%ADD24R,0.9000X0.7500*%
%ADD25R,1.2621X1.0046*%
%ADD27R,1.5082X1.2065*%
%ADD28R,1.7145X2.1844*%
%ADD31R,1.0046X1.2621*%
%ADD32R,1.9900X2.3300*%
%ADD33R,0.9500X1.4500*%
%ADD34R,1.4082X1.0065*%
%ADD37R,0.7500X0.9000*%
%ADD38R,1.4500X0.9500*%
%ADD39R,0.9000X2.0000*%
%ADD40R,2.0000X0.9000*%
%ADD41R,1.3300X1.3300*%
%ADD42R,0.8000X0.9000*%
%ADD46R,2.0000X3.0000*%
%ADD47R,1.1500X1.1500*%
%ADD48R,2.3300X1.9900*%
%ADD49R,0.8065X1.3082*%
%ADD50R,0.8000X0.8000*%
%ADD51R,0.9032X1.3032*%
%ADD52R,1.2532X0.9832*%
%ADD53R,1.1032X1.1332*%
%ADD54R,1.3432X2.0332*%
%ADD55R,0.9032X3.5032*%
%ADD56R,1.0632X3.0032*%
%ADD57R,1.0332X0.8332*%
%ADD58R,0.8332X1.0332*%
%ADD59R,1.1032X1.0032*%
G04:AMPARAMS|DCode=60|XSize=1.1032mm|YSize=1.9532mm|CornerRadius=0.1511mm|HoleSize=0mm|Usage=FLASHONLY|Rotation=90.000|XOffset=0mm|YOffset=0mm|HoleType=Round|Shape=RoundedRectangle|*
%AMROUNDEDRECTD60*
21,1,1.1032,1.6510,0,0,90.0*
21,1,0.8010,1.9532,0,0,90.0*
1,1,0.3022,0.8255,0.4005*
1,1,0.3022,0.8255,-0.4005*
1,1,0.3022,-0.8255,-0.4005*
1,1,0.3022,-0.8255,0.4005*
%
%ADD60ROUNDEDRECTD60*%
G04:AMPARAMS|DCode=61|XSize=3.4032mm|YSize=1.9532mm|CornerRadius=0.1541mm|HoleSize=0mm|Usage=FLASHONLY|Rotation=90.000|XOffset=0mm|YOffset=0mm|HoleType=Round|Shape=RoundedRectangle|*
%AMROUNDEDRECTD61*
21,1,3.4032,1.6450,0,0,90.0*
21,1,3.0950,1.9532,0,0,90.0*
1,1,0.3082,0.8225,1.5475*
1,1,0.3082,0.8225,-1.5475*
1,1,0.3082,-0.8225,-1.5475*
1,1,0.3082,-0.8225,1.5475*
%
%ADD61ROUNDEDRECTD61*%
%ADD62R,1.0032X1.1032*%
G04:AMPARAMS|DCode=63|XSize=3.3532mm|YSize=1.6532mm|CornerRadius=0.1524mm|HoleSize=0mm|Usage=FLASHONLY|Rotation=90.000|XOffset=0mm|YOffset=0mm|HoleType=Round|Shape=RoundedRectangle|*
%AMROUNDEDRECTD63*
21,1,3.3532,1.3485,0,0,90.0*
21,1,3.0485,1.6532,0,0,90.0*
1,1,0.3047,0.6743,1.5243*
1,1,0.3047,0.6743,-1.5243*
1,1,0.3047,-0.6743,-1.5243*
1,1,0.3047,-0.6743,1.5243*
%
%ADD63ROUNDEDRECTD63*%
G04:AMPARAMS|DCode=64|XSize=1.1032mm|YSize=1.6532mm|CornerRadius=0.1511mm|HoleSize=0mm|Usage=FLASHONLY|Rotation=90.000|XOffset=0mm|YOffset=0mm|HoleType=Round|Shape=RoundedRectangle|*
%AMROUNDEDRECTD64*
21,1,1.1032,1.3510,0,0,90.0*
21,1,0.8010,1.6532,0,0,90.0*
1,1,0.3022,0.6755,0.4005*
1,1,0.3022,0.6755,-0.4005*
1,1,0.3022,-0.6755,-0.4005*
1,1,0.3022,-0.6755,0.4005*
%
%ADD64ROUNDEDRECTD64*%
%ADD65C,2.3000*%
%ADD66R,2.3000X2.3000*%
%ADD67C,1.9532*%
%ADD68R,1.9532X1.9532*%
%ADD69R,1.2000X1.2000*%
%ADD70C,1.2000*%
%ADD71C,1.7500*%
%ADD72R,1.7500X1.7500*%
%ADD73R,2.5000X2.5000*%
%ADD74C,2.5000*%
%ADD75C,1.8400*%
%ADD76R,1.8400X1.8400*%
%ADD77C,1.9032*%
%ADD78R,1.9032X1.9032*%
%ADD79R,1.9032X1.9032*%
%ADD80R,2.0000X2.0000*%
%ADD81C,2.0000*%
%ADD82R,2.0000X2.0000*%
%ADD83C,4.2032*%
%ADD84C,0.9032*%
%ADD85C,1.5032*%
%ADD86C,2.2032*%
D15*
X1123400Y200712D02*
D03*
Y280212D02*
D03*
X1168400Y200712D02*
D03*
Y280212D02*
D03*
X1123400Y523240D02*
D03*
Y602740D02*
D03*
X1168400Y523240D02*
D03*
Y602740D02*
D03*
D16*
X1142954Y179324D02*
D03*
X1168954D02*
D03*
X1147780Y624840D02*
D03*
X1173780D02*
D03*
D17*
X1125633Y154432D02*
D03*
X1146651D02*
D03*
X319119Y534670D02*
D03*
X298101D02*
D03*
X1010571Y643890D02*
D03*
X1031589D02*
D03*
X641350Y525780D02*
D03*
X662367D02*
D03*
X641001Y553720D02*
D03*
X662019D02*
D03*
X317849Y441960D02*
D03*
X296831D02*
D03*
X306419Y218440D02*
D03*
X285401D02*
D03*
D24*
X370840Y515970D02*
D03*
Y527970D02*
D03*
X339090Y480980D02*
D03*
Y468980D02*
D03*
X386080Y157830D02*
D03*
Y169830D02*
D03*
X676910Y253650D02*
D03*
Y241650D02*
D03*
X589280Y214280D02*
D03*
Y202280D02*
D03*
D25*
X342900Y515844D02*
D03*
Y530860D02*
D03*
X941070Y630032D02*
D03*
Y645048D02*
D03*
X410210Y156322D02*
D03*
Y171338D02*
D03*
D27*
X1021080Y508921D02*
D03*
Y529939D02*
D03*
X392430Y659479D02*
D03*
Y638461D02*
D03*
X972820Y529939D02*
D03*
Y508921D02*
D03*
X1075690Y270161D02*
D03*
Y291179D02*
D03*
X1049020Y270161D02*
D03*
Y291179D02*
D03*
X1022350D02*
D03*
Y270161D02*
D03*
X995680Y291179D02*
D03*
Y270161D02*
D03*
X969010Y291179D02*
D03*
Y270161D02*
D03*
X1098550Y550259D02*
D03*
Y529241D02*
D03*
X364490Y154591D02*
D03*
Y175609D02*
D03*
X325120Y341281D02*
D03*
Y362299D02*
D03*
X306070Y302609D02*
D03*
Y281591D02*
D03*
D28*
X458153Y191770D02*
D03*
X496888D02*
D03*
D31*
X399938Y613410D02*
D03*
X384922D02*
D03*
X303418Y193040D02*
D03*
X288402D02*
D03*
X301214Y468630D02*
D03*
X316230D02*
D03*
D32*
X480440Y544830D02*
D03*
X540640D02*
D03*
D33*
X992730Y643890D02*
D03*
X973230D02*
D03*
X880520Y342900D02*
D03*
X900020D02*
D03*
X880520Y304800D02*
D03*
X900020D02*
D03*
X880520Y323850D02*
D03*
X900020D02*
D03*
X620620Y525780D02*
D03*
X601120D02*
D03*
X620620Y553720D02*
D03*
X601120D02*
D03*
D34*
X995680Y529478D02*
D03*
Y510461D02*
D03*
D37*
X1100170Y505460D02*
D03*
X1112170D02*
D03*
X576230Y154940D02*
D03*
X564230D02*
D03*
X301910Y166370D02*
D03*
X289910D02*
D03*
D38*
X1098550Y272190D02*
D03*
Y291690D02*
D03*
X887730Y154530D02*
D03*
Y135030D02*
D03*
X862330Y154530D02*
D03*
Y135030D02*
D03*
X836930Y154530D02*
D03*
Y135030D02*
D03*
D39*
X1112600Y485000D02*
D03*
X1099900D02*
D03*
X1087200D02*
D03*
X1074500D02*
D03*
X1061800D02*
D03*
X1049100D02*
D03*
X1036400D02*
D03*
X1023700D02*
D03*
X1011000D02*
D03*
X998300D02*
D03*
X985600D02*
D03*
X972900D02*
D03*
X960200D02*
D03*
X947500D02*
D03*
Y315000D02*
D03*
X960200D02*
D03*
X972900D02*
D03*
X985600D02*
D03*
X998300D02*
D03*
X1011000D02*
D03*
X1023700D02*
D03*
X1036400D02*
D03*
X1049100D02*
D03*
X1061800D02*
D03*
X1074500D02*
D03*
X1087200D02*
D03*
X1099900D02*
D03*
X1112600D02*
D03*
D40*
X937500Y457150D02*
D03*
Y444450D02*
D03*
Y431750D02*
D03*
Y419050D02*
D03*
Y406350D02*
D03*
Y393650D02*
D03*
Y380950D02*
D03*
Y368250D02*
D03*
Y355550D02*
D03*
Y342850D02*
D03*
D41*
X1055950Y428350D02*
D03*
Y410000D02*
D03*
Y391650D02*
D03*
X1037600Y428350D02*
D03*
Y410000D02*
D03*
Y391650D02*
D03*
X1019250Y428350D02*
D03*
Y410000D02*
D03*
Y391650D02*
D03*
D42*
X283210Y396400D02*
D03*
X292710Y416400D02*
D03*
X273710D02*
D03*
X286410Y236380D02*
D03*
X305410D02*
D03*
X295910Y256380D02*
D03*
D46*
X675160Y130810D02*
D03*
X615160D02*
D03*
X761520Y167640D02*
D03*
X701520D02*
D03*
D47*
X299720Y363540D02*
D03*
Y340041D02*
D03*
X279400Y280350D02*
D03*
Y303850D02*
D03*
D48*
X359410Y215010D02*
D03*
Y275210D02*
D03*
D49*
X401701Y219710D02*
D03*
X418719D02*
D03*
D50*
X967740Y570350D02*
D03*
Y585350D02*
D03*
D51*
X773200Y758000D02*
D03*
X762200D02*
D03*
X740200D02*
D03*
X729200D02*
D03*
X718200D02*
D03*
X707200D02*
D03*
X696200D02*
D03*
X751200D02*
D03*
D52*
X720950Y632600D02*
D03*
D53*
X678300Y633350D02*
D03*
D54*
X657400Y757850D02*
D03*
D55*
X655200Y645200D02*
D03*
X784800D02*
D03*
D56*
X784000Y753000D02*
D03*
D57*
X275590Y357860D02*
D03*
Y335560D02*
D03*
X568960Y181890D02*
D03*
Y204190D02*
D03*
X276860Y456210D02*
D03*
Y478510D02*
D03*
X267970Y235230D02*
D03*
Y257530D02*
D03*
D58*
X631470Y243066D02*
D03*
X653770D02*
D03*
D59*
X369410Y645770D02*
D03*
X349410Y636270D02*
D03*
X369410Y626770D02*
D03*
X321470Y166370D02*
D03*
X341470Y175870D02*
D03*
Y156870D02*
D03*
D60*
X697730Y254140D02*
D03*
Y231140D02*
D03*
Y208140D02*
D03*
D61*
X760230Y231140D02*
D03*
D62*
X318110Y512920D02*
D03*
X308610Y492920D02*
D03*
X299110Y512920D02*
D03*
D63*
X675910Y194310D02*
D03*
D64*
X614410D02*
D03*
Y171310D02*
D03*
Y217310D02*
D03*
D65*
X174020Y63500D02*
D03*
D66*
X400020D02*
D03*
D67*
X140000Y697500D02*
D03*
D68*
Y622500D02*
D03*
D69*
X309830Y661670D02*
D03*
D70*
Y636270D02*
D03*
Y610870D02*
D03*
D71*
X140000Y735000D02*
D03*
D72*
Y585000D02*
D03*
D73*
X450000Y361900D02*
D03*
X750000D02*
D03*
D74*
X450000Y438100D02*
D03*
X750000D02*
D03*
D75*
X1122830Y753110D02*
D03*
X1097430D02*
D03*
X1072030D02*
D03*
X1046630D02*
D03*
X1021230D02*
D03*
X995830D02*
D03*
X970430D02*
D03*
X945030D02*
D03*
X919630D02*
D03*
X894230D02*
D03*
X868830D02*
D03*
X938530Y46990D02*
D03*
X836930D02*
D03*
X862330D02*
D03*
X887730D02*
D03*
X989330D02*
D03*
X1014730D02*
D03*
X1040130D02*
D03*
X1065530D02*
D03*
X1090930D02*
D03*
X963930D02*
D03*
X913130D02*
D03*
D76*
X843430Y753110D02*
D03*
X1116330Y46990D02*
D03*
D77*
X116840Y478790D02*
D03*
Y231140D02*
D03*
X501650Y74830D02*
D03*
X798830Y46990D02*
D03*
X514350Y618490D02*
D03*
X450850D02*
D03*
X947420Y185420D02*
D03*
X1010920D02*
D03*
X542290Y754380D02*
D03*
X567690D02*
D03*
X593090D02*
D03*
X422910D02*
D03*
X448310D02*
D03*
X473710D02*
D03*
X116840Y354965D02*
D03*
D78*
Y440690D02*
D03*
Y193040D02*
D03*
Y316865D02*
D03*
D79*
X539750Y74830D02*
D03*
X773430Y46990D02*
D03*
X539750Y618490D02*
D03*
X476250D02*
D03*
X922020Y185420D02*
D03*
X985520D02*
D03*
X516890Y754380D02*
D03*
X397510D02*
D03*
D80*
X239780Y434340D02*
D03*
Y310515D02*
D03*
Y186690D02*
D03*
D81*
Y459740D02*
D03*
Y485140D02*
D03*
Y335915D02*
D03*
Y361315D02*
D03*
Y212090D02*
D03*
Y237490D02*
D03*
X447040Y252980D02*
D03*
X472440D02*
D03*
D82*
X421640D02*
D03*
D83*
X1170000Y770000D02*
D03*
X30000D02*
D03*
Y30480D02*
D03*
X600000Y400000D02*
D03*
X1170000Y30000D02*
D03*
D84*
X1139698Y660400D02*
D03*
X1139444Y503936D02*
D03*
X1120140Y176784D02*
D03*
X813054Y786384D02*
D03*
X656336Y782828D02*
D03*
X1035050Y250190D02*
D03*
X506730Y157480D02*
D03*
X1010190Y467690D02*
D03*
X852170Y655320D02*
D03*
X843660Y625220D02*
D03*
X890270Y544830D02*
D03*
X998220Y467360D02*
D03*
X982040Y468690D02*
D03*
X1074420Y331470D02*
D03*
X989330Y435610D02*
D03*
X960120Y326646D02*
D03*
X915670Y342900D02*
D03*
X955040Y355600D02*
D03*
X1061720Y331470D02*
D03*
X867321Y518249D02*
D03*
X867410Y508000D02*
D03*
X867499Y497929D02*
D03*
X831850Y478790D02*
D03*
X565150Y623570D02*
D03*
Y601980D02*
D03*
X623570Y623570D02*
D03*
X567690Y495300D02*
D03*
X392430Y520700D02*
D03*
X414020Y586740D02*
D03*
X867410Y487680D02*
D03*
X915670Y323850D02*
D03*
X985600Y326970D02*
D03*
X998300D02*
D03*
X972900D02*
D03*
X915670Y304800D02*
D03*
X1099820Y332740D02*
D03*
X623570Y601980D02*
D03*
X568960Y171450D02*
D03*
X429260Y601980D02*
D03*
X422910Y577850D02*
D03*
X264160Y436880D02*
D03*
X323850Y238760D02*
D03*
X1070390Y214740D02*
D03*
X955040Y393700D02*
D03*
X887730Y190500D02*
D03*
X862330D02*
D03*
X836930D02*
D03*
X426720Y194310D02*
D03*
X563880Y585160D02*
D03*
X570230Y576580D02*
D03*
D85*
X1087120Y628650D02*
D03*
X1113790D02*
D03*
X1040130Y571500D02*
D03*
X1037590Y591820D02*
D03*
X1038860Y679450D02*
D03*
X1090930Y454660D02*
D03*
X1003300Y732790D02*
D03*
X925830Y615020D02*
D03*
X911860Y631190D02*
D03*
X1087120Y671830D02*
D03*
Y372110D02*
D03*
D86*
X990600Y572770D02*
D03*
X414020Y544830D02*
D03*
M02*
