G04*
G04 #@! TF.GenerationSoftware,Altium Limited,Altium Designer,22.7.1 (60)*
G04*
G04 Layer_Color=16711935*
%FSLAX44Y44*%
%MOMM*%
G71*
G04*
G04 #@! TF.SameCoordinates,F9262A58-C723-4885-9EE7-A1CEE64B0761*
G04*
G04*
G04 #@! TF.FilePolarity,Positive*
G04*
G01*
G75*
%ADD12C,0.1500*%
%ADD13C,0.2000*%
%ADD99C,0.1000*%
D12*
X263000Y660000D02*
G03*
X263000Y660000I-123000J0D01*
G01*
X560000Y400000D02*
G03*
X560000Y400000I-110000J0D01*
G01*
X860000D02*
G03*
X860000Y400000I-110000J0D01*
G01*
D13*
X416020Y18500D02*
Y108500D01*
X158020D02*
X416020D01*
X158020Y18500D02*
Y108500D01*
Y18500D02*
X416020D01*
X1115900Y270462D02*
X1175900D01*
X1115900Y210462D02*
Y270462D01*
Y210462D02*
X1175900D01*
Y270462D01*
X1115900Y592990D02*
X1175900D01*
X1115900Y532990D02*
Y592990D01*
Y532990D02*
X1175900D01*
Y592990D01*
X1138954Y188324D02*
X1172954D01*
Y170324D02*
Y188324D01*
X1138954Y170324D02*
X1172954D01*
X1138954D02*
Y188324D01*
X1146142Y148182D02*
Y160682D01*
X1126142D02*
X1146142D01*
X1126142Y148182D02*
Y160682D01*
Y148182D02*
X1146142D01*
X366090Y530720D02*
X375590D01*
X366090Y513220D02*
Y530720D01*
Y513220D02*
X375590D01*
Y530720D01*
X336650Y533352D02*
X349150D01*
X336650Y513352D02*
Y533352D01*
Y513352D02*
X349150D01*
Y533352D01*
X298610Y528420D02*
Y540920D01*
Y528420D02*
X318610D01*
Y540920D01*
X298610D02*
X318610D01*
X334340Y466230D02*
X343840D01*
Y483730D01*
X334340D02*
X343840D01*
X334340Y466230D02*
Y483730D01*
X1014830Y529430D02*
X1027330D01*
X1014830Y509430D02*
Y529430D01*
Y509430D02*
X1027330D01*
Y529430D01*
X1177780Y615840D02*
Y633840D01*
X1143780D02*
X1177780D01*
X1143780Y615840D02*
Y633840D01*
Y615840D02*
X1177780D01*
X454670Y172070D02*
Y211470D01*
Y172070D02*
X500370D01*
Y211470D01*
X454670D02*
X500370D01*
X285080Y587370D02*
X334680D01*
X285080D02*
Y685170D01*
X334680D01*
Y587370D02*
Y685170D01*
X386180Y638970D02*
Y658970D01*
X398680D01*
Y638970D02*
Y658970D01*
X386180Y638970D02*
X398680D01*
X382430Y607160D02*
X402430D01*
X382430D02*
Y619660D01*
X402430D01*
Y607160D02*
Y619660D01*
X548540Y521830D02*
Y567830D01*
X472540D02*
X548540D01*
X472540Y521830D02*
Y567830D01*
Y521830D02*
X548540D01*
X934820Y647540D02*
X947320D01*
X934820Y627540D02*
Y647540D01*
Y627540D02*
X947320D01*
Y647540D01*
X971980Y636890D02*
Y650890D01*
Y636890D02*
X993980D01*
Y650890D01*
X971980D02*
X993980D01*
X1011080Y650140D02*
X1031080D01*
Y637640D02*
Y650140D01*
X1011080Y637640D02*
X1031080D01*
X1011080D02*
Y650140D01*
X1001930Y509970D02*
Y529970D01*
X989430Y509970D02*
X1001930D01*
X989430D02*
Y529970D01*
X1001930D01*
X979070Y509430D02*
Y529430D01*
X966570Y509430D02*
X979070D01*
X966570D02*
Y529430D01*
X979070D01*
X879270Y349900D02*
X901270D01*
Y335900D02*
Y349900D01*
X879270Y335900D02*
X901270D01*
X879270D02*
Y349900D01*
Y311800D02*
X901270D01*
Y297800D02*
Y311800D01*
X879270Y297800D02*
X901270D01*
X879270D02*
Y311800D01*
Y330850D02*
X901270D01*
Y316850D02*
Y330850D01*
X879270Y316850D02*
X901270D01*
X879270D02*
Y330850D01*
X1097420Y510210D02*
X1114920D01*
Y500710D02*
Y510210D01*
X1097420Y500710D02*
X1114920D01*
X1097420D02*
Y510210D01*
X578980Y150190D02*
Y159690D01*
X561480D02*
X578980D01*
X561480Y150190D02*
Y159690D01*
Y150190D02*
X578980D01*
X1091550Y270940D02*
Y292940D01*
X1105550D01*
Y270940D02*
Y292940D01*
X1091550Y270940D02*
X1105550D01*
X1069440Y270670D02*
Y290670D01*
X1081940D01*
Y270670D02*
Y290670D01*
X1069440Y270670D02*
X1081940D01*
X1042770D02*
Y290670D01*
X1055270D01*
Y270670D02*
Y290670D01*
X1042770Y270670D02*
X1055270D01*
X1016100D02*
X1028600D01*
Y290670D01*
X1016100D02*
X1028600D01*
X1016100Y270670D02*
Y290670D01*
X989430Y270670D02*
X1001930D01*
Y290670D01*
X989430D02*
X1001930D01*
X989430Y270670D02*
Y290670D01*
X962760Y270670D02*
X975260D01*
Y290670D01*
X962760D02*
X975260D01*
X962760Y270670D02*
Y290670D01*
X1104800Y529750D02*
Y549750D01*
X1092300Y529750D02*
X1104800D01*
X1092300D02*
Y549750D01*
X1104800D01*
X894730Y133780D02*
Y155780D01*
X880730Y133780D02*
X894730D01*
X880730D02*
Y155780D01*
X894730D01*
X869330Y133780D02*
Y155780D01*
X855330Y133780D02*
X869330D01*
X855330D02*
Y155780D01*
X869330D01*
X843930Y133780D02*
Y155780D01*
X829930Y133780D02*
X843930D01*
X829930D02*
Y155780D01*
X843930D01*
X1188000Y309500D02*
Y490500D01*
X932000Y309500D02*
X1188000D01*
X932000D02*
Y490500D01*
X1188000D01*
X641859Y519530D02*
Y532030D01*
Y519530D02*
X661859D01*
Y532030D01*
X641859D02*
X661859D01*
X599870Y518780D02*
Y532780D01*
Y518780D02*
X621870D01*
Y532780D01*
X599870D02*
X621870D01*
X599870Y546720D02*
Y560720D01*
Y546720D02*
X621870D01*
Y560720D01*
X599870D02*
X621870D01*
X641510Y547470D02*
Y559970D01*
Y547470D02*
X661510D01*
Y559970D01*
X641510D02*
X661510D01*
X358240Y175100D02*
X370740D01*
X358240Y155100D02*
Y175100D01*
Y155100D02*
X370740D01*
Y175100D01*
X381330Y172580D02*
X390830D01*
X381330Y155080D02*
Y172580D01*
Y155080D02*
X390830D01*
Y172580D01*
X403960Y173830D02*
X416460D01*
X403960Y153830D02*
Y173830D01*
Y153830D02*
X416460D01*
Y173830D01*
X285910Y186790D02*
Y199290D01*
Y186790D02*
X305910D01*
Y199290D01*
X285910D02*
X305910D01*
X287160Y161620D02*
Y171120D01*
Y161620D02*
X304660D01*
Y171120D01*
X287160D02*
X304660D01*
X268210Y413400D02*
X298210D01*
X268210Y399400D02*
Y413400D01*
Y399400D02*
X298210D01*
Y413400D01*
X318722Y462380D02*
Y474880D01*
X298722D02*
X318722D01*
X298722Y462380D02*
Y474880D01*
Y462380D02*
X318722D01*
X1136780Y722560D02*
Y784060D01*
X829480D02*
X1136780D01*
X829480Y722560D02*
Y784060D01*
Y722560D02*
X1136780D01*
X822980Y16040D02*
Y77540D01*
Y16040D02*
X1130280D01*
Y77540D01*
X822980D02*
X1130280D01*
X672160Y238900D02*
X681660D01*
Y256400D01*
X672160D02*
X681660D01*
X672160Y238900D02*
Y256400D01*
X584530Y199530D02*
X594030D01*
Y217030D01*
X584530D02*
X594030D01*
X584530Y199530D02*
Y217030D01*
X607660Y108310D02*
Y153310D01*
Y108310D02*
X682660D01*
Y153310D01*
X607660D02*
X682660D01*
X694020Y145140D02*
Y190140D01*
Y145140D02*
X769020D01*
Y190140D01*
X694020D02*
X769020D01*
X297340Y435710D02*
Y448210D01*
Y435710D02*
X317340D01*
Y448210D01*
X297340D02*
X317340D01*
X318870Y341790D02*
Y361790D01*
X331370D01*
Y341790D02*
Y361790D01*
X318870Y341790D02*
X331370D01*
X306470Y340790D02*
Y362790D01*
X292970Y340790D02*
X306470D01*
X292970D02*
Y362790D01*
X306470D01*
X272650Y281100D02*
Y303100D01*
X286150D01*
Y281100D02*
Y303100D01*
X272650Y281100D02*
X286150D01*
X285910Y212190D02*
X305910D01*
X285910D02*
Y224690D01*
X305910D01*
Y212190D02*
Y224690D01*
X280910Y239380D02*
Y253380D01*
X310910D01*
Y239380D02*
Y253380D01*
X280910Y239380D02*
X310910D01*
X312320Y282100D02*
Y302100D01*
X299820Y282100D02*
X312320D01*
X299820D02*
Y302100D01*
X312320D01*
X209530Y405990D02*
X257830D01*
X209530D02*
Y513490D01*
X257830D01*
Y405990D02*
Y513490D01*
X209530Y282165D02*
X257830D01*
X209530D02*
Y389665D01*
X257830D01*
Y282165D02*
Y389665D01*
X209530Y158340D02*
X257830D01*
X209530D02*
Y265840D01*
X257830D01*
Y158340D02*
Y265840D01*
X336410Y207110D02*
Y283110D01*
X382410D01*
Y207110D02*
Y283110D01*
X336410Y207110D02*
X382410D01*
X393290Y234930D02*
Y283230D01*
X500790D01*
Y234930D02*
Y283230D01*
X393290Y234930D02*
X500790D01*
X400210Y225960D02*
X420210D01*
Y213460D02*
Y225960D01*
X400210Y213460D02*
X420210D01*
X400210D02*
Y225960D01*
X963240Y569350D02*
Y586350D01*
X972240D01*
Y569350D02*
Y586350D01*
X963240Y569350D02*
X972240D01*
D99*
X654000Y631500D02*
X786000D01*
X654000D02*
Y772000D01*
X786000D01*
Y631500D02*
Y772000D01*
X269340Y338210D02*
Y355210D01*
Y338210D02*
X281840D01*
Y355210D01*
X269340D02*
X281840D01*
X562710Y201540D02*
X575210D01*
Y184540D02*
Y201540D01*
X562710Y184540D02*
X575210D01*
X562710D02*
Y201540D01*
X651120Y236816D02*
Y249316D01*
X634120Y236816D02*
X651120D01*
X634120D02*
Y249316D01*
X651120D01*
X352910Y650870D02*
X365910D01*
X352910Y621670D02*
X365910D01*
X352910D02*
Y650870D01*
X365910Y621670D02*
Y650870D01*
X710480Y197640D02*
Y264640D01*
X747480Y197640D02*
Y264640D01*
X710480D02*
X747480D01*
X710480Y197640D02*
X747480D01*
X270610Y458860D02*
Y475860D01*
Y458860D02*
X283110D01*
Y475860D01*
X270610D02*
X283110D01*
X294010Y509420D02*
X323210D01*
X294010Y496420D02*
X323210D01*
Y509420D01*
X294010Y496420D02*
Y509420D01*
X74340Y414690D02*
Y504790D01*
Y414690D02*
X146840D01*
X74340Y504790D02*
X146840D01*
Y414690D02*
Y504790D01*
X74340Y167040D02*
Y257140D01*
Y167040D02*
X146840D01*
X74340Y257140D02*
X146840D01*
Y167040D02*
Y257140D01*
X475650Y32330D02*
X565750D01*
X565750D02*
Y104830D01*
X475650Y32330D02*
Y104830D01*
X565750D01*
X626660Y160810D02*
X663660D01*
X626660Y227810D02*
X663660D01*
Y160810D02*
Y227810D01*
X626660Y160810D02*
Y227810D01*
X760730Y17990D02*
Y75990D01*
X811530D01*
X760730Y17990D02*
X811530D01*
Y75990D01*
X552450Y589490D02*
Y647490D01*
X501650Y589490D02*
X552450D01*
X501650Y647490D02*
X552450D01*
X501650Y589490D02*
Y647490D01*
X488950Y589490D02*
Y647490D01*
X438150Y589490D02*
X488950D01*
X438150Y647490D02*
X488950D01*
X438150Y589490D02*
Y647490D01*
X909320Y156420D02*
Y214420D01*
X960120D01*
X909320Y156420D02*
X960120D01*
Y214420D01*
X972820Y156420D02*
Y214420D01*
X1023620D01*
X972820Y156420D02*
X1023620D01*
Y214420D01*
X504190Y725380D02*
Y783380D01*
X605790D01*
Y725380D02*
Y783380D01*
X504190Y725380D02*
X605790D01*
X384810D02*
Y783380D01*
X486410D01*
Y725380D02*
Y783380D01*
X384810Y725380D02*
X486410D01*
X261720Y254880D02*
X274220D01*
Y237880D02*
Y254880D01*
X261720Y237880D02*
X274220D01*
X261720D02*
Y254880D01*
X324970Y180970D02*
X337970D01*
X324970Y151770D02*
X337970D01*
X324970D02*
Y180970D01*
X337970Y151770D02*
Y180970D01*
X146840Y290865D02*
Y380965D01*
X74340D02*
X146840D01*
X74340Y290865D02*
X146840D01*
X74340Y290865D02*
Y380965D01*
M02*
