G04*
G04 #@! TF.GenerationSoftware,Altium Limited,Altium Designer,22.7.1 (60)*
G04*
G04 Layer_Color=0*
%FSLAX44Y44*%
%MOMM*%
G71*
G04*
G04 #@! TF.SameCoordinates,F9262A58-C723-4885-9EE7-A1CEE64B0761*
G04*
G04*
G04 #@! TF.FilePolarity,Positive*
G04*
G01*
G75*
%ADD99C,0.1000*%
D99*
X287020Y58500D02*
Y68500D01*
X282020Y63500D02*
X292020D01*
X1145900Y231162D02*
Y249762D01*
X1136600Y240462D02*
X1155200D01*
X1145900Y553690D02*
Y572290D01*
X1136600Y562990D02*
X1155200D01*
X1150954Y179324D02*
X1160954D01*
X1155954Y174324D02*
Y184324D01*
X1136142Y149432D02*
Y159432D01*
X1131142Y154432D02*
X1141142D01*
X365840Y521970D02*
X375840D01*
X370840Y516970D02*
Y526970D01*
X337900Y523352D02*
X347900D01*
X342900Y518352D02*
Y528352D01*
X308610Y529670D02*
Y539670D01*
X303610Y534670D02*
X313610D01*
X334090Y474980D02*
X344090D01*
X339090Y469980D02*
Y479980D01*
X1016080Y519430D02*
X1026080D01*
X1021080Y514430D02*
Y524430D01*
X1160780Y619840D02*
Y629840D01*
X1155780Y624840D02*
X1165780D01*
X477520Y186770D02*
Y196770D01*
X472520Y191770D02*
X482520D01*
X304880Y636270D02*
X314880D01*
X309880Y631270D02*
Y641270D01*
X392430Y643970D02*
Y653970D01*
X387430Y648970D02*
X397430D01*
X387430Y613410D02*
X397430D01*
X392430Y608410D02*
Y618410D01*
X510540Y539830D02*
Y549830D01*
X505540Y544830D02*
X515540D01*
X135000Y660000D02*
X145000D01*
X140000Y655000D02*
Y665000D01*
X936070Y637540D02*
X946070D01*
X941070Y632540D02*
Y642540D01*
X982980Y638890D02*
Y648890D01*
X977980Y643890D02*
X987980D01*
X1016080D02*
X1026080D01*
X1021080Y638890D02*
Y648890D01*
X995680Y514970D02*
Y524970D01*
X990680Y519970D02*
X1000680D01*
X972820Y514430D02*
Y524430D01*
X967820Y519430D02*
X977820D01*
X450000Y395000D02*
Y405000D01*
X445000Y400000D02*
X455000D01*
X885270Y342900D02*
X895270D01*
X890270Y337900D02*
Y347900D01*
X885270Y304800D02*
X895270D01*
X890270Y299800D02*
Y309800D01*
X885270Y323850D02*
X895270D01*
X890270Y318850D02*
Y328850D01*
X1101170Y505460D02*
X1111170D01*
X1106170Y500460D02*
Y510460D01*
X570230Y149940D02*
Y159940D01*
X565230Y154940D02*
X575230D01*
X1098550Y276940D02*
Y286940D01*
X1093550Y281940D02*
X1103550D01*
X1075690Y275670D02*
Y285670D01*
X1070690Y280670D02*
X1080690D01*
X1049020Y275670D02*
Y285670D01*
X1044020Y280670D02*
X1054020D01*
X1017350D02*
X1027350D01*
X1022350Y275670D02*
Y285670D01*
X990680Y280670D02*
X1000680D01*
X995680Y275670D02*
Y285670D01*
X964010Y280670D02*
X974010D01*
X969010Y275670D02*
Y285670D01*
X1098550Y534750D02*
Y544750D01*
X1093550Y539750D02*
X1103550D01*
X887730Y139780D02*
Y149780D01*
X882730Y144780D02*
X892730D01*
X862330Y139780D02*
Y149780D01*
X857330Y144780D02*
X867330D01*
X836930Y139780D02*
Y149780D01*
X831930Y144780D02*
X841930D01*
X1060000Y395000D02*
Y405000D01*
X1055000Y400000D02*
X1065000D01*
X651859Y520780D02*
Y530780D01*
X646859Y525780D02*
X656859D01*
X610870Y520780D02*
Y530780D01*
X605870Y525780D02*
X615870D01*
X610870Y548720D02*
Y558720D01*
X605870Y553720D02*
X615870D01*
X651510Y548720D02*
Y558720D01*
X646510Y553720D02*
X656510D01*
X359490Y165100D02*
X369490D01*
X364490Y160100D02*
Y170100D01*
X381080Y163830D02*
X391080D01*
X386080Y158830D02*
Y168830D01*
X405210Y163830D02*
X415210D01*
X410210Y158830D02*
Y168830D01*
X295910Y188040D02*
Y198040D01*
X290910Y193040D02*
X300910D01*
X295910Y161370D02*
Y171370D01*
X290910Y166370D02*
X300910D01*
X278210Y406400D02*
X288210D01*
X283210Y401400D02*
Y411400D01*
X308722Y463630D02*
Y473630D01*
X303722Y468630D02*
X313722D01*
X745000Y400000D02*
X755000D01*
X750000Y395000D02*
Y405000D01*
X983130Y748310D02*
Y758310D01*
X978130Y753310D02*
X988130D01*
X976630Y41790D02*
Y51790D01*
X971630Y46790D02*
X981630D01*
X671910Y247650D02*
X681910D01*
X676910Y242650D02*
Y252650D01*
X584280Y208280D02*
X594280D01*
X589280Y203280D02*
Y213280D01*
X645160Y125810D02*
Y135810D01*
X640160Y130810D02*
X650160D01*
X731520Y162640D02*
Y172640D01*
X726520Y167640D02*
X736520D01*
X307340Y436960D02*
Y446960D01*
X302340Y441960D02*
X312340D01*
X325120Y346790D02*
Y356790D01*
X320120Y351790D02*
X330120D01*
X299720Y346790D02*
Y356790D01*
X294720Y351790D02*
X304720D01*
X279400Y287100D02*
Y297100D01*
X274400Y292100D02*
X284400D01*
X290910Y218440D02*
X300910D01*
X295910Y213440D02*
Y223440D01*
Y241380D02*
Y251380D01*
X290910Y246380D02*
X300910D01*
X306070Y287100D02*
Y297100D01*
X301070Y292100D02*
X311070D01*
X228680Y459740D02*
X238680D01*
X233680Y454740D02*
Y464740D01*
X228680Y335915D02*
X238680D01*
X233680Y330915D02*
Y340915D01*
X228680Y212090D02*
X238680D01*
X233680Y207090D02*
Y217090D01*
X359410Y240110D02*
Y250110D01*
X354410Y245110D02*
X364410D01*
X447040Y254080D02*
Y264080D01*
X442040Y259080D02*
X452040D01*
X405210Y219710D02*
X415210D01*
X410210Y214710D02*
Y224710D01*
X967740Y572850D02*
Y582850D01*
X962740Y577850D02*
X972740D01*
M02*
