G04*
G04 #@! TF.GenerationSoftware,Altium Limited,Altium Designer,22.7.1 (60)*
G04*
G04 Layer_Physical_Order=2*
G04 Layer_Color=16711680*
%FSLAX44Y44*%
%MOMM*%
G71*
G04*
G04 #@! TF.SameCoordinates,F9262A58-C723-4885-9EE7-A1CEE64B0761*
G04*
G04*
G04 #@! TF.FilePolarity,Positive*
G04*
G01*
G75*
%ADD14C,0.2540*%
%ADD65C,2.3000*%
%ADD66R,2.3000X2.3000*%
%ADD69R,1.2000X1.2000*%
%ADD70C,1.2000*%
%ADD71C,1.7500*%
%ADD72R,1.7500X1.7500*%
%ADD73R,2.5000X2.5000*%
%ADD74C,2.5000*%
%ADD75C,1.8400*%
%ADD76R,1.8400X1.8400*%
%ADD80R,2.0000X2.0000*%
%ADD81C,2.0000*%
%ADD82R,2.0000X2.0000*%
%ADD87C,0.2032*%
%ADD88C,2.5000*%
%ADD89C,0.9000*%
%ADD90C,0.8000*%
%ADD91R,1.7500X1.7500*%
%ADD92C,1.7000*%
%ADD93R,1.7000X1.7000*%
%ADD94R,1.7000X1.7000*%
%ADD95C,4.0000*%
%ADD96C,0.7000*%
%ADD97C,1.3000*%
D14*
X1170000Y747460D02*
Y770000D01*
X1139698Y660400D02*
Y666440D01*
X1133658Y660400D02*
X1139698D01*
Y654360D02*
Y660400D01*
X1145738D01*
X1139444Y503936D02*
X1145484D01*
X1133404D02*
X1139444D01*
Y497896D02*
Y503936D01*
Y509976D01*
X843430Y753110D02*
Y764850D01*
Y753110D02*
X855170D01*
X843430Y741370D02*
Y753110D01*
X831690D02*
X843430D01*
X567690Y754380D02*
Y765420D01*
X556650Y754380D02*
X567690D01*
Y743340D02*
Y754380D01*
X539750Y618490D02*
X550790D01*
X985520Y185420D02*
Y196460D01*
X974480Y185420D02*
X985520D01*
X996560D01*
X1120140Y176784D02*
Y182824D01*
Y176784D02*
X1126180D01*
X1120140Y170744D02*
Y176784D01*
X1114100D02*
X1120140D01*
X1170000Y30000D02*
Y52540D01*
X1116330Y46990D02*
X1128070D01*
X1147460Y30000D02*
X1170000D01*
X1116330Y46990D02*
Y58730D01*
X1104590Y46990D02*
X1116330D01*
Y35250D02*
Y46990D01*
X985520Y174380D02*
Y185420D01*
X922020Y174380D02*
Y185420D01*
Y196460D01*
X910980Y185420D02*
X922020D01*
X600000Y400000D02*
X622540D01*
X577460D02*
X600000D01*
X963930Y46990D02*
Y58730D01*
X952190Y46990D02*
X963930D01*
X975670D01*
X913130D02*
Y58730D01*
X901390Y46990D02*
X913130D01*
X924870D01*
X773430D02*
Y58030D01*
X762390Y46990D02*
X773430D01*
X784470D01*
X773430Y35950D02*
Y46990D01*
X516890Y754380D02*
Y765420D01*
Y754380D02*
X527930D01*
X516890Y743340D02*
Y754380D01*
X505850D02*
X516890D01*
X448310D02*
Y765420D01*
X437270Y754380D02*
X448310D01*
X459350D01*
X448310Y743340D02*
Y754380D01*
X476250Y618490D02*
Y629530D01*
X397510Y754380D02*
Y765420D01*
Y754380D02*
X408550D01*
X386470D02*
X397510D01*
Y743340D02*
Y754380D01*
X528710Y618490D02*
X539750D01*
X476250D02*
X487290D01*
X465210D02*
X476250D01*
X239780Y485140D02*
X252320D01*
X227240D02*
X239780D01*
Y497680D01*
X30000Y770000D02*
X52540D01*
X30000Y747460D02*
Y770000D01*
X239780Y361315D02*
Y373855D01*
Y361315D02*
X252320D01*
X227240D02*
X239780D01*
X472440Y252980D02*
X484980D01*
X472440Y240440D02*
Y252980D01*
Y265520D01*
X501650Y74830D02*
Y85870D01*
X490610Y74830D02*
X501650D01*
X512690D01*
X501650Y63790D02*
Y74830D01*
X239780Y237490D02*
Y250030D01*
X227240Y237490D02*
X239780D01*
X30000Y30480D02*
X52540D01*
X30000D02*
Y53020D01*
X665163Y775208D02*
X801878D01*
X813054Y786384D01*
X657543Y782828D02*
X665163Y775208D01*
X656336Y782828D02*
X657543D01*
X872711Y530639D02*
X967105Y436245D01*
X998220Y467360D01*
X991502Y368990D02*
X1071512D01*
X966631Y393861D02*
Y429535D01*
Y393861D02*
X991502Y368990D01*
X915670Y342900D02*
Y470078D01*
X831850Y500300D02*
X862189Y530639D01*
X872711D01*
X860011Y521277D02*
X864293Y525559D01*
X867321Y518249D02*
X867499D01*
X915670Y470078D01*
X831850Y478790D02*
Y500300D01*
X864293Y525559D02*
X870607D01*
X860011Y515221D02*
Y521277D01*
Y515221D02*
X867232Y508000D01*
X870607Y525559D02*
X966631Y429535D01*
X867232Y508000D02*
X867410D01*
X860100Y490708D02*
X867321Y497929D01*
X867499D01*
X392430Y520700D02*
X542290D01*
X567690Y495300D01*
X860100Y360370D02*
Y490708D01*
Y360370D02*
X915670Y304800D01*
X895350Y344170D02*
X915670Y323850D01*
X895350Y344170D02*
Y459740D01*
X867410Y487680D02*
X895350Y459740D01*
X425450Y586740D02*
X429260Y582930D01*
X414020Y586740D02*
X425450D01*
X1099820Y332740D02*
Y340682D01*
X1071512Y368990D02*
X1099820Y340682D01*
X422910Y577850D02*
X566512D01*
X569377Y577433D02*
X570230Y576580D01*
X566512Y577850D02*
X566929Y577433D01*
X569377D01*
X429260Y582930D02*
X560162D01*
X560579Y583347D01*
X560860D01*
X562673Y585160D02*
X563880D01*
X560860Y583347D02*
X562673Y585160D01*
D65*
X174020Y63500D02*
D03*
D66*
X400020D02*
D03*
D69*
X309830Y661670D02*
D03*
D70*
Y636270D02*
D03*
Y610870D02*
D03*
D71*
X140000Y697500D02*
D03*
Y735000D02*
D03*
D72*
Y585000D02*
D03*
D73*
X450000Y361900D02*
D03*
X750000D02*
D03*
D74*
X450000Y438100D02*
D03*
X750000D02*
D03*
D75*
X1122830Y753110D02*
D03*
X1097430D02*
D03*
X1072030D02*
D03*
X1046630D02*
D03*
X1021230D02*
D03*
X995830D02*
D03*
X970430D02*
D03*
X945030D02*
D03*
X919630D02*
D03*
X894230D02*
D03*
X868830D02*
D03*
X938530Y46990D02*
D03*
X836930D02*
D03*
X862330D02*
D03*
X887730D02*
D03*
X989330D02*
D03*
X1014730D02*
D03*
X1040130D02*
D03*
X1065530D02*
D03*
X1090930D02*
D03*
X963930D02*
D03*
X913130D02*
D03*
D76*
X843430Y753110D02*
D03*
X1116330Y46990D02*
D03*
D80*
X239780Y434340D02*
D03*
Y310515D02*
D03*
Y186690D02*
D03*
D81*
Y459740D02*
D03*
Y485140D02*
D03*
Y335915D02*
D03*
Y361315D02*
D03*
Y212090D02*
D03*
Y237490D02*
D03*
X447040Y252980D02*
D03*
X472440D02*
D03*
X990600Y572770D02*
D03*
X414020Y544830D02*
D03*
D82*
X421640Y252980D02*
D03*
D87*
X1151056Y756000D02*
G03*
X1191444Y760251I18944J14000D01*
G01*
X1148697Y727094D02*
G03*
X1151056Y732790I-5696J5696D01*
G01*
X1148697Y727094D02*
G03*
X1151056Y732790I-5696J5696D01*
G01*
X1110130Y751916D02*
G03*
X1134944Y749114I12700J1194D01*
G01*
X1084730Y751916D02*
G03*
X1110130Y751916I12700J1194D01*
G01*
X1108093Y709277D02*
G03*
X1105734Y703580I5696J-5696D01*
G01*
X1108093Y709277D02*
G03*
X1105734Y703580I5696J-5696D01*
G01*
X1095176Y665811D02*
G03*
X1097176Y671830I-8056J6019D01*
G01*
D02*
G03*
X1080086Y679016I-10056J0D01*
G01*
X999117Y791444D02*
G03*
X995213Y789286I1793J-7854D01*
G01*
X999117Y791444D02*
G03*
X995213Y789286I1793J-7854D01*
G01*
X1080086Y743220D02*
G03*
X1084730Y751916I-8056J9890D01*
G01*
X983130D02*
G03*
X996708Y740384I12700J1194D01*
G01*
X957730Y751916D02*
G03*
X983130Y751916I12700J1194D01*
G01*
X971727Y765800D02*
G03*
X957730Y754304I-1297J-12690D01*
G01*
D02*
G03*
X932330Y754304I-12700J-1194D01*
G01*
D02*
G03*
X906930Y754304I-12700J-1194D01*
G01*
X952936Y743100D02*
G03*
X957730Y751916I-7906J10010D01*
G01*
X906930D02*
G03*
X911574Y743220I12700J1194D01*
G01*
X996708Y740384D02*
G03*
X995244Y726771I6592J-7594D01*
G01*
X950576Y723283D02*
G03*
X952936Y728980I-5696J5696D01*
G01*
X950576Y723283D02*
G03*
X952936Y728980I-5696J5696D01*
G01*
X1146754Y660400D02*
G03*
X1146754Y660400I-7056J0D01*
G01*
X1123846Y628650D02*
G03*
X1121846Y634669I-10056J0D01*
G01*
X1105734D02*
G03*
X1123846Y628650I8056J-6019D01*
G01*
X1146500Y503936D02*
G03*
X1146500Y503936I-7056J0D01*
G01*
X1150400Y497556D02*
G03*
X1145057Y495343I0J-7556D01*
G01*
X1150400Y497556D02*
G03*
X1145051Y495337I0J-7556D01*
G01*
X1120576Y520936D02*
G03*
X1118216Y526632I-8056J0D01*
G01*
X1120576Y520936D02*
G03*
X1118216Y526632I-8056J0D01*
G01*
X1097176Y628650D02*
G03*
X1095176Y634669I-10056J0D01*
G01*
X1080086Y621464D02*
G03*
X1097176Y628650I7034J7186D01*
G01*
X921916Y631190D02*
G03*
X919916Y637209I-10056J0D01*
G01*
X903804D02*
G03*
X921916Y631190I8056J-6019D01*
G01*
X924389Y624972D02*
G03*
X917401Y609536I1441J-9952D01*
G01*
X1002634Y583399D02*
G03*
X990600Y588826I-12034J-10629D01*
G01*
X906930Y754304D02*
G03*
X881530Y754304I-12700J-1194D01*
G01*
D02*
G03*
X856186Y754797I-12700J-1194D01*
G01*
X812827Y779332D02*
G03*
X820110Y786384I227J7052D01*
G01*
D02*
G03*
X817972Y791444I-7056J0D01*
G01*
X808136D02*
G03*
X806002Y786157I4918J-5060D01*
G01*
X668803Y784038D02*
G03*
X674940Y781444I6137J5962D01*
G01*
X668803Y784038D02*
G03*
X674940Y781444I6137J5962D01*
G01*
X801878Y770382D02*
G03*
X805298Y771803I0J4826D01*
G01*
X801878Y770382D02*
G03*
X805291Y771796I0J4826D01*
G01*
X781940Y781444D02*
G03*
X788057Y784018I0J8556D01*
G01*
X781940Y781444D02*
G03*
X788057Y784018I0J8556D01*
G01*
X881530Y751916D02*
G03*
X906930Y751916I12700J1194D01*
G01*
X856186Y751423D02*
G03*
X881530Y751916I12644J1687D01*
G01*
X846473Y661016D02*
G03*
X857867Y649623I5696J-5696D01*
G01*
X851716Y625220D02*
G03*
X838775Y631626I-8056J0D01*
G01*
X661750Y771796D02*
G03*
X665163Y770382I3413J3413D01*
G01*
X661743Y771803D02*
G03*
X665163Y770382I3420J3405D01*
G01*
X663313Y783883D02*
G03*
X657650Y775895I-6977J-1055D01*
G01*
X609146Y754380D02*
G03*
X578176Y760328I-16056J0D01*
G01*
X554346Y754380D02*
G03*
X554346Y754380I-12056J0D01*
G01*
X578176Y760328D02*
G03*
X577034Y746762I-10487J-5948D01*
G01*
X560386Y639726D02*
G03*
X554690Y642086I-5696J-5696D01*
G01*
X560386Y639726D02*
G03*
X554690Y642086I-5696J-5696D01*
G01*
X880110Y588826D02*
G03*
X868757Y584123I0J-16056D01*
G01*
X880110Y588826D02*
G03*
X868757Y584123I0J-16056D01*
G01*
X849357Y619524D02*
G03*
X851716Y625220I-5696J5696D01*
G01*
X855185Y515221D02*
G03*
X856606Y511801I4826J0D01*
G01*
X855185Y515221D02*
G03*
X856599Y511809I4826J0D01*
G01*
X860354Y508053D02*
G03*
X862512Y502921I7056J-53D01*
G01*
X842010Y615514D02*
G03*
X847707Y617873I0J8056D01*
G01*
X842010Y615514D02*
G03*
X847707Y617873I0J8056D01*
G01*
X623570Y631626D02*
G03*
X623570Y615514I0J-8056D01*
G01*
Y609536D02*
G03*
X623570Y594424I0J-7556D01*
G01*
X803987Y519353D02*
G03*
X799442Y510249I11353J-11353D01*
G01*
X803987Y519353D02*
G03*
X799442Y510249I11353J-11353D01*
G01*
X862512Y502921D02*
G03*
X860443Y497876I4987J-4992D01*
G01*
X856695Y494128D02*
G03*
X855274Y490708I3405J-3420D01*
G01*
X856687Y494120D02*
G03*
X855274Y490708I3413J-3413D01*
G01*
X827024Y483937D02*
G03*
X838906Y478790I4826J-5148D01*
G01*
D02*
G03*
X836676Y483937I-7056J0D01*
G01*
X559454Y617873D02*
G03*
X573206Y623570I5696J5696D01*
G01*
D02*
G03*
X570846Y629267I-8056J0D01*
G01*
X565150Y594424D02*
G03*
X572706Y601980I0J7556D01*
G01*
D02*
G03*
X565150Y609536I-7556J0D01*
G01*
X570765Y583616D02*
G03*
X570936Y585160I-6885J1544D01*
G01*
D02*
G03*
X557319Y587756I-7056J0D01*
G01*
X564136Y573024D02*
G03*
X577034Y574711I6094J3556D01*
G01*
Y578449D02*
G03*
X570765Y583616I-6804J-1869D01*
G01*
X545710Y524105D02*
G03*
X542290Y525526I-3420J-3405D01*
G01*
X545703Y524113D02*
G03*
X542290Y525526I-3413J-3413D01*
G01*
X574746Y495300D02*
G03*
X567463Y502352I-7056J0D01*
G01*
X560638Y495527D02*
G03*
X574746Y495300I7052J-227D01*
G01*
X1116944Y334730D02*
G03*
X1119163Y329381I7556J0D01*
G01*
X1116944Y334730D02*
G03*
X1119157Y329387I7556J0D01*
G01*
X1106876Y332740D02*
G03*
X1104646Y337887I-7056J0D01*
G01*
Y340682D02*
G03*
X1103232Y344095I-4826J0D01*
G01*
X1104646Y340682D02*
G03*
X1103225Y344102I-4826J0D01*
G01*
X1095176Y327428D02*
G03*
X1106876Y332740I4644J5312D01*
G01*
X1143887Y304657D02*
G03*
X1149230Y302444I5343J5343D01*
G01*
X1143881Y304663D02*
G03*
X1149230Y302444I5349J5337D01*
G01*
X1113066Y229570D02*
G03*
X1110706Y235266I-8056J0D01*
G01*
X1113066Y229570D02*
G03*
X1110706Y235266I-8056J0D01*
G01*
X1085060Y362267D02*
G03*
X1097072Y370669I2060J9843D01*
G01*
X1094016Y253071D02*
G03*
X1095176Y257236I-6896J4165D01*
G01*
X1094016Y253071D02*
G03*
X1095176Y257236I-6896J4165D01*
G01*
X1002864Y258000D02*
G03*
X1005223Y252304I8056J0D01*
G01*
X1002864Y258000D02*
G03*
X1005223Y252304I8056J0D01*
G01*
X1021729Y235798D02*
G03*
X1022464Y234953I6431J4852D01*
G01*
X1021729Y235798D02*
G03*
X1022464Y234953I6431J4852D01*
G01*
X1022976Y185420D02*
G03*
X1022976Y185420I-12056J0D01*
G01*
X1127196Y176784D02*
G03*
X1127196Y176784I-7056J0D01*
G01*
X1110706Y152705D02*
G03*
X1113066Y158402I-5696J5696D01*
G01*
X1110706Y152705D02*
G03*
X1113066Y158402I-5696J5696D01*
G01*
X1191444Y39749D02*
G03*
X1160251Y8556I-21444J-9749D01*
G01*
X1103574Y48677D02*
G03*
X1078230Y48184I-12644J-1687D01*
G01*
X1089633Y34300D02*
G03*
X1103574Y45303I1297J12690D01*
G01*
X1074690Y22694D02*
G03*
X1080387Y25054I0J8056D01*
G01*
X1074690Y22694D02*
G03*
X1080387Y25054I0J8056D01*
G01*
X1078230Y48184D02*
G03*
X1073586Y56880I-12700J-1194D01*
G01*
X1006674D02*
G03*
X1002030Y48184I8056J-9890D01*
G01*
D02*
G03*
X976630Y48184I-12700J-1194D01*
G01*
X908618Y305027D02*
G03*
X915030Y297773I7052J-227D01*
G01*
X977600Y262234D02*
G03*
X983297Y264594I0J8056D01*
G01*
X977600Y262234D02*
G03*
X983297Y264594I0J8056D01*
G01*
X855274Y360370D02*
G03*
X856695Y356950I4826J0D01*
G01*
X855274Y360370D02*
G03*
X856687Y356958I4826J0D01*
G01*
X963476Y185420D02*
G03*
X934076Y194349I-16056J0D01*
G01*
X958773Y161197D02*
G03*
X963476Y172550I-11353J11353D01*
G01*
X879674Y190500D02*
G03*
X895786Y190500I8056J0D01*
G01*
X854274D02*
G03*
X870386Y190500I8056J0D01*
G01*
X829019Y188976D02*
G03*
X842626Y184804I7911J1523D01*
G01*
X750000Y422044D02*
G03*
X761353Y426747I0J16056D01*
G01*
X750000Y422044D02*
G03*
X761353Y426747I0J16056D01*
G01*
X750000Y422044D02*
G03*
X761353Y426747I0J16056D01*
G01*
X623556Y400000D02*
G03*
X608304Y422044I-23556J0D01*
G01*
X591696D02*
G03*
X591697Y377956I8304J-22044D01*
G01*
X608303D02*
G03*
X623556Y400000I-8303J22044D01*
G01*
X577016Y171450D02*
G03*
X568960Y179506I-8056J0D01*
G01*
X958773Y161197D02*
G03*
X963476Y172550I-11353J11353D01*
G01*
X965200Y60524D02*
G03*
X970897Y62884I0J8056D01*
G01*
X960120Y76636D02*
G03*
X954424Y74276I0J-8056D01*
G01*
X960120Y76636D02*
G03*
X954424Y74276I0J-8056D01*
G01*
X965200Y60524D02*
G03*
X970897Y62884I0J8056D01*
G01*
X939827Y59680D02*
G03*
X925830Y48184I-1297J-12690D01*
G01*
X976630D02*
G03*
X962610Y59678I-12700J-1194D01*
G01*
X907585Y116659D02*
G03*
X918938Y121362I0J16056D01*
G01*
X907585Y116659D02*
G03*
X918938Y121362I0J16056D01*
G01*
X925830Y48184D02*
G03*
X900430Y48184I-12700J-1194D01*
G01*
D02*
G03*
X875030Y48184I-12700J-1194D01*
G01*
D02*
G03*
X849630Y48184I-12700J-1194D01*
G01*
X973715Y38806D02*
G03*
X976630Y45796I-9785J8184D01*
G01*
X948315Y38806D02*
G03*
X951230Y45796I-9785J8184D01*
G01*
X925830D02*
G03*
X928745Y38806I12700J1194D01*
G01*
X951230Y45796D02*
G03*
X954145Y38806I12700J1194D01*
G01*
X976630Y45796D02*
G03*
X979545Y38806I12700J1194D01*
G01*
X922915D02*
G03*
X925830Y45796I-9785J8184D01*
G01*
X897515Y38806D02*
G03*
X900430Y45796I-9785J8184D01*
G01*
X849630Y48184D02*
G03*
X827145Y38806I-12700J-1194D01*
G01*
X900430Y45796D02*
G03*
X903345Y38806I12700J1194D01*
G01*
X786130Y149424D02*
G03*
X791826Y151784I0J8056D01*
G01*
X786130Y149424D02*
G03*
X791826Y151784I0J8056D01*
G01*
X574430Y165536D02*
G03*
X577016Y171450I-5470J5914D01*
G01*
X550354Y86886D02*
G03*
X529146Y86886I-10604J-12056D01*
G01*
X551806Y85434D02*
G03*
X550354Y86886I-12056J-10604D01*
G01*
X555806Y74830D02*
G03*
X551806Y85434I-16056J0D01*
G01*
X810886Y46990D02*
G03*
X799476Y34951I-12056J0D01*
G01*
X809373Y25054D02*
G03*
X815070Y22694I5696J5696D01*
G01*
X809373Y25054D02*
G03*
X815070Y22694I5696J5696D01*
G01*
X551103Y29287D02*
G03*
X555806Y40640I-11353J11353D01*
G01*
X551103Y29287D02*
G03*
X555806Y40640I-11353J11353D01*
G01*
X485766Y754380D02*
G03*
X485766Y754380I-12056J0D01*
G01*
X460366D02*
G03*
X460366Y754380I-12056J0D01*
G01*
X528334Y642086D02*
G03*
X522637Y639726I0J-8056D01*
G01*
X528334Y642086D02*
G03*
X522637Y639726I0J-8056D01*
G01*
X526406Y618490D02*
G03*
X526231Y620535I-12056J0D01*
G01*
X513421Y630510D02*
G03*
X506277Y609536I929J-12020D01*
G01*
X462906Y618490D02*
G03*
X449550Y630476I-12056J0D01*
G01*
X438864Y619790D02*
G03*
X442777Y609536I11986J-1300D01*
G01*
X434966Y754380D02*
G03*
X434966Y754380I-12056J0D01*
G01*
X413019Y667007D02*
G03*
X407670Y669226I-5349J-5337D01*
G01*
X413013Y667013D02*
G03*
X407670Y669226I-5343J-5343D01*
G01*
X522423Y609536D02*
G03*
X526406Y618490I-8073J8954D01*
G01*
X458923Y609536D02*
G03*
X462906Y618490I-8073J8954D01*
G01*
X429260Y609536D02*
G03*
X429260Y594424I0J-7556D01*
G01*
X428870Y590145D02*
G03*
X425450Y591566I-3420J-3405D01*
G01*
X428862Y590153D02*
G03*
X425450Y591566I-3413J-3413D01*
G01*
X419168D02*
G03*
X416199Y580029I-5148J-4826D01*
G01*
X430076Y544830D02*
G03*
X414020Y560886I-16056J0D01*
G01*
X416199Y580029D02*
G03*
X428058Y573024I6711J-2179D01*
G01*
X414020Y528774D02*
G03*
X430076Y544830I0J16056D01*
G01*
X397578Y525526D02*
G03*
X397578Y515874I-5148J-4826D01*
G01*
X450000Y454156D02*
G03*
X450000Y422044I0J-16056D01*
G01*
Y454156D02*
G03*
X450000Y422044I0J-16056D01*
G01*
X379730Y560886D02*
G03*
X368377Y556183I0J-16056D01*
G01*
X379730Y560886D02*
G03*
X368377Y556183I0J-16056D01*
G01*
X319386Y636270D02*
G03*
X319386Y636270I-9556J0D01*
G01*
X355677Y543483D02*
G03*
X350974Y532130I11353J-11353D01*
G01*
X319386Y610870D02*
G03*
X319386Y610870I-9556J0D01*
G01*
X355677Y543483D02*
G03*
X350974Y532130I11353J-11353D01*
G01*
X152306Y735000D02*
G03*
X152306Y735000I-12306J0D01*
G01*
X53556Y770000D02*
G03*
X39749Y791444I-23556J0D01*
G01*
X152306Y697500D02*
G03*
X152306Y697500I-12306J0D01*
G01*
X253336Y485140D02*
G03*
X229959Y475796I-13556J0D01*
G01*
X247354Y473897D02*
G03*
X253336Y485140I-7574J11243D01*
G01*
X255836Y459740D02*
G03*
X247354Y473897I-16056J0D01*
G01*
X250620Y447896D02*
G03*
X255836Y459740I-10840J11844D01*
G01*
X180138Y490143D02*
G03*
X168785Y494846I-11353J-11353D01*
G01*
X180138Y490143D02*
G03*
X168785Y494846I-11353J-11353D01*
G01*
X116840D02*
G03*
X116840Y462734I0J-16056D01*
G01*
X127444Y452746D02*
G03*
X106236Y452746I-10604J-12056D01*
G01*
X8556Y760251D02*
G03*
X53556Y770000I21444J9749D01*
G01*
X269856Y442576D02*
G03*
X258463Y431184I-5696J-5696D01*
G01*
X176482Y448387D02*
G03*
X187835Y443684I11353J11353D01*
G01*
X176482Y448387D02*
G03*
X187835Y443684I11353J11353D01*
G01*
X132896Y440690D02*
G03*
X128896Y451294I-16056J0D01*
G01*
Y430086D02*
G03*
X132896Y440690I-12056J10604D01*
G01*
X180138Y366318D02*
G03*
X168785Y371021I-11353J-11353D01*
G01*
X180138Y366318D02*
G03*
X168785Y371021I-11353J-11353D01*
G01*
X128193Y429337D02*
G03*
X128896Y430086I-11353J11353D01*
G01*
Y451294D02*
G03*
X127444Y452746I-12056J-10604D01*
G01*
X106236D02*
G03*
X105487Y452043I10604J-12056D01*
G01*
X77947Y424503D02*
G03*
X73244Y413150I11353J-11353D01*
G01*
X77947Y424503D02*
G03*
X73244Y413150I11353J-11353D01*
G01*
X116840Y371021D02*
G03*
X105356Y366186I0J-16056D01*
G01*
X485996Y252980D02*
G03*
X459740Y257721I-13556J0D01*
G01*
Y248239D02*
G03*
X485996Y252980I12700J4741D01*
G01*
X459740Y257721D02*
G03*
X435196Y259574I-12700J-4741D01*
G01*
Y246386D02*
G03*
X459740Y248239I11844J6594D01*
G01*
X315794Y238760D02*
G03*
X331906Y238760I8056J0D01*
G01*
X529146Y86886D02*
G03*
X527694Y85434I10604J-12056D01*
G01*
D02*
G03*
X523694Y74830I12056J-10604D01*
G01*
X426720Y186254D02*
G03*
X434776Y194310I0J8056D01*
G01*
D02*
G03*
X426720Y202366I-8056J0D01*
G01*
X501260Y163394D02*
G03*
X506730Y149424I5470J-5914D01*
G01*
X405598Y78556D02*
G03*
X394442Y78556I-5578J-15056D01*
G01*
X513706Y74830D02*
G03*
X513706Y74830I-12056J0D01*
G01*
X524510Y9344D02*
G03*
X535863Y14047I0J16056D01*
G01*
X524510Y9344D02*
G03*
X535863Y14047I0J16056D01*
G01*
X384964Y69078D02*
G03*
X384964Y57922I15056J-5578D01*
G01*
X426767Y14047D02*
G03*
X438120Y9344I11353J11353D01*
G01*
X426767Y14047D02*
G03*
X438120Y9344I11353J11353D01*
G01*
X255836Y335915D02*
G03*
X247354Y350072I-16056J0D01*
G01*
D02*
G03*
X253336Y361315I-7574J11243D01*
G01*
X250620Y324071D02*
G03*
X255836Y335915I-10840J11844D01*
G01*
X253336Y361315D02*
G03*
X229959Y351971I-13556J0D01*
G01*
X132896Y316865D02*
G03*
X128896Y327469I-16056J0D01*
G01*
X132896Y316865D02*
G03*
X128896Y327469I-16056J0D01*
G01*
D02*
G03*
X127444Y328921I-12056J-10604D01*
G01*
X176482Y324562D02*
G03*
X187835Y319859I11353J11353D01*
G01*
X176482Y324562D02*
G03*
X187835Y319859I11353J11353D01*
G01*
X232224Y263879D02*
G03*
X234443Y258531I7556J0D01*
G01*
X232224Y263879D02*
G03*
X234437Y258536I7556J0D01*
G01*
X266376Y244839D02*
G03*
X264163Y250182I-7556J0D01*
G01*
X266376Y244839D02*
G03*
X264157Y250188I-7556J0D01*
G01*
X242133Y250840D02*
G03*
X229959Y228146I-2353J-13350D01*
G01*
X128193Y270716D02*
G03*
X132896Y282069I-11353J11353D01*
G01*
X128193Y270716D02*
G03*
X132896Y282069I-11353J11353D01*
G01*
X180138Y242493D02*
G03*
X168785Y247196I-11353J-11353D01*
G01*
X180138Y242493D02*
G03*
X168785Y247196I-11353J-11353D01*
G01*
X127444Y328921D02*
G03*
X124697Y330867I-10604J-12056D01*
G01*
X127444Y328921D02*
G03*
X124697Y330867I-10604J-12056D01*
G01*
X128896Y327469D02*
G03*
X127444Y328921I-12056J-10604D01*
G01*
X73244Y343558D02*
G03*
X77947Y332204I16056J0D01*
G01*
X73244Y343558D02*
G03*
X77947Y332204I16056J0D01*
G01*
X116840Y247196D02*
G03*
X105356Y242361I0J-16056D01*
G01*
X77947Y265882D02*
G03*
X73244Y254529I11353J-11353D01*
G01*
X77947Y265882D02*
G03*
X73244Y254529I11353J-11353D01*
G01*
X264163Y198860D02*
G03*
X266376Y204203I-5343J5343D01*
G01*
X264157Y198855D02*
G03*
X266376Y204203I-5337J5349D01*
G01*
X176482Y200737D02*
G03*
X187835Y196034I11353J11353D01*
G01*
X176482Y200737D02*
G03*
X187835Y196034I11353J11353D01*
G01*
X132896Y193040D02*
G03*
X128896Y203644I-16056J0D01*
G01*
D02*
G03*
X128193Y204393I-12056J-10604D01*
G01*
X128896Y203644D02*
G03*
X128193Y204393I-12056J-10604D01*
G01*
X132896Y193040D02*
G03*
X128896Y203644I-16056J0D01*
G01*
X282810Y77524D02*
G03*
X294163Y82227I0J16056D01*
G01*
X282810Y77524D02*
G03*
X294163Y82227I0J16056D01*
G01*
X204100Y109636D02*
G03*
X192747Y104933I0J-16056D01*
G01*
X204100Y109636D02*
G03*
X192747Y104933I0J-16056D01*
G01*
X162667Y52147D02*
G03*
X185373Y52147I11353J11353D01*
G01*
X162667D02*
G03*
X185373Y52147I11353J11353D01*
G01*
X73244Y219733D02*
G03*
X77947Y208379I16056J0D01*
G01*
X73244Y219733D02*
G03*
X77947Y208379I16056J0D01*
G01*
X94079Y192247D02*
G03*
X97576Y189598I11353J11353D01*
G01*
X94079Y192247D02*
G03*
X97576Y189598I11353J11353D01*
G01*
X100784Y120680D02*
G03*
X105487Y109327I16056J0D01*
G01*
X100784Y120680D02*
G03*
X105487Y109327I16056J0D01*
G01*
X38615Y8556D02*
G03*
X53556Y30480I-8615J21924D01*
G01*
D02*
G03*
X8556Y40229I-23556J0D01*
G01*
X1185004Y751840D02*
X1191444D01*
X1189591Y756920D02*
X1191444D01*
X1173846Y746760D02*
X1191444D01*
X1151056D02*
X1166155D01*
X1151056Y751840D02*
X1154997D01*
X1151056Y736600D02*
X1191444D01*
X1151056Y741680D02*
X1191444D01*
X1150955Y731520D02*
X1191444D01*
X1148043Y726440D02*
X1191444D01*
X1142963Y721360D02*
X1191444D01*
X1133893Y746760D02*
X1134944D01*
X1151056Y732790D02*
Y756000D01*
X1134944Y736127D02*
Y749114D01*
X1108493Y746760D02*
X1111767D01*
X1083093D02*
X1086367D01*
X1128493Y741680D02*
X1134944D01*
X1103093D02*
X1117167D01*
X1080086Y726440D02*
X1125257D01*
X1080086Y736600D02*
X1134944D01*
X1080086Y741680D02*
X1091767D01*
X1080086Y731520D02*
X1130337D01*
X1132803Y711200D02*
X1191444D01*
X1137883Y716280D02*
X1191444D01*
Y506044D02*
Y760251D01*
X1127723Y706120D02*
X1191444D01*
X1122643Y701040D02*
X1191444D01*
X1108093Y709277D02*
X1134944Y736127D01*
X1121846Y700243D02*
X1148697Y727094D01*
X1121846Y680720D02*
X1191444D01*
X1121846Y685800D02*
X1191444D01*
X1121846Y675640D02*
X1191444D01*
X1121846Y690880D02*
X1191444D01*
X1121846Y695960D02*
X1191444D01*
X1121846Y634669D02*
Y700243D01*
X1105734Y634669D02*
Y703580D01*
X1080086Y695960D02*
X1105734D01*
X1080086Y706120D02*
X1106145D01*
X1080086Y701040D02*
X1105734D01*
X1080086Y679016D02*
Y743220D01*
X1096426Y675640D02*
X1105734D01*
X1091820Y680720D02*
X1105734D01*
X1080086Y685800D02*
X1105734D01*
X1080086Y690880D02*
X1105734D01*
X971727Y765800D02*
X995213Y789286D01*
X820036Y787400D02*
X993327D01*
X817972Y791444D02*
X999117D01*
X818822Y782320D02*
X988247D01*
X810735Y777240D02*
X983167D01*
X981493Y746760D02*
X984767D01*
X976093Y741680D02*
X990167D01*
X805655Y772160D02*
X978087D01*
X602914Y767080D02*
X973007D01*
X954178Y762000D02*
X961282D01*
X957204Y756920D02*
X958256D01*
X928778Y762000D02*
X935882D01*
X931804Y756920D02*
X932856D01*
X956093Y746760D02*
X959367D01*
X952936Y741680D02*
X964767D01*
X899893D02*
X911574D01*
X609146Y736600D02*
X911574D01*
X1080086Y721360D02*
X1120177D01*
X1080086Y716280D02*
X1115097D01*
X995244Y695827D02*
Y726771D01*
X943573Y716280D02*
X995244D01*
X948653Y721360D02*
X995244D01*
X938493Y711200D02*
X995244D01*
X1080086D02*
X1110017D01*
X933413Y706120D02*
X995244D01*
X1080086Y680720D02*
X1082420D01*
X923253Y695960D02*
X995244D01*
X928333Y701040D02*
X995244D01*
X924389Y624972D02*
X995244Y695827D01*
X952936Y736600D02*
X993994D01*
X952936Y731520D02*
X993325D01*
X952525Y726440D02*
X995244D01*
X952936Y728980D02*
Y743100D01*
X911574Y726117D02*
Y743220D01*
X919916Y685800D02*
X985217D01*
X919916Y680720D02*
X980137D01*
X919916Y675640D02*
X975057D01*
X919916Y690880D02*
X990297D01*
X919916Y692623D02*
X950576Y723283D01*
X919916Y637209D02*
Y692623D01*
X1146754Y660400D02*
X1191444D01*
X1144595Y665480D02*
X1191444D01*
X1121846Y635000D02*
X1191444D01*
X1144595Y655320D02*
X1191444D01*
X1121846Y645160D02*
X1191444D01*
X1121846Y650240D02*
X1191444D01*
X1121846Y640080D02*
X1191444D01*
X1123096Y624840D02*
X1191444D01*
X1123765Y629920D02*
X1191444D01*
X1116529Y528320D02*
X1191444D01*
X1118490Y619760D02*
X1191444D01*
X1106369Y538480D02*
X1191444D01*
X1101289Y543560D02*
X1191444D01*
X1111449Y533400D02*
X1191444D01*
X1121846Y670560D02*
X1191444D01*
X1097095D02*
X1105734D01*
X1121846Y665480D02*
X1134801D01*
X1121846Y655320D02*
X1134801D01*
X1121846Y660400D02*
X1132642D01*
X1097095Y629920D02*
X1103814D01*
X1145212Y508000D02*
X1191444D01*
X1182956Y497556D02*
X1191444Y506044D01*
X1120576Y518160D02*
X1191444D01*
X1120239Y523240D02*
X1191444D01*
X1120576Y513080D02*
X1191444D01*
X1146426Y502920D02*
X1188320D01*
X1150400Y497556D02*
X1182956D01*
X1142997Y497840D02*
X1183240D01*
X1143270Y493556D02*
X1145051Y495337D01*
X1120576Y508000D02*
X1133676D01*
X1120576Y470862D02*
Y520936D01*
X1120944Y493556D02*
X1143270D01*
X1120944D02*
X1143270D01*
X1120944Y471230D02*
Y493556D01*
X1120576Y497840D02*
X1135891D01*
X1120576Y502920D02*
X1132461D01*
X1120944Y471230D02*
Y493556D01*
X1095176Y650240D02*
X1105734D01*
X1095176Y655320D02*
X1105734D01*
X1095176Y640080D02*
X1105734D01*
X1095176Y645160D02*
X1105734D01*
X1095176Y660400D02*
X1105734D01*
X1095176Y665480D02*
X1105734D01*
X1095176Y634669D02*
Y665811D01*
Y635000D02*
X1105734D01*
X1096426Y624840D02*
X1104484D01*
X1091820Y619760D02*
X1109090D01*
X1080086D02*
X1082420D01*
X919916Y655320D02*
X954737D01*
X919916Y650240D02*
X949657D01*
X919916Y645160D02*
X944577D01*
X919916Y640080D02*
X939497D01*
X919916Y670560D02*
X969977D01*
X919916Y665480D02*
X964897D01*
X919916Y660400D02*
X959817D01*
X921166Y635000D02*
X934417D01*
X921835Y629920D02*
X929337D01*
X919658Y624840D02*
X923664D01*
X849584Y619760D02*
X916961D01*
X1080086Y589280D02*
X1191444D01*
X1080086Y594360D02*
X1191444D01*
X1080086Y579120D02*
X1191444D01*
X1080086Y584200D02*
X1191444D01*
X1080086Y604520D02*
X1191444D01*
X1080086Y609600D02*
X1191444D01*
X1080086Y599440D02*
X1191444D01*
X1091129Y553720D02*
X1191444D01*
X1086049Y558800D02*
X1191444D01*
X1096209Y548640D02*
X1191444D01*
X1080086Y568960D02*
X1191444D01*
X1080086Y574040D02*
X1191444D01*
X1080969Y563880D02*
X1191444D01*
X1080086Y614680D02*
X1191444D01*
X1080086Y564763D02*
Y621464D01*
X623570Y594424D02*
X1002374D01*
X609146Y609600D02*
X917360D01*
X609146Y614680D02*
X915780D01*
X623570Y609536D02*
X917401D01*
X1002634Y583399D02*
Y594164D01*
X1080086Y564763D02*
X1118216Y526632D01*
X609146Y589280D02*
X1002634D01*
X609146Y594360D02*
X1002438D01*
X880110Y588826D02*
X990600D01*
X856186Y754797D02*
Y765866D01*
X830674D02*
X856186D01*
X805298Y771803D02*
X812827Y779332D01*
X903378Y762000D02*
X910482D01*
X877978D02*
X885082D01*
X906404Y756920D02*
X907456D01*
X881004D02*
X882056D01*
X856186Y762000D02*
X859682D01*
X795318Y791444D02*
X808136D01*
X791364Y787400D02*
X806071D01*
X799879Y780034D02*
X806002Y786157D01*
X788057Y784018D02*
X795318Y791444D01*
X785711Y782320D02*
X802165D01*
X674940Y781444D02*
X781940D01*
X905293Y746760D02*
X908567D01*
X894043Y685800D02*
X903804D01*
Y637209D02*
Y695561D01*
X888963Y680720D02*
X903804D01*
X846473Y661016D02*
X911574Y726117D01*
X857867Y649623D02*
X903804Y695561D01*
X878803Y670560D02*
X903804D01*
X883883Y675640D02*
X903804D01*
X873723Y665480D02*
X903804D01*
X863563Y655320D02*
X903804D01*
X868643Y660400D02*
X903804D01*
X858483Y650240D02*
X903804D01*
X879893Y746760D02*
X883167D01*
X856186D02*
X857767D01*
X856186Y740354D02*
Y751423D01*
X830674Y740354D02*
Y765866D01*
X874493Y741680D02*
X888567D01*
X856186D02*
X863167D01*
X899123Y690880D02*
X903804D01*
X830674Y740354D02*
X856186D01*
X664876Y782320D02*
X671169D01*
X663313Y783883D02*
X667162Y780034D01*
X799879D01*
X661609Y791444D02*
X668803Y784038D01*
X661710Y787400D02*
X665537D01*
X609146Y746760D02*
X830674D01*
X665163Y770382D02*
X801878D01*
X609146Y741680D02*
X830674D01*
X608944Y756920D02*
X830674D01*
X607223Y762000D02*
X830674D01*
X609146Y751840D02*
X830674D01*
X657650Y775895D02*
X661743Y771803D01*
X551632Y762000D02*
X558348D01*
X577033D02*
X578957D01*
X554075Y751840D02*
X555905D01*
X554075Y756920D02*
X555905D01*
X551632Y746760D02*
X558348D01*
X609146Y716280D02*
X901737D01*
X609146Y711200D02*
X896657D01*
X609146Y706120D02*
X891577D01*
X609146Y701040D02*
X886497D01*
X609146Y726440D02*
X911574D01*
X609146Y731520D02*
X911574D01*
X609146Y721360D02*
X906817D01*
X609146Y640080D02*
X903804D01*
X609146Y645160D02*
X903804D01*
X609146Y635000D02*
X902554D01*
X609146Y695960D02*
X881417D01*
X609146Y690880D02*
X876337D01*
X609146Y685800D02*
X871257D01*
X609146Y670560D02*
X856017D01*
X609146Y665480D02*
X850937D01*
X609146Y660400D02*
X845918D01*
X609146Y655320D02*
X844114D01*
X609146Y680720D02*
X866177D01*
X609146Y675640D02*
X861097D01*
X577034Y578449D02*
Y746762D01*
X609146Y650240D02*
X845918D01*
X565113Y635000D02*
X577034D01*
X560386Y639726D02*
X570846Y629267D01*
X560009Y640080D02*
X577034D01*
X851707Y624840D02*
X904062D01*
X850203Y629920D02*
X901885D01*
X847707Y617873D02*
X849357Y619524D01*
X803987Y519353D02*
X868757Y584123D01*
X856606Y511801D02*
X860354Y508053D01*
X851455Y513080D02*
X855686D01*
X855185Y515221D02*
Y516810D01*
X846375Y508000D02*
X860354D01*
X623570Y615514D02*
X842010D01*
X623570Y631626D02*
X838775D01*
X609146Y604520D02*
X616454D01*
X609146Y508000D02*
X797193D01*
X609146Y523240D02*
X807873D01*
X609146Y518160D02*
X802907D01*
X609146Y513080D02*
X800109D01*
X856695Y494128D02*
X860443Y497876D01*
X841295Y502920D02*
X862511D01*
X836676Y498301D02*
X855185Y516810D01*
X836676Y497840D02*
X860407D01*
X837789Y482600D02*
X855274D01*
X836676Y487680D02*
X855274D01*
X838791Y477520D02*
X855274D01*
X836676Y492760D02*
X855732D01*
X834927Y472440D02*
X855274D01*
X822287Y487680D02*
X827024D01*
X609146D02*
X776873D01*
X836676Y483937D02*
Y498301D01*
X827024Y483937D02*
Y492427D01*
X609146Y502920D02*
X792113D01*
X609146Y497840D02*
X787033D01*
X609146Y492760D02*
X781953D01*
X817207Y482600D02*
X825911D01*
X812127Y477520D02*
X824909D01*
X609146Y482600D02*
X771793D01*
X609146Y472440D02*
X761633D01*
X807047D02*
X828773D01*
X609146Y629920D02*
X618613D01*
X609146Y624840D02*
X615615D01*
X609146Y619760D02*
X616472D01*
X572266Y604520D02*
X577034D01*
X551806Y614680D02*
X577034D01*
X572248Y619760D02*
X577034D01*
X551806Y609600D02*
X577034D01*
X609146Y584200D02*
X868834D01*
X609146Y599440D02*
X616454D01*
X609146Y579120D02*
X863753D01*
X569608Y589280D02*
X577034D01*
X572266Y599440D02*
X577034D01*
X570870Y584200D02*
X577034D01*
X573105Y624840D02*
X577034D01*
X570193Y629920D02*
X577034D01*
X551806Y625521D02*
X559454Y617873D01*
X551806Y619760D02*
X557567D01*
X551806Y609536D02*
Y625521D01*
Y609536D02*
X565150D01*
X609146Y558800D02*
X843433D01*
X609146Y553720D02*
X838353D01*
X609146Y548640D02*
X833273D01*
X609146Y543560D02*
X828193D01*
X609146Y574040D02*
X858673D01*
X609146Y568960D02*
X853593D01*
X609146Y563880D02*
X848513D01*
X609146Y533400D02*
X818033D01*
X609146Y528320D02*
X812953D01*
X609146Y477520D02*
X766713D01*
X609146Y538480D02*
X823113D01*
X574273Y497840D02*
X577034D01*
X574273Y492760D02*
X577034D01*
X551655Y518160D02*
X577034D01*
X546575Y523240D02*
X577034D01*
X545710Y524105D02*
X567463Y502352D01*
X566895Y502920D02*
X577034D01*
X561815Y508000D02*
X577034D01*
X556735Y513080D02*
X577034D01*
X540291Y515874D02*
X560638Y495527D01*
X1120944Y306444D02*
Y327600D01*
X1119163Y329381D02*
X1120944Y327600D01*
X1116944Y334730D02*
Y390541D01*
X1106403Y335280D02*
X1116944D01*
X1106403Y330200D02*
X1118453D01*
X1120944Y306444D02*
Y327600D01*
X1095176Y309880D02*
X1120944D01*
Y306444D02*
X1142100D01*
X1120944D02*
X1142100D01*
X1095176Y320040D02*
X1120944D01*
X1095176Y325120D02*
X1120944D01*
X1095176Y314960D02*
X1120944D01*
X1107403Y381000D02*
X1116944D01*
X1112483Y386080D02*
X1116944D01*
X1101887Y345440D02*
X1116944D01*
X1102323Y375920D02*
X1116944D01*
X1097072Y370669D02*
X1116944Y390541D01*
X1097243Y370840D02*
X1116944D01*
X1096807Y350520D02*
X1116944D01*
X1104646Y340360D02*
X1116944D01*
X1104646Y337887D02*
Y340682D01*
X1113066Y223520D02*
X1191444D01*
X1113066Y228600D02*
X1191444D01*
Y39749D02*
Y293786D01*
X1113066Y218440D02*
X1191444D01*
X1107213Y238760D02*
X1191444D01*
X1102133Y243840D02*
X1191444D01*
X1111939Y233680D02*
X1191444D01*
X1113066Y193040D02*
X1191444D01*
X1113066Y198120D02*
X1191444D01*
X1113066Y187960D02*
X1191444D01*
X1113066Y208280D02*
X1191444D01*
X1113066Y213360D02*
X1191444D01*
X1113066Y203200D02*
X1191444D01*
X1182786Y302444D02*
X1191444Y293786D01*
X1149230Y302444D02*
X1182786D01*
X1142100Y306444D02*
X1143881Y304663D01*
X1095176Y304800D02*
X1143744D01*
X1095176Y257236D02*
Y327428D01*
X1113066Y158402D02*
Y229570D01*
X1095176Y259080D02*
X1191444D01*
X1095176Y264160D02*
X1191444D01*
X1097053Y248920D02*
X1191444D01*
X1091727Y355600D02*
X1116944D01*
X1094918Y365760D02*
X1116944D01*
X1095176Y294640D02*
X1190590D01*
X1095176Y299720D02*
X1185510D01*
X1086647Y360680D02*
X1116944D01*
X1085060Y362267D02*
X1103225Y344102D01*
X1095176Y279400D02*
X1191444D01*
X1095176Y284480D02*
X1191444D01*
X1095176Y269240D02*
X1191444D01*
X1095176Y274320D02*
X1191444D01*
X1094498Y254000D02*
X1191444D01*
X1095176Y289560D02*
X1191444D01*
X993023Y274320D02*
X1002864D01*
X998103Y279400D02*
X1002864D01*
Y258000D02*
Y284161D01*
X987943Y269240D02*
X1002864D01*
X982827Y264160D02*
X1002864D01*
X983297Y264594D02*
X1002864Y284161D01*
X949543Y259080D02*
X1002864D01*
X1094016Y251957D02*
Y253071D01*
X944463Y254000D02*
X1003927D01*
X939383Y248920D02*
X1008607D01*
X1094016Y251957D02*
X1110706Y235266D01*
X924143Y233680D02*
X1023737D01*
X1022464Y234953D02*
X1061284Y196133D01*
X919063Y228600D02*
X1028817D01*
X908903Y218440D02*
X1038977D01*
X913983Y223520D02*
X1033897D01*
X903823Y213360D02*
X1044057D01*
X1022705Y187960D02*
X1061284D01*
X1020263Y193040D02*
X1061284D01*
Y176057D02*
Y196133D01*
X895786Y203200D02*
X1054217D01*
X898743Y208280D02*
X1049137D01*
X957244Y198120D02*
X1059297D01*
X1005223Y252304D02*
X1021729Y235798D01*
X997576Y173364D02*
Y197476D01*
X929223Y238760D02*
X1018767D01*
X934303Y243840D02*
X1013687D01*
X973464Y197476D02*
X997576D01*
Y193040D02*
X1001578D01*
X997576Y187960D02*
X999135D01*
X1125908Y172720D02*
X1191444D01*
X1127122Y177800D02*
X1191444D01*
X1113066Y162560D02*
X1191444D01*
X1113066Y167640D02*
X1191444D01*
X1110401Y152400D02*
X1191444D01*
X1113013Y157480D02*
X1191444D01*
X1105321Y147320D02*
X1191444D01*
X1095161Y137160D02*
X1191444D01*
X1100241Y142240D02*
X1191444D01*
X1129086Y55880D02*
X1191444D01*
X1090081Y132080D02*
X1191444D01*
X1079921Y121920D02*
X1191444D01*
X1085001Y127000D02*
X1191444D01*
X1074841Y116840D02*
X1191444D01*
X1123693Y182880D02*
X1191444D01*
X1113066D02*
X1116587D01*
X1113066Y172720D02*
X1114372D01*
X1129086Y50800D02*
X1158944D01*
X1103574Y59746D02*
X1129086D01*
X1100078Y55880D02*
X1103574D01*
X1187543Y45720D02*
X1191444D01*
X1181057Y50800D02*
X1191444D01*
X1129086Y45720D02*
X1152457D01*
X1129086Y34234D02*
Y59746D01*
Y40640D02*
X1148984D01*
X1129086Y35560D02*
X1147110D01*
X1085813Y30480D02*
X1146449D01*
X1103574Y34234D02*
X1129086D01*
X1080733Y25400D02*
X1146898D01*
X1103574Y34234D02*
Y45303D01*
Y48677D02*
Y59746D01*
X1077704Y50800D02*
X1078756D01*
X1096593Y35560D02*
X1103574D01*
X1101993Y40640D02*
X1103574D01*
X1080387Y25054D02*
X1089633Y34300D01*
X1020263Y177800D02*
X1061284D01*
X1022705Y182880D02*
X1061284D01*
X1073586Y115585D02*
X1110706Y152705D01*
X963476Y172720D02*
X1057947D01*
X962707Y167640D02*
X1052867D01*
X959989Y162560D02*
X1047787D01*
X955056Y157480D02*
X1042707D01*
X1073586Y96520D02*
X1191444D01*
X1073586Y101600D02*
X1191444D01*
X1073586Y91440D02*
X1191444D01*
X1073586Y111760D02*
X1191444D01*
X949976Y152400D02*
X1037627D01*
X1073586Y106680D02*
X1191444D01*
X997576Y177800D02*
X1001578D01*
X997576Y182880D02*
X999135D01*
X973464Y173364D02*
X997576D01*
X944896Y147320D02*
X1032547D01*
X939816Y142240D02*
X1027467D01*
X934736Y137160D02*
X1022387D01*
X929656Y132080D02*
X1017307D01*
X1004533Y96520D02*
X1006674D01*
X999453Y91440D02*
X1006674D01*
X924576Y127000D02*
X1012227D01*
X919496Y121920D02*
X1007147D01*
X909989Y116840D02*
X1002067D01*
X1073586Y71120D02*
X1191444D01*
X1073586Y76200D02*
X1191444D01*
X1073586Y60960D02*
X1191444D01*
X1073586Y66040D02*
X1191444D01*
X1073586Y81280D02*
X1191444D01*
X1073586Y86360D02*
X1191444D01*
X1073586Y56880D02*
Y115585D01*
X1074678Y55880D02*
X1081782D01*
X815070Y22694D02*
X1074690D01*
X537057Y15240D02*
X1151642D01*
X542137Y20320D02*
X1148525D01*
X529563Y10160D02*
X1157301D01*
X989293Y81280D02*
X1006674D01*
X994373Y86360D02*
X1006674D01*
Y56880D02*
Y98661D01*
X984213Y76200D02*
X1006674D01*
X961863Y76636D02*
X1061284Y176057D01*
X979133Y71120D02*
X1006674D01*
X970897Y62884D02*
X1006674Y98661D01*
X998478Y55880D02*
X1005582D01*
X1001504Y50800D02*
X1002556D01*
X967814Y60960D02*
X1006674D01*
X974053Y66040D02*
X1006674D01*
X952697Y262234D02*
X977600D01*
X895786Y205323D02*
X952697Y262234D01*
X856695Y356950D02*
X908618Y305027D01*
X895786Y190500D02*
Y205323D01*
X934076Y194349D02*
Y197476D01*
X909964D02*
X934076D01*
X963274Y187960D02*
X973464D01*
X961553Y193040D02*
X973464D01*
X895786Y198120D02*
X937596D01*
X895786Y193040D02*
X909964D01*
X869975Y187960D02*
X880085D01*
X879674Y190500D02*
Y205531D01*
X870386Y196243D02*
X879674Y205531D01*
X796887Y462280D02*
X855274D01*
X801967Y467360D02*
X855274D01*
Y360370D02*
Y490708D01*
X872263Y198120D02*
X879674D01*
X877343Y203200D02*
X879674D01*
X870386Y193040D02*
X879674D01*
X854274Y190500D02*
Y196451D01*
X850863Y193040D02*
X854274D01*
X870386Y190500D02*
Y196243D01*
X973464Y173364D02*
Y197476D01*
X963476Y172550D02*
Y185420D01*
X909964Y173364D02*
Y197476D01*
X963476Y177800D02*
X973464D01*
X963476Y182880D02*
X973464D01*
X909964Y173364D02*
X925527D01*
X812763Y172720D02*
X924883D01*
X900934Y148771D02*
X925527Y173364D01*
X845783Y187960D02*
X854685D01*
X842626Y184804D02*
X854274Y196451D01*
X828003Y187960D02*
X829285D01*
X791826Y151784D02*
X829019Y188976D01*
X895375Y187960D02*
X909964D01*
X864944Y182880D02*
X885116D01*
X890344D02*
X909964D01*
X839544D02*
X859716D01*
X822923D02*
X834316D01*
X817843Y177800D02*
X909964D01*
X786727Y452120D02*
X855274D01*
X791807Y457200D02*
X855274D01*
X776567Y441960D02*
X855274D01*
X781647Y447040D02*
X855274D01*
X766407Y431800D02*
X855274D01*
X771487Y436880D02*
X855274D01*
X761353Y426747D02*
X826693Y492087D01*
X622670Y406400D02*
X855274D01*
X761327Y426720D02*
X855274D01*
X623519Y401320D02*
X855274D01*
X616753Y416560D02*
X855274D01*
X609306Y421640D02*
X855274D01*
X620569Y411480D02*
X855274D01*
X609146Y462280D02*
X751473D01*
X609146Y457200D02*
X746393D01*
X743349Y454156D02*
X799442Y510249D01*
X609146Y454156D02*
X743349D01*
X609146Y467360D02*
X756553D01*
X577034Y454156D02*
Y574711D01*
X609146Y454156D02*
Y754380D01*
X608304Y422044D02*
X750000D01*
X766056Y375920D02*
X855274D01*
X623254Y396240D02*
X855274D01*
X766056Y365760D02*
X855274D01*
X766056Y370840D02*
X855274D01*
X619003Y386080D02*
X855274D01*
X621834Y391160D02*
X855274D01*
X613924Y381000D02*
X855274D01*
X766056Y350520D02*
X863125D01*
X766056Y355600D02*
X858045D01*
X782793Y165536D02*
X915030Y297773D01*
X766056Y360680D02*
X855274D01*
X573918Y177800D02*
X795057D01*
X576915Y172720D02*
X789977D01*
X733944Y377956D02*
X750000D01*
X608303D02*
X733944D01*
X750000D02*
X766056D01*
X733944D02*
X750000D01*
Y345844D02*
X766056D01*
Y361900D02*
Y377956D01*
Y345844D02*
Y361900D01*
X733944Y345844D02*
X750000D01*
X733944D02*
X750000D01*
X960120Y76636D02*
X961863D01*
X918938Y121362D02*
X958773Y161197D01*
X939827Y59680D02*
X954424Y74276D01*
X963457Y60524D02*
X965200D01*
X973078Y55880D02*
X980182D01*
X976104Y50800D02*
X977156D01*
X962610Y59678D02*
X963457Y60524D01*
X871478Y55880D02*
X878582D01*
X846078D02*
X853182D01*
X922278D02*
X929382D01*
X899904Y50800D02*
X900956D01*
X925304D02*
X926356D01*
X896878Y55880D02*
X903982D01*
X849104Y50800D02*
X850156D01*
X874504D02*
X875556D01*
X973715Y38806D02*
X979545D01*
X974993Y40640D02*
X978267D01*
X949593D02*
X952867D01*
X922915Y38806D02*
X928745D01*
X948315D02*
X954145D01*
X924193Y40640D02*
X927467D01*
X898793D02*
X902067D01*
X897515Y38806D02*
X903345D01*
X816573Y40640D02*
X825867D01*
X811493Y45720D02*
X824237D01*
X818407Y38806D02*
X827145D01*
X807683Y167640D02*
X919803D01*
X802603Y162560D02*
X914723D01*
X797523Y157480D02*
X909643D01*
X792443Y152400D02*
X904563D01*
X551806Y86360D02*
X971587D01*
X555806Y66040D02*
X946187D01*
X555806Y60960D02*
X941107D01*
X806973Y55880D02*
X827782D01*
X554454Y81280D02*
X966507D01*
X555747Y76200D02*
X957506D01*
X555806Y71120D02*
X951267D01*
X576058Y167640D02*
X784897D01*
X574430Y165536D02*
X782793D01*
X551806Y85434D02*
Y86886D01*
X550354D02*
X551806D01*
X785486Y55880D02*
X790687D01*
X761374Y59046D02*
X785486D01*
Y50800D02*
X787392D01*
X550924Y86360D02*
X551806D01*
X555806Y55880D02*
X761374D01*
X810268Y50800D02*
X824756D01*
X810869Y46344D02*
X818407Y38806D01*
X785486Y35560D02*
X794996D01*
X785486Y40640D02*
X788582D01*
X785486Y45720D02*
X786841D01*
X785486Y34934D02*
Y59046D01*
X799476Y34951D02*
X809373Y25054D01*
X552183Y30480D02*
X803947D01*
X761374Y34934D02*
X785486D01*
X547217Y25400D02*
X809027D01*
X555806Y50800D02*
X761374D01*
X555806Y40640D02*
Y74830D01*
X761374Y34934D02*
Y59046D01*
X555806Y40640D02*
X761374D01*
X555806Y45720D02*
X761374D01*
X554981Y35560D02*
X761374D01*
X535863Y14047D02*
X551103Y29287D01*
X528946Y762000D02*
X532948D01*
X504834Y766436D02*
X528946D01*
Y756920D02*
X530505D01*
X485495D02*
X504834D01*
X483052Y762000D02*
X504834D01*
X528946Y751840D02*
X530505D01*
X528946Y746760D02*
X532948D01*
X485495Y751840D02*
X504834D01*
X483052Y746760D02*
X504834D01*
X457653Y762000D02*
X464367D01*
X460095Y756920D02*
X461925D01*
X432253Y762000D02*
X438968D01*
X434695Y756920D02*
X436525D01*
X460095Y751840D02*
X461925D01*
X457653Y746760D02*
X464367D01*
X432253D02*
X438968D01*
X434695Y751840D02*
X436525D01*
X528334Y642086D02*
X554690D01*
X528946Y742324D02*
Y766436D01*
X429786Y650240D02*
X577034D01*
X504834Y742324D02*
X528946D01*
X434866Y645160D02*
X577034D01*
X526231Y620535D02*
X527694Y621997D01*
Y609536D02*
Y621997D01*
X439946Y640080D02*
X523014D01*
X445026Y635000D02*
X517911D01*
X513421Y630510D02*
X522637Y639726D01*
X504834Y742324D02*
Y766436D01*
X464194Y630546D02*
X488306D01*
Y609536D02*
Y630546D01*
X454684Y629920D02*
X464194D01*
Y609536D02*
Y630546D01*
X488306Y629920D02*
X510516D01*
X488306Y624840D02*
X504102D01*
X462839Y619760D02*
X464194D01*
X461098Y624840D02*
X464194D01*
X53457Y772160D02*
X661386D01*
X52416Y777240D02*
X652028D01*
X53374Y767080D02*
X583266D01*
X39749Y791444D02*
X661609D01*
X45878Y787400D02*
X650962D01*
X50077Y782320D02*
X649298D01*
X409566Y762000D02*
X413568D01*
X409566Y751840D02*
X411125D01*
X152201Y736600D02*
X577034D01*
X409566Y746760D02*
X413568D01*
X151804Y731520D02*
X577034D01*
X150335Y741680D02*
X577034D01*
X148841Y726440D02*
X577034D01*
X409566Y756920D02*
X411125D01*
X385454Y766436D02*
X409566D01*
Y742324D02*
Y766436D01*
X49591Y756920D02*
X385454D01*
X52156Y762000D02*
X385454D01*
Y742324D02*
Y766436D01*
X143625Y746760D02*
X385454D01*
X45003Y751840D02*
X385454D01*
Y742324D02*
X409566D01*
X151786Y701040D02*
X577034D01*
X148783Y706120D02*
X577034D01*
X150374Y690880D02*
X577034D01*
X152209Y695960D02*
X577034D01*
X8556Y711200D02*
X577034D01*
X8556Y716280D02*
X577034D01*
X143814Y685800D02*
X577034D01*
X419626Y660400D02*
X577034D01*
X414546Y665480D02*
X577034D01*
X424706Y655320D02*
X577034D01*
X8556Y675640D02*
X577034D01*
X8556Y680720D02*
X577034D01*
X319386Y670560D02*
X577034D01*
X413019Y667007D02*
X449550Y630476D01*
X404540Y654114D02*
X438864Y619790D01*
X8556Y721360D02*
X577034D01*
X319386Y669226D02*
X407670D01*
X319386Y654114D02*
X404540D01*
X319301Y635000D02*
X423654D01*
X318594Y640080D02*
X418574D01*
X316971Y629920D02*
X428734D01*
X313335Y645160D02*
X413494D01*
X8556Y650240D02*
X408414D01*
X152306Y624840D02*
X433814D01*
X526339Y619760D02*
X527694D01*
X525788Y614680D02*
X527694D01*
X488306D02*
X502912D01*
X488306Y619760D02*
X502361D01*
X488306Y609600D02*
X506207D01*
X522493D02*
X527694D01*
X488306Y609536D02*
X506277D01*
X431259Y587756D02*
X557319D01*
X522423Y609536D02*
X527694D01*
X429260Y594424D02*
X565150D01*
X429735Y589280D02*
X558152D01*
X428058Y573024D02*
X564136D01*
X458993Y609600D02*
X464194D01*
X462288Y614680D02*
X464194D01*
X429260Y609536D02*
X442777D01*
X458923D02*
X464194D01*
X428870Y590145D02*
X431259Y587756D01*
X419168Y591566D02*
X425450D01*
X429617Y548640D02*
X577034D01*
X427390Y553720D02*
X577034D01*
X428767Y538480D02*
X577034D01*
X430026Y543560D02*
X577034D01*
X425296Y533400D02*
X577034D01*
X421934Y558800D02*
X577034D01*
X385927Y528320D02*
X577034D01*
X450000Y422044D02*
X591696D01*
X450000Y377956D02*
X466056D01*
X591697D01*
X397578Y525526D02*
X542290D01*
X397578Y515874D02*
X540291D01*
X450000Y454156D02*
X577034D01*
X386381Y528774D02*
X414020D01*
X383086Y525479D02*
X386381Y528774D01*
X383086Y377190D02*
Y525479D01*
X450000Y377956D02*
X466056D01*
X433944D02*
X450000D01*
X433944Y361900D02*
Y377956D01*
X383086Y355600D02*
X433944D01*
X318594Y614680D02*
X439412D01*
X313335Y619760D02*
X438861D01*
X319301Y609600D02*
X442707D01*
X316971Y604520D02*
X422144D01*
X152306Y594360D02*
X577034D01*
X8556Y599440D02*
X422144D01*
X8556Y568960D02*
X577034D01*
X383086Y497840D02*
X558325D01*
X383086Y502920D02*
X553245D01*
X383086Y492760D02*
X561107D01*
X8556Y563880D02*
X577034D01*
X383086Y513080D02*
X543085D01*
X383086Y508000D02*
X548165D01*
X152306Y574040D02*
X416971D01*
X379730Y560886D02*
X414020D01*
X152306Y584200D02*
X407437D01*
X152306Y589280D02*
X407437D01*
X152306Y579120D02*
X415969D01*
X383086Y523240D02*
X385847D01*
X355677Y543483D02*
X368377Y556183D01*
X383086Y518160D02*
X385847D01*
X8556Y558800D02*
X371816D01*
X8556Y553720D02*
X365913D01*
X8556Y548640D02*
X360833D01*
X383086Y462280D02*
X577034D01*
X383086Y467360D02*
X577034D01*
X383086Y421640D02*
X590694D01*
X383086Y457200D02*
X577034D01*
X383086Y477520D02*
X577034D01*
X383086Y482600D02*
X577034D01*
X383086Y472440D02*
X577034D01*
X383086Y386080D02*
X580997D01*
X383086Y391160D02*
X578166D01*
X383086Y381000D02*
X586076D01*
X383086Y416560D02*
X583247D01*
X383086Y411480D02*
X579430D01*
X383086Y406400D02*
X577330D01*
X383086Y441960D02*
X434415D01*
X383086Y436880D02*
X433990D01*
X383086Y426720D02*
X438673D01*
X383086Y431800D02*
X435232D01*
X383086Y487680D02*
X577034D01*
X383086Y452120D02*
X442175D01*
X383086Y447040D02*
X436663D01*
X383086Y365760D02*
X433944D01*
X383086Y370840D02*
X433944D01*
X383086Y360680D02*
X433944D01*
X383086Y396240D02*
X576746D01*
X383086Y401320D02*
X576481D01*
X383086Y375920D02*
X433944D01*
X300274Y652114D02*
X319386D01*
Y669226D02*
Y671226D01*
Y652114D02*
Y654114D01*
X300274Y671226D02*
X319386D01*
X300274Y652114D02*
Y671226D01*
X152306Y629920D02*
X302689D01*
X250992Y492760D02*
X350974D01*
X152306Y619760D02*
X306325D01*
X152306Y614680D02*
X301066D01*
X244521Y497840D02*
X350974D01*
X127694Y634806D02*
X152306D01*
X127694Y610194D02*
Y634806D01*
X152306Y610194D02*
Y634806D01*
X127694Y610194D02*
X152306D01*
Y572694D02*
Y597306D01*
X127694Y572694D02*
X152306D01*
X176699Y492760D02*
X228568D01*
X127694Y597306D02*
X152306D01*
X127694Y572694D02*
Y597306D01*
X116840Y494846D02*
X168785D01*
X253096Y482600D02*
X350974D01*
X253096Y487680D02*
X350974D01*
Y385246D02*
Y532130D01*
X250992Y477520D02*
X350974D01*
X255634Y462280D02*
X350974D01*
X253913Y467360D02*
X350974D01*
X255634Y457200D02*
X350974D01*
X249604Y472440D02*
X350974D01*
X182602Y487680D02*
X226464D01*
X180138Y490143D02*
X194486Y475796D01*
X192762Y477520D02*
X228568D01*
X187682Y482600D02*
X226464D01*
X194486Y475796D02*
X229959D01*
X116840Y462734D02*
X162134D01*
X176482Y448387D01*
X33846Y746760D02*
X136375D01*
X8556Y690880D02*
X129626D01*
X8556Y670560D02*
X300274D01*
X8556Y685800D02*
X136186D01*
X8556Y726440D02*
X131159D01*
X8556Y741680D02*
X129665D01*
X8556Y706120D02*
X131217D01*
X8556Y645160D02*
X306325D01*
X8556Y640080D02*
X301066D01*
X8556Y635000D02*
X300359D01*
X8556Y660400D02*
X300274D01*
X8556Y665480D02*
X300274D01*
X8556Y655320D02*
X300274D01*
X8556Y736600D02*
X127798D01*
X8556Y746760D02*
X26154D01*
X8556Y751840D02*
X14997D01*
X8556Y756920D02*
X10409D01*
X8556Y624840D02*
X127694D01*
X8556Y629920D02*
X127694D01*
X8556Y619760D02*
X127694D01*
X8556Y701040D02*
X128214D01*
X8556Y731520D02*
X128196D01*
X8556Y695960D02*
X127791D01*
X8556Y538480D02*
X352283D01*
X8556Y533400D02*
X351024D01*
X8556Y523240D02*
X350974D01*
X8556Y528320D02*
X350974D01*
X8556Y604520D02*
X302689D01*
X8556Y609600D02*
X300359D01*
X8556Y543560D02*
X355753D01*
X8556Y502920D02*
X350974D01*
X8556Y497840D02*
X235039D01*
X8556Y457200D02*
X167668D01*
X8556Y513080D02*
X350974D01*
X8556Y518160D02*
X350974D01*
X8556Y508000D02*
X350974D01*
X8556Y579120D02*
X127694D01*
X8556Y584200D02*
X127694D01*
X8556Y574040D02*
X127694D01*
X8556Y492760D02*
X108926D01*
X8556Y594360D02*
X127694D01*
X8556Y614680D02*
X127694D01*
X8556Y589280D02*
X127694D01*
X8556Y467360D02*
X105564D01*
X8556Y472440D02*
X102093D01*
X8556Y462280D02*
X162588D01*
X8556Y487680D02*
X103470D01*
X8556Y482600D02*
X101243D01*
X8556Y477520D02*
X100834D01*
X270473Y441960D02*
X350974D01*
X253913Y452120D02*
X350974D01*
X275553Y436880D02*
X350974D01*
X253336Y447040D02*
X350974D01*
X253336Y441960D02*
X257908D01*
X253336Y436880D02*
X256104D01*
X285713Y426720D02*
X350974D01*
X280633Y431800D02*
X350974D01*
X290793Y421640D02*
X350974D01*
X253336D02*
X268007D01*
X253336Y426720D02*
X262927D01*
X253336Y431800D02*
X257908D01*
X226224Y420784D02*
X253336D01*
X250620Y447896D02*
X253336D01*
Y420784D02*
Y447896D01*
X128896Y452120D02*
X172748D01*
X128896Y451294D02*
Y452746D01*
X132846Y441960D02*
X226224D01*
X187835Y443684D02*
X226224D01*
X132437Y436880D02*
X226224D01*
X130210Y431800D02*
X226224D01*
X131587Y447040D02*
X178011D01*
X311113Y401320D02*
X350974D01*
X306033Y406400D02*
X350974D01*
X321273Y391160D02*
X350974D01*
X316193Y396240D02*
X350974D01*
X300953Y411480D02*
X350974D01*
X295873Y416560D02*
X350974D01*
X269856Y442576D02*
X327187Y385246D01*
X331906Y365760D02*
X350974D01*
X331906Y369134D02*
X350974D01*
X331906Y360680D02*
X350974D01*
X327187Y385246D02*
X350974D01*
X326353Y386080D02*
X350974D01*
X252072Y355600D02*
X315794D01*
X258463Y431184D02*
X315794Y373853D01*
X226224Y420784D02*
Y443684D01*
X249426Y370840D02*
X315794D01*
X171189D02*
X230134D01*
X252586Y365760D02*
X315794D01*
X253321Y360680D02*
X315794D01*
X180697Y365760D02*
X226973D01*
X185777Y360680D02*
X226239D01*
X128116Y452120D02*
X128896D01*
X127444Y452746D02*
X128896D01*
X104784D02*
X106236D01*
X104784Y452120D02*
X105564D01*
X127491Y428634D02*
X128896D01*
X127491D02*
X128193Y429337D01*
X128896Y428634D02*
Y430086D01*
X120497Y421640D02*
X226224D01*
X125577Y426720D02*
X226224D01*
X115417Y416560D02*
X273087D01*
X104784Y451341D02*
X105487Y452043D01*
X104784Y451341D02*
Y452746D01*
X77947Y424503D02*
X104784Y451341D01*
X8556Y436880D02*
X90323D01*
X8556Y452120D02*
X104784D01*
X8556Y447040D02*
X100483D01*
X8556Y441960D02*
X95403D01*
X8556Y416560D02*
X73610D01*
X8556Y431800D02*
X85243D01*
X8556Y426720D02*
X80163D01*
X8556Y421640D02*
X75672D01*
X105356Y401320D02*
X288327D01*
X110337Y411480D02*
X278167D01*
X105356Y391160D02*
X298487D01*
X105356Y396240D02*
X293407D01*
X105356Y406400D02*
X283247D01*
X105356Y406499D02*
X127491Y428634D01*
X105356Y366186D02*
Y406499D01*
X116840Y371021D02*
X168785D01*
X105356Y370840D02*
X114436D01*
X105356Y381000D02*
X308647D01*
X105356Y386080D02*
X303567D01*
X105356Y375920D02*
X313727D01*
X8556Y391160D02*
X73244D01*
X8556Y396240D02*
X73244D01*
X105356Y366186D02*
Y406499D01*
X8556Y386080D02*
X73244D01*
X8556Y406400D02*
X73244D01*
X8556Y411480D02*
X73244D01*
X8556Y401320D02*
X73244D01*
X8556Y360680D02*
X73244D01*
X8556Y365760D02*
X73244D01*
X8556Y355600D02*
X73244D01*
X8556Y375920D02*
X73244D01*
X8556Y381000D02*
X73244D01*
X8556Y370840D02*
X73244D01*
X383086Y309880D02*
X903765D01*
X383086Y314960D02*
X898685D01*
X383086Y299720D02*
X910773D01*
X383086Y304800D02*
X908614D01*
X383086Y325120D02*
X888525D01*
X383086Y330200D02*
X883445D01*
X383086Y320040D02*
X893605D01*
X383086Y279400D02*
X896657D01*
X383086Y274320D02*
X891577D01*
X383086Y269240D02*
X886497D01*
X480106Y264160D02*
X881417D01*
X383086Y294640D02*
X911897D01*
X383086Y289560D02*
X906817D01*
X383086Y284480D02*
X901737D01*
X450000Y345844D02*
X466056D01*
X433944D02*
X450000D01*
X466056D02*
X733944D01*
X450000D02*
X466056D01*
X433944D02*
Y361900D01*
X383086Y350520D02*
X433944D01*
X383086Y345440D02*
X868205D01*
X435196Y264160D02*
X439374D01*
X408084Y266536D02*
X435196D01*
X454706Y264160D02*
X464774D01*
X383086Y335280D02*
X878365D01*
X383086Y340360D02*
X873285D01*
X383086Y264160D02*
X408084D01*
X484546Y259080D02*
X876337D01*
X485958Y254000D02*
X871257D01*
X485374Y248920D02*
X866177D01*
X457051Y243840D02*
X462429D01*
X482451D02*
X861097D01*
X383086Y238760D02*
X856017D01*
X383086Y233680D02*
X850937D01*
X383086Y228600D02*
X845857D01*
X459146Y259080D02*
X460334D01*
X435196Y259574D02*
Y266536D01*
X408084Y239424D02*
Y266536D01*
X383086Y254000D02*
X408084D01*
X383086Y259080D02*
X408084D01*
X383086Y202366D02*
Y377190D01*
X435196Y243840D02*
X437029D01*
X435196Y239424D02*
Y246386D01*
X383086Y243840D02*
X408084D01*
X383086Y248920D02*
X408084D01*
Y239424D02*
X435196D01*
X331906Y335280D02*
X350974D01*
X331906Y340360D02*
X350974D01*
X331906Y325120D02*
X350974D01*
X331906Y330200D02*
X350974D01*
X331906Y350520D02*
X350974D01*
X331906Y355600D02*
X350974D01*
X331906Y345440D02*
X350974D01*
X331906Y299720D02*
X350974D01*
X331906Y304800D02*
X350974D01*
X331906Y289560D02*
X350974D01*
X331906Y294640D02*
X350974D01*
X331906Y314960D02*
X350974D01*
X331906Y320040D02*
X350974D01*
X331906Y309880D02*
X350974D01*
X255823Y335280D02*
X315794D01*
X255208Y340360D02*
X315794D01*
X253336Y320040D02*
X315794D01*
X254785Y330200D02*
X315794D01*
X252705Y345440D02*
X315794D01*
X247980Y350520D02*
X315794D01*
X251665Y325120D02*
X315794D01*
X253336Y304800D02*
X315794D01*
X253336Y309880D02*
X315794D01*
X253336Y299720D02*
X315794D01*
X247336Y294640D02*
X315794D01*
X253336Y314960D02*
X315794D01*
X247336Y289560D02*
X315794D01*
X331906Y264160D02*
X350974D01*
X331906Y269240D02*
X350974D01*
Y194310D02*
Y369134D01*
X331906Y259080D02*
X350974D01*
X331906Y279400D02*
X350974D01*
X331906Y284480D02*
X350974D01*
X331906Y274320D02*
X350974D01*
X331906Y243840D02*
X350974D01*
X331906Y248920D02*
X350974D01*
X331906Y238760D02*
X350974D01*
X330102Y233680D02*
X350974D01*
X331906Y254000D02*
X350974D01*
X250185Y264160D02*
X315794D01*
X247336Y269240D02*
X315794D01*
X331906Y238760D02*
Y369134D01*
X315794Y238760D02*
Y373853D01*
X247336Y279400D02*
X315794D01*
X247336Y284480D02*
X315794D01*
X247336Y274320D02*
X315794D01*
X266376Y238760D02*
X315794D01*
X266376Y243840D02*
X315794D01*
X266376Y233680D02*
X317598D01*
X260345Y254000D02*
X315794D01*
X255265Y259080D02*
X315794D01*
X265179Y248920D02*
X315794D01*
X433818Y198120D02*
X815377D01*
X434675Y193040D02*
X810297D01*
X431678Y187960D02*
X805217D01*
X506730Y149424D02*
X786130D01*
X383086Y218440D02*
X835697D01*
X383086Y213360D02*
X830617D01*
X383086Y179506D02*
X568960D01*
X527694Y86886D02*
X529146D01*
X527694Y86360D02*
X528576D01*
X527694Y85434D02*
Y86886D01*
X505172Y86360D02*
X527694D01*
X511836Y81280D02*
X525047D01*
X383086Y186254D02*
X426720D01*
X383086Y202366D02*
X426720D01*
X383086Y179506D02*
Y186254D01*
X513628Y76200D02*
X523753D01*
X415076D02*
X489672D01*
X384964Y78556D02*
X394442D01*
X405598D02*
X415076D01*
X509901Y66040D02*
X523694D01*
X513121Y71120D02*
X523694D01*
Y47291D02*
Y74830D01*
X430347Y55880D02*
X523694D01*
X425267Y60960D02*
X523694D01*
X435427Y50800D02*
X523694D01*
X517859Y41456D02*
X523694Y47291D01*
X440507Y45720D02*
X522123D01*
X444771Y41456D02*
X517859D01*
X438120Y9344D02*
X524510D01*
X415107Y71120D02*
X490179D01*
X415076Y71151D02*
X444771Y41456D01*
X415076Y71151D02*
Y78556D01*
X384964Y69078D02*
Y78556D01*
X420187Y66040D02*
X493399D01*
X384964Y48444D02*
X392369D01*
X384964D02*
Y57922D01*
X392369Y48444D02*
X426767Y14047D01*
X383086Y223520D02*
X840777D01*
X383086Y208280D02*
X825537D01*
X383086Y203200D02*
X820457D01*
X350974Y184451D02*
Y194310D01*
X258342Y193040D02*
X350974D01*
X263422Y198120D02*
X350974D01*
X253336Y187960D02*
X350974D01*
X383086Y182880D02*
X800137D01*
X375331Y163394D02*
X501260D01*
X374497Y162560D02*
X500478D01*
X364337Y152400D02*
X500478D01*
X369417Y157480D02*
X498674D01*
X360708Y148771D02*
X375331Y163394D01*
X266376Y218440D02*
X350974D01*
X266376Y223520D02*
X350974D01*
X266376Y208280D02*
X350974D01*
X266376Y213360D02*
X350974D01*
X266309Y203200D02*
X350974D01*
X266376Y228600D02*
X350974D01*
X253336Y182880D02*
X349403D01*
X253336Y177800D02*
X344323D01*
X132896Y157480D02*
X324003D01*
X132896Y152400D02*
X318923D01*
X132896Y172720D02*
X339243D01*
X132896Y167640D02*
X334163D01*
X132896Y162560D02*
X329083D01*
X328596Y116659D02*
X907585D01*
X360708Y148771D02*
X900934D01*
X323697Y111760D02*
X996987D01*
X318617Y106680D02*
X991907D01*
X313537Y101600D02*
X986827D01*
X308457Y96520D02*
X981747D01*
X303377Y91440D02*
X976667D01*
X298297Y86360D02*
X498128D01*
X293130Y81280D02*
X491465D01*
X51252Y20320D02*
X420493D01*
X41916Y10160D02*
X433066D01*
X47962Y15240D02*
X425573D01*
X38615Y8556D02*
X1160251D01*
X310592Y144068D02*
X350974Y184451D01*
X294163Y82227D02*
X328596Y116659D01*
X204347Y71120D02*
X384964D01*
X209427Y76200D02*
X384964D01*
X194187Y60960D02*
X384166D01*
X199267Y66040D02*
X384166D01*
X189107Y55880D02*
X384964D01*
X53556Y30480D02*
X410333D01*
X183844Y50800D02*
X384964D01*
X53002Y25400D02*
X415413D01*
X51252Y40640D02*
X400173D01*
X47962Y45720D02*
X395093D01*
X53002Y35560D02*
X405253D01*
X250620Y324071D02*
X253336D01*
X194486Y351971D02*
X229959D01*
X190857Y355600D02*
X227488D01*
X226224Y296959D02*
X232224D01*
X226224D02*
Y319859D01*
X253336Y296959D02*
Y324071D01*
X247336Y296959D02*
X253336D01*
X132896Y304800D02*
X226224D01*
X132896Y309880D02*
X226224D01*
X132896Y299720D02*
X226224D01*
X180138Y366318D02*
X194486Y351971D01*
X162134Y338909D02*
X176482Y324562D01*
X127444Y328921D02*
X128896D01*
Y327469D02*
Y328921D01*
X187835Y319859D02*
X226224D01*
X132579Y320040D02*
X185431D01*
X130611Y325120D02*
X175923D01*
X132896Y314960D02*
X226224D01*
X247336Y267009D02*
Y296959D01*
Y267009D02*
X264157Y250188D01*
X234443Y258531D02*
X242133Y250840D01*
X232224Y263879D02*
Y296959D01*
X130902Y274320D02*
X232224D01*
X266376Y204203D02*
Y244839D01*
X132896Y289560D02*
X232224D01*
X132896Y294640D02*
X232224D01*
X132896Y284480D02*
X232224D01*
X132896Y282069D02*
Y316865D01*
X132673Y279400D02*
X232224D01*
X188952Y233680D02*
X226770D01*
X183872Y238760D02*
X226284D01*
X180138Y242493D02*
X194486Y228146D01*
X178609Y243840D02*
X227803D01*
X125783Y330200D02*
X170843D01*
X120284Y335280D02*
X165763D01*
X116840Y338909D02*
X162134D01*
X116654Y338910D02*
X124697Y330867D01*
X77947Y332204D02*
X100784Y309367D01*
X8556Y289560D02*
X100784D01*
Y288719D02*
Y309367D01*
X8556Y299720D02*
X100784D01*
X8556Y304800D02*
X100784D01*
X8556Y294640D02*
X100784D01*
X8556Y335280D02*
X75542D01*
X73244Y343558D02*
Y413150D01*
X8556Y345440D02*
X73244D01*
X8556Y350520D02*
X73244D01*
X8556Y340360D02*
X73566D01*
X8556Y309880D02*
X100271D01*
X8556Y314960D02*
X95191D01*
X8556Y284480D02*
X96545D01*
X8556Y325120D02*
X85031D01*
X8556Y330200D02*
X79951D01*
X8556Y320040D02*
X90111D01*
X121638Y264160D02*
X232224D01*
X126718Y269240D02*
X232224D01*
X116558Y259080D02*
X233944D01*
X105356Y247878D02*
X128193Y270716D01*
X8556Y279400D02*
X91465D01*
X8556Y274320D02*
X86385D01*
X77947Y265882D02*
X100784Y288719D01*
X111478Y254000D02*
X238973D01*
X106398Y248920D02*
X232492D01*
X116840Y247196D02*
X168785D01*
X105356Y243840D02*
X107016D01*
X105356Y242361D02*
Y247878D01*
X8556Y259080D02*
X73903D01*
X73244Y219733D02*
Y254529D01*
X8556Y269240D02*
X81305D01*
X8556Y264160D02*
X76453D01*
X8556Y40229D02*
Y760251D01*
Y233680D02*
X73244D01*
X8556Y238760D02*
X73244D01*
X8556Y228600D02*
X73244D01*
X8556Y248920D02*
X73244D01*
X8556Y254000D02*
X73244D01*
X8556Y243840D02*
X73244D01*
X194486Y228146D02*
X229959D01*
X253336Y188034D02*
X264157Y198855D01*
X194032Y228600D02*
X229546D01*
X132896Y177800D02*
X226224D01*
X187835Y196034D02*
X226224D01*
X253336Y173134D02*
Y188034D01*
X226224Y173134D02*
X253336D01*
X132896Y187960D02*
X226224D01*
X132896Y193040D02*
X226224D01*
X132896Y182880D02*
X226224D01*
X127491Y205096D02*
X128896D01*
X127491D02*
X128193Y204393D01*
X162134Y215084D02*
X176482Y200737D01*
X128896Y203644D02*
Y205096D01*
X124307Y208280D02*
X168938D01*
X119227Y213360D02*
X163858D01*
X117633Y214953D02*
X127491Y205096D01*
X132071Y198120D02*
X179921D01*
X129273Y203200D02*
X174018D01*
X132896Y132080D02*
X298603D01*
X133227Y127000D02*
X293523D01*
X276159Y109636D02*
X310592Y144068D01*
X138307Y121920D02*
X288443D01*
X132896Y147320D02*
X313843D01*
X132896Y142240D02*
X308763D01*
X132896Y137160D02*
X303683D01*
X210751Y77524D02*
X282810D01*
X143387Y116840D02*
X283363D01*
X148467Y111760D02*
X278283D01*
X204100Y109636D02*
X276159D01*
X226224Y173134D02*
Y196034D01*
X174020Y86207D02*
X192747Y104933D01*
X153547Y106680D02*
X194816D01*
X132896Y127331D02*
Y193040D01*
Y127331D02*
X174020Y86207D01*
X163707Y96520D02*
X184333D01*
X168787Y91440D02*
X179253D01*
X185373Y52147D02*
X210751Y77524D01*
X158627Y101600D02*
X189413D01*
X117501Y215084D02*
X162134D01*
X97576Y189598D02*
X100784Y186389D01*
X8556Y162560D02*
X100784D01*
X8556Y167640D02*
X100784D01*
X8556Y177800D02*
X100784D01*
X8556Y182880D02*
X100784D01*
X8556Y172720D02*
X100784D01*
X8556Y137160D02*
X100784D01*
X8556Y142240D02*
X100784D01*
X8556Y132080D02*
X100784D01*
X8556Y152400D02*
X100784D01*
X8556Y157480D02*
X100784D01*
X8556Y147320D02*
X100784D01*
X77947Y208379D02*
X94079Y192247D01*
X8556Y208280D02*
X78046D01*
X8556Y218440D02*
X73296D01*
X8556Y223520D02*
X73244D01*
X8556Y213360D02*
X74563D01*
X8556Y187960D02*
X99213D01*
X8556Y198120D02*
X88206D01*
X8556Y203200D02*
X83126D01*
X8556Y193040D02*
X93286D01*
X8556Y86360D02*
X128453D01*
X8556Y91440D02*
X123373D01*
X105487Y109327D02*
X162667Y52147D01*
X8556Y81280D02*
X133533D01*
X8556Y101600D02*
X113213D01*
X8556Y106680D02*
X108133D01*
X8556Y96520D02*
X118293D01*
X8556Y55880D02*
X158933D01*
X8556Y60960D02*
X153853D01*
X41916Y50800D02*
X164196D01*
X8556Y71120D02*
X143693D01*
X8556Y76200D02*
X138613D01*
X8556Y66040D02*
X148773D01*
X8556Y111760D02*
X103490D01*
X100784Y120680D02*
Y186389D01*
X8556Y121920D02*
X100784D01*
X8556Y127000D02*
X100784D01*
X8556Y116840D02*
X101250D01*
X8556Y50800D02*
X18084D01*
X8556Y45720D02*
X12038D01*
D88*
X116840Y282069D02*
Y316865D01*
X89300Y254529D02*
X116840Y282069D01*
X89300Y343558D02*
X115993Y316865D01*
X89300Y219733D02*
Y254529D01*
X115993Y316865D02*
X116840D01*
X89300Y413150D02*
X116840Y440690D01*
X89300Y343558D02*
Y413150D01*
X187835Y459740D02*
X239780D01*
X168785Y478790D02*
X187835Y459740D01*
X116840Y478790D02*
X168785D01*
X106280Y203600D02*
X116840Y193040D01*
X105433Y203600D02*
X106280D01*
X89300Y219733D02*
X105433Y203600D01*
X187835Y335915D02*
X239780D01*
X168785Y354965D02*
X187835Y335915D01*
X116840Y354965D02*
X168785D01*
Y231140D02*
X187835Y212090D01*
X239780D01*
X116840Y120680D02*
Y193040D01*
Y231140D02*
X168785D01*
X116840Y120680D02*
X174020Y63500D01*
X204100Y93580D01*
X282810D01*
X400020Y63500D02*
X438120Y25400D01*
X524510D01*
X450000Y361900D02*
X750000D01*
X880110Y572770D02*
X990600D01*
X815340Y508000D02*
X880110Y572770D01*
X815340Y503440D02*
Y508000D01*
X750000Y438100D02*
X815340Y503440D01*
X367030Y377190D02*
Y532130D01*
X379730Y544830D02*
X414020D01*
X367030Y194310D02*
Y377190D01*
Y532130D02*
X379730Y544830D01*
X450000Y438100D02*
X593090D01*
Y754380D01*
Y438100D02*
X750000D01*
X321945Y132715D02*
X907585D01*
X947420Y172550D01*
Y185420D01*
X321945Y132715D02*
X367030Y177800D01*
X282810Y93580D02*
X321945Y132715D01*
X367030Y177800D02*
Y194310D01*
X524510Y25400D02*
X539750Y40640D01*
Y74830D01*
D89*
X1139444Y660146D02*
X1139698Y660400D01*
X1139444Y503936D02*
Y660146D01*
X1116330Y46990D02*
X1120140Y50800D01*
Y176784D01*
X1113790Y628650D02*
Y703580D01*
X1087120Y628650D02*
Y671830D01*
X1113790Y703580D02*
X1143000Y732790D01*
X960120Y68580D02*
X965200D01*
X938530Y46990D02*
X960120Y68580D01*
X965200D02*
X1069340Y172720D01*
X1105010Y158402D02*
Y229570D01*
X1093470Y163182D02*
Y224600D01*
X1081930Y167962D02*
Y219820D01*
X1040130Y46990D02*
Y109842D01*
X1069340Y172720D02*
Y199470D01*
X1065530Y118922D02*
X1105010Y158402D01*
X1014730Y100762D02*
X1081930Y167962D01*
X1014730Y46990D02*
Y100762D01*
X1040130Y109842D02*
X1093470Y163182D01*
X1065530Y46990D02*
Y118922D01*
X1035050Y250190D02*
X1070390Y214850D01*
X506730Y157480D02*
X786130D01*
X367030Y177800D02*
X373380Y171450D01*
X568960D01*
X1038225Y678815D02*
X1038860Y679450D01*
X996950Y435610D02*
X1021230Y459890D01*
Y753110D01*
X1040130Y459932D02*
Y571500D01*
X1037590Y591820D02*
X1038225Y592455D01*
Y678815D01*
X852170Y655320D02*
X919630Y722780D01*
Y753110D01*
X842010Y623570D02*
X843660Y625220D01*
X890270Y544830D02*
X905900D01*
X982040Y468690D01*
X1072030Y561426D02*
Y753110D01*
Y561426D02*
X1112520Y520936D01*
X1040130Y459932D02*
X1045402Y454660D01*
X1090930D01*
X1003300Y692490D02*
Y732790D01*
X925830Y615020D02*
X1003300Y692490D01*
X911860Y631190D02*
Y695960D01*
X944880Y728980D01*
Y752960D01*
X945030Y753110D01*
X1112520Y397510D02*
Y520936D01*
X1087120Y372110D02*
X1112520Y397510D01*
X1074420Y243840D02*
Y331470D01*
X970430Y753110D02*
X1000910Y783590D01*
X1137688D01*
X1142960Y758190D02*
Y778318D01*
X1137688Y783590D02*
X1142960Y778318D01*
Y758190D02*
X1143000Y758150D01*
Y732790D02*
Y758150D01*
X989330Y435610D02*
X996950D01*
X959467Y325992D02*
X960120Y326646D01*
X954642Y325992D02*
X959467D01*
X955040Y355600D02*
X958850D01*
X965310Y349140D01*
X1061720Y240030D02*
Y331470D01*
X514350Y618490D02*
Y620046D01*
X528334Y634030D01*
X554690D01*
X565150Y623570D01*
X623570D02*
X842010D01*
X323850Y377190D02*
X367030D01*
X998300Y290990D02*
Y326970D01*
X972900Y298722D02*
Y326970D01*
X972820Y281830D02*
X985600Y294610D01*
Y326970D01*
X977600Y270290D02*
X998300Y290990D01*
X786130Y157480D02*
X954642Y325992D01*
X967548Y293370D02*
X972900Y298722D01*
X1010920Y258000D02*
Y343868D01*
Y258000D02*
X1028160Y240760D01*
X1005648Y349140D02*
X1010920Y343868D01*
X965310Y349140D02*
X1005648D01*
X264160Y436880D02*
X323850Y377190D01*
Y238760D02*
Y377190D01*
X1028160Y240650D02*
X1069340Y199470D01*
X1075595Y242475D02*
X1093470Y224600D01*
X1085960Y248620D02*
X1105010Y229570D01*
X1061720Y240030D02*
X1081930Y219820D01*
X955040Y393700D02*
X988060Y360680D01*
X1068070D01*
X1087120Y341630D01*
X1028160Y240650D02*
Y240760D01*
X1070390Y214740D02*
Y214850D01*
X1087120Y257236D02*
Y341630D01*
X1085960Y248620D02*
Y256076D01*
X1087120Y257236D01*
X798830Y46990D02*
X815070Y30750D01*
X1074690D01*
X1090930Y46990D01*
X1075595Y242475D02*
Y242665D01*
X1074420Y243840D02*
X1075595Y242665D01*
Y242475D02*
X1075595D01*
X862330Y199580D02*
X944580Y281830D01*
X939800Y293370D02*
X967548D01*
X944580Y281830D02*
X972820D01*
X836930Y190500D02*
X939800Y293370D01*
X887730Y208660D02*
X949360Y270290D01*
X977600D01*
X887730Y190500D02*
Y208660D01*
X862330Y190500D02*
Y199580D01*
X367030Y194310D02*
X426720D01*
D90*
X97800Y335905D02*
X105856Y327849D01*
X97800Y335905D02*
Y413150D01*
X1010190Y467690D02*
Y597294D01*
X1005504Y601980D02*
X1010190Y597294D01*
X623570Y601980D02*
X1005504D01*
X429260D02*
X565150D01*
X309830Y661670D02*
X407670D01*
X450850Y618490D01*
X239780Y263879D02*
Y310515D01*
Y263879D02*
X258820Y244839D01*
Y204203D02*
Y244839D01*
X247307Y192690D02*
X258820Y204203D01*
X245780Y192690D02*
X247307D01*
X239780Y186690D02*
X245780Y192690D01*
D91*
X140000Y622500D02*
D03*
D92*
X116840Y478790D02*
D03*
Y231140D02*
D03*
X501650Y74830D02*
D03*
X798830Y46990D02*
D03*
X514350Y618490D02*
D03*
X450850D02*
D03*
X947420Y185420D02*
D03*
X1010920D02*
D03*
X542290Y754380D02*
D03*
X567690D02*
D03*
X593090D02*
D03*
X422910D02*
D03*
X448310D02*
D03*
X473710D02*
D03*
X116840Y354965D02*
D03*
D93*
Y440690D02*
D03*
Y193040D02*
D03*
Y316865D02*
D03*
D94*
X539750Y74830D02*
D03*
X773430Y46990D02*
D03*
X539750Y618490D02*
D03*
X476250D02*
D03*
X922020Y185420D02*
D03*
X985520D02*
D03*
X516890Y754380D02*
D03*
X397510D02*
D03*
D95*
X1170000Y770000D02*
D03*
X30000D02*
D03*
Y30480D02*
D03*
X600000Y400000D02*
D03*
X1170000Y30000D02*
D03*
D96*
X1139698Y660400D02*
D03*
X1139444Y503936D02*
D03*
X1120140Y176784D02*
D03*
X813054Y786384D02*
D03*
X656336Y782828D02*
D03*
X1035050Y250190D02*
D03*
X506730Y157480D02*
D03*
X1010190Y467690D02*
D03*
X852170Y655320D02*
D03*
X843660Y625220D02*
D03*
X890270Y544830D02*
D03*
X998220Y467360D02*
D03*
X982040Y468690D02*
D03*
X1074420Y331470D02*
D03*
X989330Y435610D02*
D03*
X960120Y326646D02*
D03*
X915670Y342900D02*
D03*
X955040Y355600D02*
D03*
X1061720Y331470D02*
D03*
X867321Y518249D02*
D03*
X867410Y508000D02*
D03*
X867499Y497929D02*
D03*
X831850Y478790D02*
D03*
X565150Y623570D02*
D03*
Y601980D02*
D03*
X623570Y623570D02*
D03*
X567690Y495300D02*
D03*
X392430Y520700D02*
D03*
X414020Y586740D02*
D03*
X867410Y487680D02*
D03*
X915670Y323850D02*
D03*
X985600Y326970D02*
D03*
X998300D02*
D03*
X972900D02*
D03*
X915670Y304800D02*
D03*
X1099820Y332740D02*
D03*
X623570Y601980D02*
D03*
X568960Y171450D02*
D03*
X429260Y601980D02*
D03*
X422910Y577850D02*
D03*
X264160Y436880D02*
D03*
X323850Y238760D02*
D03*
X1070390Y214740D02*
D03*
X955040Y393700D02*
D03*
X887730Y190500D02*
D03*
X862330D02*
D03*
X836930D02*
D03*
X426720Y194310D02*
D03*
X563880Y585160D02*
D03*
X570230Y576580D02*
D03*
D97*
X1087120Y628650D02*
D03*
X1113790D02*
D03*
X1040130Y571500D02*
D03*
X1037590Y591820D02*
D03*
X1038860Y679450D02*
D03*
X1090930Y454660D02*
D03*
X1003300Y732790D02*
D03*
X925830Y615020D02*
D03*
X911860Y631190D02*
D03*
X1087120Y671830D02*
D03*
Y372110D02*
D03*
M02*
