G04*
G04 #@! TF.GenerationSoftware,Altium Limited,Altium Designer,22.7.1 (60)*
G04*
G04 Layer_Color=48896*
%FSLAX44Y44*%
%MOMM*%
G71*
G04*
G04 #@! TF.SameCoordinates,F9262A58-C723-4885-9EE7-A1CEE64B0761*
G04*
G04*
G04 #@! TF.FilePolarity,Positive*
G04*
G01*
G75*
%ADD14C,0.2540*%
%ADD98C,0.1524*%
G36*
X716550Y231017D02*
Y231010D01*
Y230980D01*
Y230928D01*
Y230869D01*
Y230795D01*
X716543Y230707D01*
Y230611D01*
Y230514D01*
X716528Y230300D01*
X716513Y230078D01*
X716506Y229982D01*
X716491Y229886D01*
X716476Y229797D01*
X716461Y229716D01*
Y229709D01*
X716454Y229701D01*
Y229679D01*
X716447Y229657D01*
X716424Y229583D01*
X716395Y229494D01*
X716350Y229391D01*
X716299Y229287D01*
X716232Y229177D01*
X716151Y229073D01*
X716143Y229058D01*
X716114Y229029D01*
X716062Y228984D01*
X715996Y228925D01*
X715907Y228859D01*
X715804Y228792D01*
X715685Y228718D01*
X715552Y228659D01*
X715545D01*
X715537Y228652D01*
X715515Y228644D01*
X715486Y228637D01*
X715449Y228622D01*
X715404Y228607D01*
X715345Y228593D01*
X715286Y228585D01*
X715146Y228556D01*
X714976Y228526D01*
X714783Y228511D01*
X714569Y228504D01*
X714451D01*
X714384Y228511D01*
X714318D01*
X714237Y228519D01*
X714155Y228526D01*
X713978Y228541D01*
X713793Y228570D01*
X713608Y228615D01*
X713527Y228637D01*
X713453Y228666D01*
X713446D01*
X713438Y228674D01*
X713394Y228696D01*
X713320Y228733D01*
X713239Y228785D01*
X713143Y228851D01*
X713039Y228925D01*
X712943Y229014D01*
X712854Y229110D01*
X712847Y229125D01*
X712817Y229154D01*
X712780Y229214D01*
X712736Y229287D01*
X712692Y229369D01*
X712640Y229465D01*
X712603Y229568D01*
X712566Y229679D01*
Y229687D01*
X712559Y229701D01*
Y229723D01*
X712551Y229760D01*
X712544Y229805D01*
X712536Y229864D01*
X712529Y229930D01*
X712522Y230004D01*
X712507Y230093D01*
X712500Y230189D01*
X712492Y230293D01*
X712485Y230411D01*
X712477Y230536D01*
Y230677D01*
X712470Y230825D01*
Y230980D01*
Y233715D01*
X713505D01*
Y230936D01*
Y230928D01*
Y230906D01*
Y230877D01*
Y230832D01*
Y230773D01*
Y230714D01*
X713512Y230581D01*
Y230433D01*
X713520Y230293D01*
X713527Y230226D01*
Y230167D01*
X713534Y230123D01*
X713542Y230078D01*
Y230063D01*
X713557Y230026D01*
X713579Y229967D01*
X713608Y229893D01*
X713645Y229812D01*
X713704Y229731D01*
X713771Y229642D01*
X713852Y229568D01*
X713867Y229561D01*
X713896Y229539D01*
X713956Y229509D01*
X714030Y229480D01*
X714133Y229443D01*
X714251Y229413D01*
X714384Y229391D01*
X714540Y229384D01*
X714613D01*
X714687Y229391D01*
X714783Y229406D01*
X714894Y229428D01*
X714998Y229457D01*
X715109Y229502D01*
X715197Y229561D01*
X715205Y229568D01*
X715234Y229590D01*
X715271Y229627D01*
X715316Y229679D01*
X715360Y229746D01*
X715404Y229820D01*
X715441Y229901D01*
X715463Y229997D01*
Y230012D01*
X715471Y230049D01*
X715478Y230115D01*
X715493Y230204D01*
Y230263D01*
X715500Y230330D01*
Y230403D01*
X715508Y230477D01*
Y230566D01*
X715515Y230662D01*
Y230766D01*
Y230877D01*
Y233715D01*
X716550D01*
Y231017D01*
D02*
G37*
G36*
X719928Y228600D02*
X718945D01*
Y232303D01*
X718938Y232296D01*
X718923Y232281D01*
X718893Y232259D01*
X718849Y232222D01*
X718797Y232177D01*
X718738Y232133D01*
X718664Y232081D01*
X718583Y232022D01*
X718494Y231963D01*
X718398Y231904D01*
X718294Y231837D01*
X718184Y231778D01*
X717947Y231667D01*
X717681Y231564D01*
Y232451D01*
X717688D01*
X717696Y232458D01*
X717718Y232466D01*
X717747Y232473D01*
X717821Y232510D01*
X717925Y232554D01*
X718051Y232614D01*
X718191Y232695D01*
X718346Y232798D01*
X718509Y232917D01*
X718516Y232924D01*
X718531Y232931D01*
X718553Y232953D01*
X718583Y232983D01*
X718664Y233057D01*
X718753Y233153D01*
X718856Y233271D01*
X718960Y233419D01*
X719056Y233574D01*
X719130Y233744D01*
X719928D01*
Y228600D01*
D02*
G37*
G36*
X632730Y192917D02*
Y192910D01*
Y192880D01*
Y192828D01*
Y192769D01*
Y192695D01*
X632723Y192607D01*
Y192511D01*
Y192414D01*
X632708Y192200D01*
X632693Y191978D01*
X632686Y191882D01*
X632671Y191786D01*
X632656Y191697D01*
X632641Y191616D01*
Y191609D01*
X632634Y191601D01*
Y191579D01*
X632627Y191557D01*
X632604Y191483D01*
X632575Y191394D01*
X632531Y191291D01*
X632479Y191187D01*
X632412Y191077D01*
X632331Y190973D01*
X632323Y190958D01*
X632294Y190929D01*
X632242Y190884D01*
X632176Y190825D01*
X632087Y190759D01*
X631983Y190692D01*
X631865Y190618D01*
X631732Y190559D01*
X631725D01*
X631717Y190552D01*
X631695Y190544D01*
X631666Y190537D01*
X631629Y190522D01*
X631584Y190507D01*
X631525Y190493D01*
X631466Y190485D01*
X631326Y190456D01*
X631156Y190426D01*
X630964Y190411D01*
X630749Y190404D01*
X630631D01*
X630564Y190411D01*
X630498D01*
X630416Y190419D01*
X630335Y190426D01*
X630158Y190441D01*
X629973Y190470D01*
X629788Y190515D01*
X629707Y190537D01*
X629633Y190567D01*
X629626D01*
X629618Y190574D01*
X629574Y190596D01*
X629500Y190633D01*
X629419Y190685D01*
X629323Y190751D01*
X629219Y190825D01*
X629123Y190914D01*
X629034Y191010D01*
X629027Y191025D01*
X628997Y191054D01*
X628960Y191113D01*
X628916Y191187D01*
X628872Y191269D01*
X628820Y191365D01*
X628783Y191468D01*
X628746Y191579D01*
Y191586D01*
X628739Y191601D01*
Y191623D01*
X628731Y191660D01*
X628724Y191705D01*
X628717Y191764D01*
X628709Y191831D01*
X628702Y191904D01*
X628687Y191993D01*
X628680Y192089D01*
X628672Y192193D01*
X628665Y192311D01*
X628657Y192437D01*
Y192577D01*
X628650Y192725D01*
Y192880D01*
Y195615D01*
X629685D01*
Y192836D01*
Y192828D01*
Y192806D01*
Y192777D01*
Y192732D01*
Y192673D01*
Y192614D01*
X629692Y192481D01*
Y192333D01*
X629700Y192193D01*
X629707Y192126D01*
Y192067D01*
X629714Y192023D01*
X629722Y191978D01*
Y191964D01*
X629737Y191926D01*
X629759Y191867D01*
X629788Y191793D01*
X629825Y191712D01*
X629884Y191631D01*
X629951Y191542D01*
X630032Y191468D01*
X630047Y191461D01*
X630076Y191439D01*
X630136Y191409D01*
X630210Y191380D01*
X630313Y191343D01*
X630431Y191313D01*
X630564Y191291D01*
X630720Y191283D01*
X630793D01*
X630867Y191291D01*
X630964Y191306D01*
X631074Y191328D01*
X631178Y191357D01*
X631289Y191402D01*
X631377Y191461D01*
X631385Y191468D01*
X631414Y191490D01*
X631451Y191527D01*
X631496Y191579D01*
X631540Y191646D01*
X631584Y191720D01*
X631621Y191801D01*
X631643Y191897D01*
Y191912D01*
X631651Y191949D01*
X631658Y192015D01*
X631673Y192104D01*
Y192163D01*
X631680Y192230D01*
Y192304D01*
X631688Y192377D01*
Y192466D01*
X631695Y192562D01*
Y192666D01*
Y192777D01*
Y195615D01*
X632730D01*
Y192917D01*
D02*
G37*
G36*
X635413Y195637D02*
X635480Y195630D01*
X635554Y195622D01*
X635635Y195607D01*
X635724Y195593D01*
X635916Y195541D01*
X636108Y195467D01*
X636211Y195423D01*
X636300Y195371D01*
X636396Y195304D01*
X636478Y195231D01*
X636485Y195223D01*
X636500Y195216D01*
X636514Y195186D01*
X636544Y195157D01*
X636581Y195120D01*
X636618Y195068D01*
X636655Y195016D01*
X636699Y194950D01*
X636773Y194802D01*
X636847Y194632D01*
X636877Y194536D01*
X636891Y194432D01*
X636906Y194321D01*
X636914Y194210D01*
Y194196D01*
Y194151D01*
X636906Y194085D01*
X636899Y194004D01*
X636884Y193900D01*
X636862Y193789D01*
X636832Y193671D01*
X636788Y193553D01*
X636781Y193538D01*
X636766Y193501D01*
X636736Y193434D01*
X636692Y193353D01*
X636640Y193257D01*
X636574Y193146D01*
X636492Y193028D01*
X636396Y192902D01*
X636389Y192895D01*
X636359Y192858D01*
X636315Y192806D01*
X636248Y192732D01*
X636160Y192644D01*
X636049Y192525D01*
X635916Y192400D01*
X635753Y192244D01*
X635746Y192237D01*
X635731Y192230D01*
X635709Y192207D01*
X635679Y192178D01*
X635598Y192104D01*
X635502Y192015D01*
X635406Y191919D01*
X635310Y191823D01*
X635221Y191742D01*
X635191Y191705D01*
X635162Y191675D01*
X635154Y191668D01*
X635140Y191653D01*
X635117Y191623D01*
X635088Y191586D01*
X635021Y191505D01*
X634962Y191409D01*
X636914D01*
Y190500D01*
X633477D01*
Y190507D01*
Y190522D01*
X633484Y190552D01*
X633491Y190589D01*
X633499Y190633D01*
X633506Y190685D01*
X633536Y190818D01*
X633580Y190966D01*
X633639Y191128D01*
X633713Y191306D01*
X633809Y191476D01*
Y191483D01*
X633824Y191498D01*
X633839Y191527D01*
X633868Y191557D01*
X633898Y191609D01*
X633942Y191660D01*
X633994Y191727D01*
X634053Y191801D01*
X634120Y191890D01*
X634201Y191978D01*
X634290Y192082D01*
X634393Y192193D01*
X634504Y192304D01*
X634630Y192429D01*
X634763Y192562D01*
X634911Y192703D01*
X634918Y192710D01*
X634940Y192732D01*
X634970Y192762D01*
X635014Y192806D01*
X635073Y192850D01*
X635132Y192910D01*
X635265Y193043D01*
X635398Y193183D01*
X635531Y193323D01*
X635591Y193383D01*
X635650Y193449D01*
X635694Y193501D01*
X635724Y193545D01*
X635731Y193560D01*
X635753Y193597D01*
X635790Y193656D01*
X635827Y193737D01*
X635864Y193826D01*
X635901Y193930D01*
X635923Y194033D01*
X635930Y194144D01*
Y194151D01*
Y194159D01*
Y194196D01*
X635923Y194262D01*
X635908Y194336D01*
X635886Y194417D01*
X635857Y194499D01*
X635812Y194580D01*
X635753Y194654D01*
X635746Y194661D01*
X635724Y194683D01*
X635679Y194713D01*
X635628Y194743D01*
X635554Y194772D01*
X635472Y194802D01*
X635376Y194824D01*
X635265Y194831D01*
X635214D01*
X635154Y194824D01*
X635088Y194809D01*
X635007Y194787D01*
X634925Y194750D01*
X634844Y194706D01*
X634770Y194647D01*
X634763Y194639D01*
X634740Y194610D01*
X634711Y194565D01*
X634681Y194499D01*
X634644Y194417D01*
X634615Y194307D01*
X634585Y194181D01*
X634571Y194033D01*
X633595Y194129D01*
Y194137D01*
X633602Y194166D01*
Y194203D01*
X633617Y194262D01*
X633624Y194329D01*
X633647Y194403D01*
X633669Y194484D01*
X633691Y194580D01*
X633765Y194765D01*
X633853Y194957D01*
X633913Y195053D01*
X633979Y195142D01*
X634053Y195216D01*
X634134Y195290D01*
X634142Y195297D01*
X634157Y195304D01*
X634179Y195319D01*
X634216Y195349D01*
X634260Y195371D01*
X634319Y195401D01*
X634378Y195438D01*
X634452Y195467D01*
X634534Y195504D01*
X634622Y195534D01*
X634814Y195593D01*
X635044Y195630D01*
X635162Y195637D01*
X635288Y195644D01*
X635361D01*
X635413Y195637D01*
D02*
G37*
D14*
X1321245Y20000D02*
X1327912Y0D01*
X1334579Y20000D01*
X1327912Y800000D02*
X1334579Y780000D01*
X1321245D02*
X1327912Y800000D01*
Y0D02*
Y400000D01*
Y800000D01*
X1207540Y0D02*
X1330452D01*
X1200000Y800000D02*
X1330452D01*
X0Y-106934D02*
X20000Y-100267D01*
X0Y-106934D02*
X20000Y-113601D01*
X1180000D02*
X1200000Y-106934D01*
X1180000Y-100267D02*
X1200000Y-106934D01*
X0D02*
X600000D01*
X1200000D01*
X0Y-109474D02*
Y-7540D01*
X1200000Y-109474D02*
Y-7540D01*
D98*
X1279045Y375109D02*
X1274880Y379275D01*
Y387605D01*
X1279045Y391771D01*
X1283211D01*
X1287376Y387605D01*
X1291541Y391771D01*
X1295707D01*
X1299872Y387605D01*
Y379275D01*
X1295707Y375109D01*
X1291541D01*
X1287376Y379275D01*
X1283211Y375109D01*
X1279045D01*
X1287376Y379275D02*
Y387605D01*
X1279045Y400101D02*
X1274880Y404267D01*
Y412597D01*
X1279045Y416763D01*
X1295707D01*
X1299872Y412597D01*
Y404267D01*
X1295707Y400101D01*
X1279045D01*
X564696Y-78894D02*
X573027D01*
X568861D01*
Y-53902D01*
X564696Y-58067D01*
X602184Y-78894D02*
X585523D01*
X602184Y-62233D01*
Y-58067D01*
X598019Y-53902D01*
X589688D01*
X585523Y-58067D01*
X610515D02*
X614680Y-53902D01*
X623011D01*
X627176Y-58067D01*
Y-74729D01*
X623011Y-78894D01*
X614680D01*
X610515Y-74729D01*
Y-58067D01*
M02*
