G04*
G04 #@! TF.GenerationSoftware,Altium Limited,Altium Designer,22.7.1 (60)*
G04*
G04 Layer_Color=128*
%FSLAX44Y44*%
%MOMM*%
G71*
G04*
G04 #@! TF.SameCoordinates,F9262A58-C723-4885-9EE7-A1CEE64B0761*
G04*
G04*
G04 #@! TF.FilePolarity,Positive*
G04*
G01*
G75*
%ADD103C,0.0508*%
D103*
X166520Y63500D02*
X181520D01*
X174020Y56000D02*
Y71000D01*
X392520Y63500D02*
X407520D01*
X400020Y56000D02*
Y71000D01*
X134250Y697500D02*
X145750D01*
X140000Y691750D02*
Y703250D01*
X134250Y622500D02*
X145750D01*
X140000Y616750D02*
Y628250D01*
X306330Y661670D02*
X313330D01*
X309830Y658170D02*
Y665170D01*
X306330Y636270D02*
X313330D01*
X309830Y632770D02*
Y639770D01*
X306330Y610870D02*
X313330D01*
X309830Y607370D02*
Y614370D01*
X134250Y735000D02*
X145750D01*
X140000Y729250D02*
Y740750D01*
X134250Y585000D02*
X145750D01*
X140000Y579250D02*
Y590750D01*
X441750Y361900D02*
X458250D01*
X450000Y353650D02*
Y370150D01*
X441750Y438100D02*
X458250D01*
X450000Y429850D02*
Y446350D01*
X741750Y438100D02*
X758250D01*
X750000Y429850D02*
Y446350D01*
X741750Y361900D02*
X758250D01*
X750000Y353650D02*
Y370150D01*
X1116880Y753110D02*
X1128780D01*
X1122830Y747160D02*
Y759060D01*
X1091480Y753110D02*
X1103380D01*
X1097430Y747160D02*
Y759060D01*
X1066080Y753110D02*
X1077980D01*
X1072030Y747160D02*
Y759060D01*
X1040680Y753110D02*
X1052580D01*
X1046630Y747160D02*
Y759060D01*
X1015280Y753110D02*
X1027180D01*
X1021230Y747160D02*
Y759060D01*
X989880Y753110D02*
X1001780D01*
X995830Y747160D02*
Y759060D01*
X964480Y753110D02*
X976380D01*
X970430Y747160D02*
Y759060D01*
X939080Y753110D02*
X950980D01*
X945030Y747160D02*
Y759060D01*
X913680Y753110D02*
X925580D01*
X919630Y747160D02*
Y759060D01*
X888280Y753110D02*
X900180D01*
X894230Y747160D02*
Y759060D01*
X862880Y753110D02*
X874780D01*
X868830Y747160D02*
Y759060D01*
X837480Y753110D02*
X849380D01*
X843430Y747160D02*
Y759060D01*
X932580Y46990D02*
X944480D01*
X938530Y41040D02*
Y52940D01*
X1110380Y46990D02*
X1122280D01*
X1116330Y41040D02*
Y52940D01*
X110840Y478790D02*
X122840D01*
X116840Y472790D02*
Y484790D01*
X110840Y440690D02*
X122840D01*
X116840Y434690D02*
Y446690D01*
X110840Y231140D02*
X122840D01*
X116840Y225140D02*
Y237140D01*
X110840Y193040D02*
X122840D01*
X116840Y187040D02*
Y199040D01*
X533750Y74830D02*
X545750D01*
X539750Y68830D02*
Y80830D01*
X495650Y74830D02*
X507650D01*
X501650Y68830D02*
Y80830D01*
X830980Y46990D02*
X842880D01*
X836930Y41040D02*
Y52940D01*
X856380Y46990D02*
X868280D01*
X862330Y41040D02*
Y52940D01*
X881780Y46990D02*
X893680D01*
X887730Y41040D02*
Y52940D01*
X983380Y46990D02*
X995280D01*
X989330Y41040D02*
Y52940D01*
X1008780Y46990D02*
X1020680D01*
X1014730Y41040D02*
Y52940D01*
X1034180Y46990D02*
X1046080D01*
X1040130Y41040D02*
Y52940D01*
X1059580Y46990D02*
X1071480D01*
X1065530Y41040D02*
Y52940D01*
X1084980Y46990D02*
X1096880D01*
X1090930Y41040D02*
Y52940D01*
X957980Y46990D02*
X969880D01*
X963930Y41040D02*
Y52940D01*
X907180Y46990D02*
X919080D01*
X913130Y41040D02*
Y52940D01*
X767480Y46990D02*
X779380D01*
X773430Y41040D02*
Y52940D01*
X792880Y46990D02*
X804780D01*
X798830Y41040D02*
Y52940D01*
X533800Y618490D02*
X545700D01*
X539750Y612540D02*
Y624440D01*
X508400Y618490D02*
X520300D01*
X514350Y612540D02*
Y624440D01*
X470300Y618490D02*
X482200D01*
X476250Y612540D02*
Y624440D01*
X444900Y618490D02*
X456800D01*
X450850Y612540D02*
Y624440D01*
X916070Y185420D02*
X927970D01*
X922020Y179470D02*
Y191370D01*
X941470Y185420D02*
X953370D01*
X947420Y179470D02*
Y191370D01*
X979570Y185420D02*
X991470D01*
X985520Y179470D02*
Y191370D01*
X1004970Y185420D02*
X1016870D01*
X1010920Y179470D02*
Y191370D01*
X510940Y754380D02*
X522840D01*
X516890Y748430D02*
Y760330D01*
X536340Y754380D02*
X548240D01*
X542290Y748430D02*
Y760330D01*
X561740Y754380D02*
X573640D01*
X567690Y748430D02*
Y760330D01*
X587140Y754380D02*
X599040D01*
X593090Y748430D02*
Y760330D01*
X391560Y754380D02*
X403460D01*
X397510Y748430D02*
Y760330D01*
X416960Y754380D02*
X428860D01*
X422910Y748430D02*
Y760330D01*
X442360Y754380D02*
X454260D01*
X448310Y748430D02*
Y760330D01*
X467760Y754380D02*
X479660D01*
X473710Y748430D02*
Y760330D01*
X233280Y434340D02*
X246280D01*
X239780Y427840D02*
Y440840D01*
X233280Y459740D02*
X246280D01*
X239780Y453240D02*
Y466240D01*
X233280Y485140D02*
X246280D01*
X239780Y478640D02*
Y491640D01*
X233280Y310515D02*
X246280D01*
X239780Y304015D02*
Y317015D01*
X233280Y335915D02*
X246280D01*
X239780Y329415D02*
Y342415D01*
X233280Y361315D02*
X246280D01*
X239780Y354815D02*
Y367815D01*
X233280Y186690D02*
X246280D01*
X239780Y180190D02*
Y193190D01*
X233280Y212090D02*
X246280D01*
X239780Y205590D02*
Y218590D01*
X233280Y237490D02*
X246280D01*
X239780Y230990D02*
Y243990D01*
X415140Y252980D02*
X428140D01*
X421640Y246480D02*
Y259480D01*
X440540Y252980D02*
X453540D01*
X447040Y246480D02*
Y259480D01*
X465940Y252980D02*
X478940D01*
X472440Y246480D02*
Y259480D01*
X110840Y354965D02*
X122840D01*
X116840Y348965D02*
Y360965D01*
X110840Y316865D02*
X122840D01*
X116840Y310865D02*
Y322865D01*
X1152500Y770000D02*
X1187500D01*
X1170000Y752500D02*
Y787500D01*
X12500Y770000D02*
X47500D01*
X30000Y752500D02*
Y787500D01*
X12500Y30480D02*
X47500D01*
X30000Y12980D02*
Y47980D01*
X582500Y400000D02*
X617500D01*
X600000Y382500D02*
Y417500D01*
X1152500Y30000D02*
X1187500D01*
X1170000Y12500D02*
Y47500D01*
X1138198Y660400D02*
X1141198D01*
X1139698Y658900D02*
Y661900D01*
X1137944Y503936D02*
X1140944D01*
X1139444Y502436D02*
Y505436D01*
X1118640Y176784D02*
X1121640D01*
X1120140Y175284D02*
Y178284D01*
X1083620Y628650D02*
X1090620D01*
X1087120Y625150D02*
Y632150D01*
X1110290Y628650D02*
X1117290D01*
X1113790Y625150D02*
Y632150D01*
X811554Y786384D02*
X814554D01*
X813054Y784884D02*
Y787884D01*
X654836Y782828D02*
X657836D01*
X656336Y781328D02*
Y784328D01*
X1033550Y250190D02*
X1036550D01*
X1035050Y248690D02*
Y251690D01*
X505230Y157480D02*
X508230D01*
X506730Y155980D02*
Y158980D01*
X1036630Y571500D02*
X1043630D01*
X1040130Y568000D02*
Y575000D01*
X1034090Y591820D02*
X1041090D01*
X1037590Y588320D02*
Y595320D01*
X1035360Y679450D02*
X1042360D01*
X1038860Y675950D02*
Y682950D01*
X1008690Y467690D02*
X1011690D01*
X1010190Y466190D02*
Y469190D01*
X850670Y655320D02*
X853670D01*
X852170Y653820D02*
Y656820D01*
X842160Y625220D02*
X845160D01*
X843660Y623720D02*
Y626720D01*
X888770Y544830D02*
X891770D01*
X890270Y543330D02*
Y546330D01*
X996720Y467360D02*
X999720D01*
X998220Y465860D02*
Y468860D01*
X980540Y468690D02*
X983540D01*
X982040Y467190D02*
Y470190D01*
X987100Y572770D02*
X994100D01*
X990600Y569270D02*
Y576270D01*
X1087430Y454660D02*
X1094430D01*
X1090930Y451160D02*
Y458160D01*
X999800Y732790D02*
X1006800D01*
X1003300Y729290D02*
Y736290D01*
X922330Y615020D02*
X929330D01*
X925830Y611520D02*
Y618520D01*
X908360Y631190D02*
X915360D01*
X911860Y627690D02*
Y634690D01*
X1083620Y671830D02*
X1090620D01*
X1087120Y668330D02*
Y675330D01*
X1083620Y372110D02*
X1090620D01*
X1087120Y368610D02*
Y375610D01*
X1072920Y331470D02*
X1075920D01*
X1074420Y329970D02*
Y332970D01*
X987830Y435610D02*
X990830D01*
X989330Y434110D02*
Y437110D01*
X958620Y326646D02*
X961620D01*
X960120Y325145D02*
Y328145D01*
X914170Y342900D02*
X917170D01*
X915670Y341400D02*
Y344400D01*
X953540Y355600D02*
X956540D01*
X955040Y354100D02*
Y357100D01*
X1060220Y331470D02*
X1063220D01*
X1061720Y329970D02*
Y332970D01*
X865821Y518249D02*
X868821D01*
X867321Y516749D02*
Y519749D01*
X865910Y508000D02*
X868910D01*
X867410Y506500D02*
Y509500D01*
X865999Y497929D02*
X868999D01*
X867499Y496429D02*
Y499429D01*
X830350Y478790D02*
X833350D01*
X831850Y477290D02*
Y480290D01*
X563650Y623570D02*
X566650D01*
X565150Y622070D02*
Y625070D01*
X563650Y601980D02*
X566650D01*
X565150Y600480D02*
Y603480D01*
X622070Y623570D02*
X625070D01*
X623570Y622070D02*
Y625070D01*
X566190Y495300D02*
X569190D01*
X567690Y493800D02*
Y496800D01*
X390930Y520700D02*
X393930D01*
X392430Y519200D02*
Y522200D01*
X412520Y586740D02*
X415520D01*
X414020Y585240D02*
Y588240D01*
X865910Y487680D02*
X868910D01*
X867410Y486180D02*
Y489180D01*
X914170Y323850D02*
X917170D01*
X915670Y322350D02*
Y325350D01*
X984100Y326970D02*
X987100D01*
X985600Y325470D02*
Y328470D01*
X996800Y326970D02*
X999800D01*
X998300Y325470D02*
Y328470D01*
X971400Y326970D02*
X974400D01*
X972900Y325470D02*
Y328470D01*
X914170Y304800D02*
X917170D01*
X915670Y303300D02*
Y306300D01*
X1098320Y332740D02*
X1101320D01*
X1099820Y331240D02*
Y334240D01*
X622070Y601980D02*
X625070D01*
X623570Y600480D02*
Y603480D01*
X567460Y171450D02*
X570460D01*
X568960Y169950D02*
Y172950D01*
X427760Y601980D02*
X430760D01*
X429260Y600480D02*
Y603480D01*
X421410Y577850D02*
X424410D01*
X422910Y576350D02*
Y579350D01*
X262660Y436880D02*
X265660D01*
X264160Y435380D02*
Y438380D01*
X322350Y238760D02*
X325350D01*
X323850Y237260D02*
Y240260D01*
X1068890Y214740D02*
X1071890D01*
X1070390Y213240D02*
Y216240D01*
X953540Y393700D02*
X956540D01*
X955040Y392200D02*
Y395200D01*
X886230Y190500D02*
X889230D01*
X887730Y189000D02*
Y192000D01*
X860830Y190500D02*
X863830D01*
X862330Y189000D02*
Y192000D01*
X835430Y190500D02*
X838430D01*
X836930Y189000D02*
Y192000D01*
X425220Y194310D02*
X428220D01*
X426720Y192810D02*
Y195810D01*
X562380Y585160D02*
X565380D01*
X563880Y583660D02*
Y586660D01*
X568730Y576580D02*
X571730D01*
X570230Y575080D02*
Y578080D01*
X410520Y544830D02*
X417520D01*
X414020Y541330D02*
Y548330D01*
M02*
