G04*
G04 #@! TF.GenerationSoftware,Altium Limited,Altium Designer,22.7.1 (60)*
G04*
G04 Layer_Color=12632256*
%FSLAX44Y44*%
%MOMM*%
G71*
G04*
G04 #@! TF.SameCoordinates,F9262A58-C723-4885-9EE7-A1CEE64B0761*
G04*
G04*
G04 #@! TF.FilePolarity,Positive*
G04*
G01*
G75*
%ADD65C,2.3000*%
%ADD66R,2.3000X2.3000*%
%ADD69R,1.2000X1.2000*%
%ADD70C,1.2000*%
%ADD71C,1.7500*%
%ADD72R,1.7500X1.7500*%
%ADD73R,2.5000X2.5000*%
%ADD74C,2.5000*%
%ADD75C,1.8400*%
%ADD76R,1.8400X1.8400*%
%ADD80R,2.0000X2.0000*%
%ADD81C,2.0000*%
%ADD82R,2.0000X2.0000*%
%ADD91R,1.7500X1.7500*%
%ADD92C,1.7000*%
%ADD93R,1.7000X1.7000*%
%ADD94R,1.7000X1.7000*%
%ADD95C,4.0000*%
D65*
X174020Y63500D02*
D03*
D66*
X400020D02*
D03*
D69*
X309830Y661670D02*
D03*
D70*
Y636270D02*
D03*
Y610870D02*
D03*
D71*
X140000Y697500D02*
D03*
Y735000D02*
D03*
D72*
Y585000D02*
D03*
D73*
X450000Y361900D02*
D03*
X750000D02*
D03*
D74*
X450000Y438100D02*
D03*
X750000D02*
D03*
D75*
X1122830Y753110D02*
D03*
X1097430D02*
D03*
X1072030D02*
D03*
X1046630D02*
D03*
X1021230D02*
D03*
X995830D02*
D03*
X970430D02*
D03*
X945030D02*
D03*
X919630D02*
D03*
X894230D02*
D03*
X868830D02*
D03*
X938530Y46990D02*
D03*
X836930D02*
D03*
X862330D02*
D03*
X887730D02*
D03*
X989330D02*
D03*
X1014730D02*
D03*
X1040130D02*
D03*
X1065530D02*
D03*
X1090930D02*
D03*
X963930D02*
D03*
X913130D02*
D03*
D76*
X843430Y753110D02*
D03*
X1116330Y46990D02*
D03*
D80*
X239780Y434340D02*
D03*
Y310515D02*
D03*
Y186690D02*
D03*
D81*
Y459740D02*
D03*
Y485140D02*
D03*
Y335915D02*
D03*
Y361315D02*
D03*
Y212090D02*
D03*
Y237490D02*
D03*
X447040Y252980D02*
D03*
X472440D02*
D03*
D82*
X421640D02*
D03*
D91*
X140000Y622500D02*
D03*
D92*
X116840Y478790D02*
D03*
Y231140D02*
D03*
X501650Y74830D02*
D03*
X798830Y46990D02*
D03*
X514350Y618490D02*
D03*
X450850D02*
D03*
X947420Y185420D02*
D03*
X1010920D02*
D03*
X542290Y754380D02*
D03*
X567690D02*
D03*
X593090D02*
D03*
X422910D02*
D03*
X448310D02*
D03*
X473710D02*
D03*
X116840Y354965D02*
D03*
D93*
Y440690D02*
D03*
Y193040D02*
D03*
Y316865D02*
D03*
D94*
X539750Y74830D02*
D03*
X773430Y46990D02*
D03*
X539750Y618490D02*
D03*
X476250D02*
D03*
X922020Y185420D02*
D03*
X985520D02*
D03*
X516890Y754380D02*
D03*
X397510D02*
D03*
D95*
X1170000Y770000D02*
D03*
X30000D02*
D03*
Y30480D02*
D03*
X600000Y400000D02*
D03*
X1170000Y30000D02*
D03*
M02*
