G04*
G04 #@! TF.GenerationSoftware,Altium Limited,Altium Designer,22.7.1 (60)*
G04*
G04 Layer_Color=8421504*
%FSLAX44Y44*%
%MOMM*%
G71*
G04*
G04 #@! TF.SameCoordinates,F9262A58-C723-4885-9EE7-A1CEE64B0761*
G04*
G04*
G04 #@! TF.FilePolarity,Positive*
G04*
G01*
G75*
%ADD15R,1.3000X1.5500*%
%ADD16R,1.4000X1.8000*%
%ADD17R,1.2065X1.5082*%
%ADD18R,0.7000X1.1000*%
%ADD19R,1.0500X0.7800*%
%ADD20R,0.9000X0.9300*%
%ADD21R,1.1400X1.8300*%
%ADD22R,0.7000X3.3000*%
%ADD23R,0.8600X2.8000*%
%ADD24R,0.9000X0.7500*%
%ADD25R,1.2621X1.0046*%
%ADD26R,0.8300X0.6300*%
%ADD27R,1.5082X1.2065*%
%ADD28R,1.7145X2.1844*%
%ADD29R,0.6300X0.8300*%
%ADD30R,0.9000X0.8000*%
%ADD31R,1.0046X1.2621*%
%ADD32R,1.9900X2.3300*%
%ADD33R,0.9500X1.4500*%
%ADD34R,1.4082X1.0065*%
G04:AMPARAMS|DCode=35|XSize=0.9mm|YSize=1.75mm|CornerRadius=0.0495mm|HoleSize=0mm|Usage=FLASHONLY|Rotation=90.000|XOffset=0mm|YOffset=0mm|HoleType=Round|Shape=RoundedRectangle|*
%AMROUNDEDRECTD35*
21,1,0.9000,1.6510,0,0,90.0*
21,1,0.8010,1.7500,0,0,90.0*
1,1,0.0990,0.8255,0.4005*
1,1,0.0990,0.8255,-0.4005*
1,1,0.0990,-0.8255,-0.4005*
1,1,0.0990,-0.8255,0.4005*
%
%ADD35ROUNDEDRECTD35*%
G04:AMPARAMS|DCode=36|XSize=3.2mm|YSize=1.75mm|CornerRadius=0.0525mm|HoleSize=0mm|Usage=FLASHONLY|Rotation=90.000|XOffset=0mm|YOffset=0mm|HoleType=Round|Shape=RoundedRectangle|*
%AMROUNDEDRECTD36*
21,1,3.2000,1.6450,0,0,90.0*
21,1,3.0950,1.7500,0,0,90.0*
1,1,0.1050,0.8225,1.5475*
1,1,0.1050,0.8225,-1.5475*
1,1,0.1050,-0.8225,-1.5475*
1,1,0.1050,-0.8225,1.5475*
%
%ADD36ROUNDEDRECTD36*%
%ADD37R,0.7500X0.9000*%
%ADD38R,1.4500X0.9500*%
%ADD39R,0.9000X2.0000*%
%ADD40R,2.0000X0.9000*%
%ADD41R,1.3300X1.3300*%
%ADD42R,0.8000X0.9000*%
%ADD43R,0.8000X0.9000*%
G04:AMPARAMS|DCode=44|XSize=3.15mm|YSize=1.45mm|CornerRadius=0.0508mm|HoleSize=0mm|Usage=FLASHONLY|Rotation=90.000|XOffset=0mm|YOffset=0mm|HoleType=Round|Shape=RoundedRectangle|*
%AMROUNDEDRECTD44*
21,1,3.1500,1.3485,0,0,90.0*
21,1,3.0485,1.4500,0,0,90.0*
1,1,0.1015,0.6743,1.5243*
1,1,0.1015,0.6743,-1.5243*
1,1,0.1015,-0.6743,-1.5243*
1,1,0.1015,-0.6743,1.5243*
%
%ADD44ROUNDEDRECTD44*%
G04:AMPARAMS|DCode=45|XSize=0.9mm|YSize=1.45mm|CornerRadius=0.0495mm|HoleSize=0mm|Usage=FLASHONLY|Rotation=90.000|XOffset=0mm|YOffset=0mm|HoleType=Round|Shape=RoundedRectangle|*
%AMROUNDEDRECTD45*
21,1,0.9000,1.3510,0,0,90.0*
21,1,0.8010,1.4500,0,0,90.0*
1,1,0.0990,0.6755,0.4005*
1,1,0.0990,0.6755,-0.4005*
1,1,0.0990,-0.6755,-0.4005*
1,1,0.0990,-0.6755,0.4005*
%
%ADD45ROUNDEDRECTD45*%
%ADD46R,2.0000X3.0000*%
%ADD47R,1.1500X1.1500*%
%ADD48R,2.3300X1.9900*%
%ADD49R,0.8065X1.3082*%
%ADD50R,0.8000X0.8000*%
D15*
X1123400Y200712D02*
D03*
Y280212D02*
D03*
X1168400Y200712D02*
D03*
Y280212D02*
D03*
X1123400Y523240D02*
D03*
Y602740D02*
D03*
X1168400Y523240D02*
D03*
Y602740D02*
D03*
D16*
X1142954Y179324D02*
D03*
X1168954D02*
D03*
X1147780Y624840D02*
D03*
X1173780D02*
D03*
D17*
X1125633Y154432D02*
D03*
X1146651D02*
D03*
X319119Y534670D02*
D03*
X298101D02*
D03*
X1010571Y643890D02*
D03*
X1031589D02*
D03*
X641350Y525780D02*
D03*
X662367D02*
D03*
X641001Y553720D02*
D03*
X662019D02*
D03*
X317849Y441960D02*
D03*
X296831D02*
D03*
X306419Y218440D02*
D03*
X285401D02*
D03*
D18*
X773200Y758000D02*
D03*
X762200D02*
D03*
X740200D02*
D03*
X729200D02*
D03*
X718200D02*
D03*
X707200D02*
D03*
X696200D02*
D03*
X751200D02*
D03*
D19*
X720950Y632600D02*
D03*
D20*
X678300Y633350D02*
D03*
D21*
X657400Y757850D02*
D03*
D22*
X655200Y645200D02*
D03*
X784800D02*
D03*
D23*
X784000Y753000D02*
D03*
D24*
X370840Y515970D02*
D03*
Y527970D02*
D03*
X339090Y480980D02*
D03*
Y468980D02*
D03*
X386080Y157830D02*
D03*
Y169830D02*
D03*
X676910Y253650D02*
D03*
Y241650D02*
D03*
X589280Y214280D02*
D03*
Y202280D02*
D03*
D25*
X342900Y515844D02*
D03*
Y530860D02*
D03*
X941070Y630032D02*
D03*
Y645048D02*
D03*
X410210Y156322D02*
D03*
Y171338D02*
D03*
D26*
X275590Y357860D02*
D03*
Y335560D02*
D03*
X568960Y181890D02*
D03*
Y204190D02*
D03*
X276860Y456210D02*
D03*
Y478510D02*
D03*
X267970Y235230D02*
D03*
Y257530D02*
D03*
D27*
X1021080Y508921D02*
D03*
Y529939D02*
D03*
X392430Y659479D02*
D03*
Y638461D02*
D03*
X972820Y529939D02*
D03*
Y508921D02*
D03*
X1075690Y270161D02*
D03*
Y291179D02*
D03*
X1049020Y270161D02*
D03*
Y291179D02*
D03*
X1022350D02*
D03*
Y270161D02*
D03*
X995680Y291179D02*
D03*
Y270161D02*
D03*
X969010Y291179D02*
D03*
Y270161D02*
D03*
X1098550Y550259D02*
D03*
Y529241D02*
D03*
X364490Y154591D02*
D03*
Y175609D02*
D03*
X325120Y341281D02*
D03*
Y362299D02*
D03*
X306070Y302609D02*
D03*
Y281591D02*
D03*
D28*
X458153Y191770D02*
D03*
X496888D02*
D03*
D29*
X631470Y243066D02*
D03*
X653770D02*
D03*
D30*
X369410Y645770D02*
D03*
X349410Y636270D02*
D03*
X369410Y626770D02*
D03*
X321470Y166370D02*
D03*
X341470Y175870D02*
D03*
Y156870D02*
D03*
D31*
X399938Y613410D02*
D03*
X384922D02*
D03*
X303418Y193040D02*
D03*
X288402D02*
D03*
X301214Y468630D02*
D03*
X316230D02*
D03*
D32*
X480440Y544830D02*
D03*
X540640D02*
D03*
D33*
X992730Y643890D02*
D03*
X973230D02*
D03*
X880520Y342900D02*
D03*
X900020D02*
D03*
X880520Y304800D02*
D03*
X900020D02*
D03*
X880520Y323850D02*
D03*
X900020D02*
D03*
X620620Y525780D02*
D03*
X601120D02*
D03*
X620620Y553720D02*
D03*
X601120D02*
D03*
D34*
X995680Y529478D02*
D03*
Y510461D02*
D03*
D35*
X697730Y254140D02*
D03*
Y231140D02*
D03*
Y208140D02*
D03*
D36*
X760230Y231140D02*
D03*
D37*
X1100170Y505460D02*
D03*
X1112170D02*
D03*
X576230Y154940D02*
D03*
X564230D02*
D03*
X301910Y166370D02*
D03*
X289910D02*
D03*
D38*
X1098550Y272190D02*
D03*
Y291690D02*
D03*
X887730Y154530D02*
D03*
Y135030D02*
D03*
X862330Y154530D02*
D03*
Y135030D02*
D03*
X836930Y154530D02*
D03*
Y135030D02*
D03*
D39*
X1112600Y485000D02*
D03*
X1099900D02*
D03*
X1087200D02*
D03*
X1074500D02*
D03*
X1061800D02*
D03*
X1049100D02*
D03*
X1036400D02*
D03*
X1023700D02*
D03*
X1011000D02*
D03*
X998300D02*
D03*
X985600D02*
D03*
X972900D02*
D03*
X960200D02*
D03*
X947500D02*
D03*
Y315000D02*
D03*
X960200D02*
D03*
X972900D02*
D03*
X985600D02*
D03*
X998300D02*
D03*
X1011000D02*
D03*
X1023700D02*
D03*
X1036400D02*
D03*
X1049100D02*
D03*
X1061800D02*
D03*
X1074500D02*
D03*
X1087200D02*
D03*
X1099900D02*
D03*
X1112600D02*
D03*
D40*
X937500Y457150D02*
D03*
Y444450D02*
D03*
Y431750D02*
D03*
Y419050D02*
D03*
Y406350D02*
D03*
Y393650D02*
D03*
Y380950D02*
D03*
Y368250D02*
D03*
Y355550D02*
D03*
Y342850D02*
D03*
D41*
X1055950Y428350D02*
D03*
Y410000D02*
D03*
Y391650D02*
D03*
X1037600Y428350D02*
D03*
Y410000D02*
D03*
Y391650D02*
D03*
X1019250Y428350D02*
D03*
Y410000D02*
D03*
Y391650D02*
D03*
D42*
X283210Y396400D02*
D03*
X292710Y416400D02*
D03*
X273710D02*
D03*
X286410Y236380D02*
D03*
X305410D02*
D03*
X295910Y256380D02*
D03*
D43*
X318110Y512920D02*
D03*
X308610Y492920D02*
D03*
X299110Y512920D02*
D03*
D44*
X675910Y194310D02*
D03*
D45*
X614410D02*
D03*
Y171310D02*
D03*
Y217310D02*
D03*
D46*
X675160Y130810D02*
D03*
X615160D02*
D03*
X761520Y167640D02*
D03*
X701520D02*
D03*
D47*
X299720Y363540D02*
D03*
Y340041D02*
D03*
X279400Y280350D02*
D03*
Y303850D02*
D03*
D48*
X359410Y215010D02*
D03*
Y275210D02*
D03*
D49*
X401701Y219710D02*
D03*
X418719D02*
D03*
D50*
X967740Y570350D02*
D03*
Y585350D02*
D03*
M02*
