G04*
G04 #@! TF.GenerationSoftware,Altium Limited,Altium Designer,22.7.1 (60)*
G04*
G04 Layer_Color=2752767*
%FSLAX44Y44*%
%MOMM*%
G71*
G04*
G04 #@! TF.SameCoordinates,F9262A58-C723-4885-9EE7-A1CEE64B0761*
G04*
G04*
G04 #@! TF.FilePolarity,Positive*
G04*
G01*
G75*
%ADD103C,0.0508*%
%ADD104C,0.0677*%
%ADD105C,0.0339*%
D103*
X173004Y62484D02*
Y61468D01*
X175036D01*
Y62484D01*
X176052D01*
Y64516D01*
X175036D01*
Y65532D01*
X173004D01*
Y64516D01*
X171988D01*
Y62484D01*
X173004D01*
X399004D02*
Y61468D01*
X401036D01*
Y62484D01*
X402052D01*
Y64516D01*
X401036D01*
Y65532D01*
X399004D01*
Y64516D01*
X397988D01*
Y62484D01*
X399004D01*
X137968Y697500D02*
X140000Y699532D01*
X142032Y697500D01*
X140000Y695468D01*
X137968Y697500D01*
Y622500D02*
X140000Y624532D01*
X142032Y622500D01*
X140000Y620468D01*
X137968Y622500D01*
X307798Y659638D02*
X308814D01*
X309830Y660654D01*
X310846Y659638D01*
X311862D01*
Y660654D01*
X310846Y661670D01*
X311862Y662686D01*
Y663702D01*
X310846D01*
X309830Y662686D01*
X308814Y663702D01*
X307798D01*
Y662686D01*
X308814Y661670D01*
X307798Y660654D01*
Y659638D01*
Y634238D02*
X308814D01*
X309830Y635254D01*
X310846Y634238D01*
X311862D01*
Y635254D01*
X310846Y636270D01*
X311862Y637286D01*
Y638302D01*
X310846D01*
X309830Y637286D01*
X308814Y638302D01*
X307798D01*
Y637286D01*
X308814Y636270D01*
X307798Y635254D01*
Y634238D01*
Y608838D02*
X308814D01*
X309830Y609854D01*
X310846Y608838D01*
X311862D01*
Y609854D01*
X310846Y610870D01*
X311862Y611886D01*
Y612902D01*
X310846D01*
X309830Y611886D01*
X308814Y612902D01*
X307798D01*
Y611886D01*
X308814Y610870D01*
X307798Y609854D01*
Y608838D01*
X137968Y735000D02*
X140000Y737032D01*
X142032Y735000D01*
X140000Y732968D01*
X137968Y735000D01*
Y585000D02*
X140000Y587032D01*
X142032Y585000D01*
X140000Y582968D01*
X137968Y585000D01*
X447968Y359868D02*
X448984Y361900D01*
X447968Y363932D01*
X450000Y362916D01*
X452032Y363932D01*
X451016Y361900D01*
X452032Y359868D01*
X450000Y360884D01*
X447968Y359868D01*
Y436068D02*
X448984Y438100D01*
X447968Y440132D01*
X450000Y439116D01*
X452032Y440132D01*
X451016Y438100D01*
X452032Y436068D01*
X450000Y437084D01*
X447968Y436068D01*
X747968D02*
X748984Y438100D01*
X747968Y440132D01*
X750000Y439116D01*
X752032Y440132D01*
X751016Y438100D01*
X752032Y436068D01*
X750000Y437084D01*
X747968Y436068D01*
Y359868D02*
X748984Y361900D01*
X747968Y363932D01*
X750000Y362916D01*
X752032Y363932D01*
X751016Y361900D01*
X752032Y359868D01*
X750000Y360884D01*
X747968Y359868D01*
X116840Y476758D02*
X114808Y480822D01*
X118872D01*
X116840Y476758D01*
Y438658D02*
X114808Y442722D01*
X118872D01*
X116840Y438658D01*
Y229108D02*
X114808Y233172D01*
X118872D01*
X116840Y229108D01*
Y191008D02*
X114808Y195072D01*
X118872D01*
X116840Y191008D01*
X539750Y72798D02*
X537718Y76862D01*
X541782D01*
X539750Y72798D01*
X501650D02*
X499618Y76862D01*
X503682D01*
X501650Y72798D01*
X239780Y432308D02*
X240796Y433324D01*
X241812D01*
X240796Y434340D01*
X241812Y435356D01*
X240796D01*
X239780Y436372D01*
X238764Y435356D01*
X237748D01*
X238764Y434340D01*
X237748Y433324D01*
X238764D01*
X239780Y432308D01*
Y457708D02*
X240796Y458724D01*
X241812D01*
X240796Y459740D01*
X241812Y460756D01*
X240796D01*
X239780Y461772D01*
X238764Y460756D01*
X237748D01*
X238764Y459740D01*
X237748Y458724D01*
X238764D01*
X239780Y457708D01*
Y483108D02*
X240796Y484124D01*
X241812D01*
X240796Y485140D01*
X241812Y486156D01*
X240796D01*
X239780Y487172D01*
X238764Y486156D01*
X237748D01*
X238764Y485140D01*
X237748Y484124D01*
X238764D01*
X239780Y483108D01*
Y308483D02*
X240796Y309499D01*
X241812D01*
X240796Y310515D01*
X241812Y311531D01*
X240796D01*
X239780Y312547D01*
X238764Y311531D01*
X237748D01*
X238764Y310515D01*
X237748Y309499D01*
X238764D01*
X239780Y308483D01*
Y333883D02*
X240796Y334899D01*
X241812D01*
X240796Y335915D01*
X241812Y336931D01*
X240796D01*
X239780Y337947D01*
X238764Y336931D01*
X237748D01*
X238764Y335915D01*
X237748Y334899D01*
X238764D01*
X239780Y333883D01*
Y359283D02*
X240796Y360299D01*
X241812D01*
X240796Y361315D01*
X241812Y362331D01*
X240796D01*
X239780Y363347D01*
X238764Y362331D01*
X237748D01*
X238764Y361315D01*
X237748Y360299D01*
X238764D01*
X239780Y359283D01*
Y184658D02*
X240796Y185674D01*
X241812D01*
X240796Y186690D01*
X241812Y187706D01*
X240796D01*
X239780Y188722D01*
X238764Y187706D01*
X237748D01*
X238764Y186690D01*
X237748Y185674D01*
X238764D01*
X239780Y184658D01*
Y210058D02*
X240796Y211074D01*
X241812D01*
X240796Y212090D01*
X241812Y213106D01*
X240796D01*
X239780Y214122D01*
X238764Y213106D01*
X237748D01*
X238764Y212090D01*
X237748Y211074D01*
X238764D01*
X239780Y210058D01*
Y235458D02*
X240796Y236474D01*
X241812D01*
X240796Y237490D01*
X241812Y238506D01*
X240796D01*
X239780Y239522D01*
X238764Y238506D01*
X237748D01*
X238764Y237490D01*
X237748Y236474D01*
X238764D01*
X239780Y235458D01*
X421640Y250948D02*
X422656Y251964D01*
X423672D01*
X422656Y252980D01*
X423672Y253996D01*
X422656D01*
X421640Y255012D01*
X420624Y253996D01*
X419608D01*
X420624Y252980D01*
X419608Y251964D01*
X420624D01*
X421640Y250948D01*
X447040D02*
X448056Y251964D01*
X449072D01*
X448056Y252980D01*
X449072Y253996D01*
X448056D01*
X447040Y255012D01*
X446024Y253996D01*
X445008D01*
X446024Y252980D01*
X445008Y251964D01*
X446024D01*
X447040Y250948D01*
X472440D02*
X473456Y251964D01*
X474472D01*
X473456Y252980D01*
X474472Y253996D01*
X473456D01*
X472440Y255012D01*
X471424Y253996D01*
X470408D01*
X471424Y252980D01*
X470408Y251964D01*
X471424D01*
X472440Y250948D01*
X116840Y352933D02*
X114808Y356997D01*
X118872D01*
X116840Y352933D01*
Y314833D02*
X114808Y318897D01*
X118872D01*
X116840Y314833D01*
X1167968Y767968D02*
Y772032D01*
X1172032D01*
Y767968D01*
X1167968D01*
X27968D02*
Y772032D01*
X32032D01*
Y767968D01*
X27968D01*
Y28448D02*
Y32512D01*
X32032D01*
Y28448D01*
X27968D01*
X597968Y397968D02*
Y402032D01*
X602032D01*
Y397968D01*
X597968D01*
X1167968Y27968D02*
Y32032D01*
X1172032D01*
Y27968D01*
X1167968D01*
X1085088Y626618D02*
X1086104D01*
X1087120Y627634D01*
X1088136Y626618D01*
X1089152D01*
Y627634D01*
X1088136Y628650D01*
X1089152Y629666D01*
Y630682D01*
X1088136D01*
X1087120Y629666D01*
X1086104Y630682D01*
X1085088D01*
Y629666D01*
X1086104Y628650D01*
X1085088Y627634D01*
Y626618D01*
X1111758D02*
X1112774D01*
X1113790Y627634D01*
X1114806Y626618D01*
X1115822D01*
Y627634D01*
X1114806Y628650D01*
X1115822Y629666D01*
Y630682D01*
X1114806D01*
X1113790Y629666D01*
X1112774Y630682D01*
X1111758D01*
Y629666D01*
X1112774Y628650D01*
X1111758Y627634D01*
Y626618D01*
X1038098Y569468D02*
X1039114D01*
X1040130Y570484D01*
X1041146Y569468D01*
X1042162D01*
Y570484D01*
X1041146Y571500D01*
X1042162Y572516D01*
Y573532D01*
X1041146D01*
X1040130Y572516D01*
X1039114Y573532D01*
X1038098D01*
Y572516D01*
X1039114Y571500D01*
X1038098Y570484D01*
Y569468D01*
X1035558Y589788D02*
X1036574D01*
X1037590Y590804D01*
X1038606Y589788D01*
X1039622D01*
Y590804D01*
X1038606Y591820D01*
X1039622Y592836D01*
Y593852D01*
X1038606D01*
X1037590Y592836D01*
X1036574Y593852D01*
X1035558D01*
Y592836D01*
X1036574Y591820D01*
X1035558Y590804D01*
Y589788D01*
X1036828Y677418D02*
X1037844D01*
X1038860Y678434D01*
X1039876Y677418D01*
X1040892D01*
Y678434D01*
X1039876Y679450D01*
X1040892Y680466D01*
Y681482D01*
X1039876D01*
X1038860Y680466D01*
X1037844Y681482D01*
X1036828D01*
Y680466D01*
X1037844Y679450D01*
X1036828Y678434D01*
Y677418D01*
X988568Y570738D02*
X989584D01*
X990600Y571754D01*
X991616Y570738D01*
X992632D01*
Y571754D01*
X991616Y572770D01*
X992632Y573786D01*
Y574802D01*
X991616D01*
X990600Y573786D01*
X989584Y574802D01*
X988568D01*
Y573786D01*
X989584Y572770D01*
X988568Y571754D01*
Y570738D01*
X1088898Y452628D02*
X1089914D01*
X1090930Y453644D01*
X1091946Y452628D01*
X1092962D01*
Y453644D01*
X1091946Y454660D01*
X1092962Y455676D01*
Y456692D01*
X1091946D01*
X1090930Y455676D01*
X1089914Y456692D01*
X1088898D01*
Y455676D01*
X1089914Y454660D01*
X1088898Y453644D01*
Y452628D01*
X1001268Y730758D02*
X1002284D01*
X1003300Y731774D01*
X1004316Y730758D01*
X1005332D01*
Y731774D01*
X1004316Y732790D01*
X1005332Y733806D01*
Y734822D01*
X1004316D01*
X1003300Y733806D01*
X1002284Y734822D01*
X1001268D01*
Y733806D01*
X1002284Y732790D01*
X1001268Y731774D01*
Y730758D01*
X923798Y612988D02*
X924814D01*
X925830Y614004D01*
X926846Y612988D01*
X927862D01*
Y614004D01*
X926846Y615020D01*
X927862Y616036D01*
Y617052D01*
X926846D01*
X925830Y616036D01*
X924814Y617052D01*
X923798D01*
Y616036D01*
X924814Y615020D01*
X923798Y614004D01*
Y612988D01*
X909828Y629158D02*
X910844D01*
X911860Y630174D01*
X912876Y629158D01*
X913892D01*
Y630174D01*
X912876Y631190D01*
X913892Y632206D01*
Y633222D01*
X912876D01*
X911860Y632206D01*
X910844Y633222D01*
X909828D01*
Y632206D01*
X910844Y631190D01*
X909828Y630174D01*
Y629158D01*
X1085088Y669798D02*
X1086104D01*
X1087120Y670814D01*
X1088136Y669798D01*
X1089152D01*
Y670814D01*
X1088136Y671830D01*
X1089152Y672846D01*
Y673862D01*
X1088136D01*
X1087120Y672846D01*
X1086104Y673862D01*
X1085088D01*
Y672846D01*
X1086104Y671830D01*
X1085088Y670814D01*
Y669798D01*
Y370078D02*
X1086104D01*
X1087120Y371094D01*
X1088136Y370078D01*
X1089152D01*
Y371094D01*
X1088136Y372110D01*
X1089152Y373126D01*
Y374142D01*
X1088136D01*
X1087120Y373126D01*
X1086104Y374142D01*
X1085088D01*
Y373126D01*
X1086104Y372110D01*
X1085088Y371094D01*
Y370078D01*
X411988Y542798D02*
X413004D01*
X414020Y543814D01*
X415036Y542798D01*
X416052D01*
Y543814D01*
X415036Y544830D01*
X416052Y545846D01*
Y546862D01*
X415036D01*
X414020Y545846D01*
X413004Y546862D01*
X411988D01*
Y545846D01*
X413004Y544830D01*
X411988Y543814D01*
Y542798D01*
D104*
X1124862Y753110D02*
G03*
X1124862Y753110I-2032J0D01*
G01*
X1099462D02*
G03*
X1099462Y753110I-2032J0D01*
G01*
X1074062D02*
G03*
X1074062Y753110I-2032J0D01*
G01*
X1048662D02*
G03*
X1048662Y753110I-2032J0D01*
G01*
X1023262D02*
G03*
X1023262Y753110I-2032J0D01*
G01*
X997862D02*
G03*
X997862Y753110I-2032J0D01*
G01*
X972462D02*
G03*
X972462Y753110I-2032J0D01*
G01*
X947062D02*
G03*
X947062Y753110I-2032J0D01*
G01*
X921662D02*
G03*
X921662Y753110I-2032J0D01*
G01*
X896262D02*
G03*
X896262Y753110I-2032J0D01*
G01*
X870862D02*
G03*
X870862Y753110I-2032J0D01*
G01*
X845462D02*
G03*
X845462Y753110I-2032J0D01*
G01*
X940562Y46990D02*
G03*
X940562Y46990I-2032J0D01*
G01*
X1118362D02*
G03*
X1118362Y46990I-2032J0D01*
G01*
X838962D02*
G03*
X838962Y46990I-2032J0D01*
G01*
X864362D02*
G03*
X864362Y46990I-2032J0D01*
G01*
X889762D02*
G03*
X889762Y46990I-2032J0D01*
G01*
X991362D02*
G03*
X991362Y46990I-2032J0D01*
G01*
X1016762D02*
G03*
X1016762Y46990I-2032J0D01*
G01*
X1042162D02*
G03*
X1042162Y46990I-2032J0D01*
G01*
X1067562D02*
G03*
X1067562Y46990I-2032J0D01*
G01*
X1092962D02*
G03*
X1092962Y46990I-2032J0D01*
G01*
X965962D02*
G03*
X965962Y46990I-2032J0D01*
G01*
X915162D02*
G03*
X915162Y46990I-2032J0D01*
G01*
X775462D02*
G03*
X775462Y46990I-2032J0D01*
G01*
X800862D02*
G03*
X800862Y46990I-2032J0D01*
G01*
X541782Y618490D02*
G03*
X541782Y618490I-2032J0D01*
G01*
X516382D02*
G03*
X516382Y618490I-2032J0D01*
G01*
X478282D02*
G03*
X478282Y618490I-2032J0D01*
G01*
X452882D02*
G03*
X452882Y618490I-2032J0D01*
G01*
X924052Y185420D02*
G03*
X924052Y185420I-2032J0D01*
G01*
X949452D02*
G03*
X949452Y185420I-2032J0D01*
G01*
X987552D02*
G03*
X987552Y185420I-2032J0D01*
G01*
X1012952D02*
G03*
X1012952Y185420I-2032J0D01*
G01*
X518922Y754380D02*
G03*
X518922Y754380I-2032J0D01*
G01*
X544322D02*
G03*
X544322Y754380I-2032J0D01*
G01*
X569722D02*
G03*
X569722Y754380I-2032J0D01*
G01*
X595122D02*
G03*
X595122Y754380I-2032J0D01*
G01*
X399542D02*
G03*
X399542Y754380I-2032J0D01*
G01*
X424942D02*
G03*
X424942Y754380I-2032J0D01*
G01*
X450342D02*
G03*
X450342Y754380I-2032J0D01*
G01*
X475742D02*
G03*
X475742Y754380I-2032J0D01*
G01*
X1141730Y660400D02*
G03*
X1141730Y660400I-2032J0D01*
G01*
X1141476Y503936D02*
G03*
X1141476Y503936I-2032J0D01*
G01*
X1122172Y176784D02*
G03*
X1122172Y176784I-2032J0D01*
G01*
X815086Y786384D02*
G03*
X815086Y786384I-2032J0D01*
G01*
X658368Y782828D02*
G03*
X658368Y782828I-2032J0D01*
G01*
X1037082Y250190D02*
G03*
X1037082Y250190I-2032J0D01*
G01*
X508762Y157480D02*
G03*
X508762Y157480I-2032J0D01*
G01*
X1012222Y467690D02*
G03*
X1012222Y467690I-2032J0D01*
G01*
X854202Y655320D02*
G03*
X854202Y655320I-2032J0D01*
G01*
X845692Y625220D02*
G03*
X845692Y625220I-2032J0D01*
G01*
X892302Y544830D02*
G03*
X892302Y544830I-2032J0D01*
G01*
X1000252Y467360D02*
G03*
X1000252Y467360I-2032J0D01*
G01*
X984072Y468690D02*
G03*
X984072Y468690I-2032J0D01*
G01*
X1076452Y331470D02*
G03*
X1076452Y331470I-2032J0D01*
G01*
X991362Y435610D02*
G03*
X991362Y435610I-2032J0D01*
G01*
X962152Y326646D02*
G03*
X962152Y326646I-2032J0D01*
G01*
X917702Y342900D02*
G03*
X917702Y342900I-2032J0D01*
G01*
X957072Y355600D02*
G03*
X957072Y355600I-2032J0D01*
G01*
X1063752Y331470D02*
G03*
X1063752Y331470I-2032J0D01*
G01*
X869353Y518249D02*
G03*
X869353Y518249I-2032J0D01*
G01*
X869442Y508000D02*
G03*
X869442Y508000I-2032J0D01*
G01*
X869531Y497929D02*
G03*
X869531Y497929I-2032J0D01*
G01*
X833882Y478790D02*
G03*
X833882Y478790I-2032J0D01*
G01*
X567182Y623570D02*
G03*
X567182Y623570I-2032J0D01*
G01*
Y601980D02*
G03*
X567182Y601980I-2032J0D01*
G01*
X625602Y623570D02*
G03*
X625602Y623570I-2032J0D01*
G01*
X569722Y495300D02*
G03*
X569722Y495300I-2032J0D01*
G01*
X394462Y520700D02*
G03*
X394462Y520700I-2032J0D01*
G01*
X416052Y586740D02*
G03*
X416052Y586740I-2032J0D01*
G01*
X869442Y487680D02*
G03*
X869442Y487680I-2032J0D01*
G01*
X917702Y323850D02*
G03*
X917702Y323850I-2032J0D01*
G01*
X987632Y326970D02*
G03*
X987632Y326970I-2032J0D01*
G01*
X1000332D02*
G03*
X1000332Y326970I-2032J0D01*
G01*
X974932D02*
G03*
X974932Y326970I-2032J0D01*
G01*
X917702Y304800D02*
G03*
X917702Y304800I-2032J0D01*
G01*
X1101852Y332740D02*
G03*
X1101852Y332740I-2032J0D01*
G01*
X625602Y601980D02*
G03*
X625602Y601980I-2032J0D01*
G01*
X570992Y171450D02*
G03*
X570992Y171450I-2032J0D01*
G01*
X431292Y601980D02*
G03*
X431292Y601980I-2032J0D01*
G01*
X424942Y577850D02*
G03*
X424942Y577850I-2032J0D01*
G01*
X266192Y436880D02*
G03*
X266192Y436880I-2032J0D01*
G01*
X325882Y238760D02*
G03*
X325882Y238760I-2032J0D01*
G01*
X1072422Y214740D02*
G03*
X1072422Y214740I-2032J0D01*
G01*
X957072Y393700D02*
G03*
X957072Y393700I-2032J0D01*
G01*
X889762Y190500D02*
G03*
X889762Y190500I-2032J0D01*
G01*
X864362D02*
G03*
X864362Y190500I-2032J0D01*
G01*
X838962D02*
G03*
X838962Y190500I-2032J0D01*
G01*
X428752Y194310D02*
G03*
X428752Y194310I-2032J0D01*
G01*
X565912Y585160D02*
G03*
X565912Y585160I-2032J0D01*
G01*
X572262Y576580D02*
G03*
X572262Y576580I-2032J0D01*
G01*
D105*
X1140714Y660400D02*
G03*
X1140714Y660400I-1016J0D01*
G01*
X1140460Y503936D02*
G03*
X1140460Y503936I-1016J0D01*
G01*
X1121156Y176784D02*
G03*
X1121156Y176784I-1016J0D01*
G01*
X814070Y786384D02*
G03*
X814070Y786384I-1016J0D01*
G01*
X657352Y782828D02*
G03*
X657352Y782828I-1016J0D01*
G01*
X1036066Y250190D02*
G03*
X1036066Y250190I-1016J0D01*
G01*
X507746Y157480D02*
G03*
X507746Y157480I-1016J0D01*
G01*
X1011206Y467690D02*
G03*
X1011206Y467690I-1016J0D01*
G01*
X853186Y655320D02*
G03*
X853186Y655320I-1016J0D01*
G01*
X844676Y625220D02*
G03*
X844676Y625220I-1016J0D01*
G01*
X891286Y544830D02*
G03*
X891286Y544830I-1016J0D01*
G01*
X999236Y467360D02*
G03*
X999236Y467360I-1016J0D01*
G01*
X983056Y468690D02*
G03*
X983056Y468690I-1016J0D01*
G01*
X1075436Y331470D02*
G03*
X1075436Y331470I-1016J0D01*
G01*
X990346Y435610D02*
G03*
X990346Y435610I-1016J0D01*
G01*
X961136Y326646D02*
G03*
X961136Y326646I-1016J0D01*
G01*
X916686Y342900D02*
G03*
X916686Y342900I-1016J0D01*
G01*
X956056Y355600D02*
G03*
X956056Y355600I-1016J0D01*
G01*
X1062736Y331470D02*
G03*
X1062736Y331470I-1016J0D01*
G01*
X868337Y518249D02*
G03*
X868337Y518249I-1016J0D01*
G01*
X868426Y508000D02*
G03*
X868426Y508000I-1016J0D01*
G01*
X868515Y497929D02*
G03*
X868515Y497929I-1016J0D01*
G01*
X832866Y478790D02*
G03*
X832866Y478790I-1016J0D01*
G01*
X566166Y623570D02*
G03*
X566166Y623570I-1016J0D01*
G01*
Y601980D02*
G03*
X566166Y601980I-1016J0D01*
G01*
X624586Y623570D02*
G03*
X624586Y623570I-1016J0D01*
G01*
X568706Y495300D02*
G03*
X568706Y495300I-1016J0D01*
G01*
X393446Y520700D02*
G03*
X393446Y520700I-1016J0D01*
G01*
X415036Y586740D02*
G03*
X415036Y586740I-1016J0D01*
G01*
X868426Y487680D02*
G03*
X868426Y487680I-1016J0D01*
G01*
X916686Y323850D02*
G03*
X916686Y323850I-1016J0D01*
G01*
X986616Y326970D02*
G03*
X986616Y326970I-1016J0D01*
G01*
X999316D02*
G03*
X999316Y326970I-1016J0D01*
G01*
X973916D02*
G03*
X973916Y326970I-1016J0D01*
G01*
X916686Y304800D02*
G03*
X916686Y304800I-1016J0D01*
G01*
X1100836Y332740D02*
G03*
X1100836Y332740I-1016J0D01*
G01*
X624586Y601980D02*
G03*
X624586Y601980I-1016J0D01*
G01*
X569976Y171450D02*
G03*
X569976Y171450I-1016J0D01*
G01*
X430276Y601980D02*
G03*
X430276Y601980I-1016J0D01*
G01*
X423926Y577850D02*
G03*
X423926Y577850I-1016J0D01*
G01*
X265176Y436880D02*
G03*
X265176Y436880I-1016J0D01*
G01*
X324866Y238760D02*
G03*
X324866Y238760I-1016J0D01*
G01*
X1071406Y214740D02*
G03*
X1071406Y214740I-1016J0D01*
G01*
X956056Y393700D02*
G03*
X956056Y393700I-1016J0D01*
G01*
X888746Y190500D02*
G03*
X888746Y190500I-1016J0D01*
G01*
X863346D02*
G03*
X863346Y190500I-1016J0D01*
G01*
X837946D02*
G03*
X837946Y190500I-1016J0D01*
G01*
X427736Y194310D02*
G03*
X427736Y194310I-1016J0D01*
G01*
X564896Y585160D02*
G03*
X564896Y585160I-1016J0D01*
G01*
X571246Y576580D02*
G03*
X571246Y576580I-1016J0D01*
G01*
M02*
